<?xml version="1.0" encoding="UTF-8" standalone="no"?>
<!-- Created with Inkscape (http://www.inkscape.org/) -->

<svg
   xmlns:dc="http://purl.org/dc/elements/1.1/"
   xmlns:cc="http://creativecommons.org/ns#"
   xmlns:rdf="http://www.w3.org/1999/02/22-rdf-syntax-ns#"
   xmlns:svg="http://www.w3.org/2000/svg"
   xmlns="http://www.w3.org/2000/svg"
   xmlns:xlink="http://www.w3.org/1999/xlink"
   xmlns:sodipodi="http://sodipodi.sourceforge.net/DTD/sodipodi-0.dtd"
   xmlns:inkscape="http://www.inkscape.org/namespaces/inkscape"
   width="48"
   height="48"
   id="svg5048"
   version="1.1"
   inkscape:version="0.91 r"
   sodipodi:docname="start-here-kde.svg">
  <defs
     id="defs5050">
    <style
       id="current-color-scheme"
       type="text/css">      .ColorScheme-Text {
        color:#31363b;
      }
      .ColorScheme-Background{
        color:#eff0f1;
      }
      .ColorScheme-ViewText {
        color:#31363b;
      }
      .ColorScheme-ViewBackground{
        color:#fcfcfc;
      }
      .ColorScheme-ViewHover {
        color:#3daee9;
      }
      .ColorScheme-ViewFocus{
        color:#3daee9;
      }
      .ColorScheme-ButtonText {
        color:#31363b;
      }
      .ColorScheme-ButtonBackground{
        color:#eff0f1;
      }
      .ColorScheme-ButtonHover {
        color:#3daee9;
      }
      .ColorScheme-ButtonFocus{
        color:#3daee9;
      }</style>
    <linearGradient
       x1="44.995"
       y1="17.5"
       x2="3.0052"
       gradientUnits="userSpaceOnUse"
       spreadMethod="reflect"
       y2="17.5"
       id="linearGradient2815">
      <stop
         offset="0"
         style="stop-color:#fff;stop-opacity:0"
         id="stop3277" />
      <stop
         offset=".245"
         style="stop-color:#fff"
         id="stop3283" />
      <stop
         offset=".77350"
         style="stop-color:#fff"
         id="stop3285" />
      <stop
         offset="1"
         style="stop-color:#fff;stop-opacity:0"
         id="stop3279" />
    </linearGradient>
    <linearGradient
       x1="26"
       y1="22"
       x2="26"
       gradientUnits="userSpaceOnUse"
       y2="8"
       id="linearGradient2813">
      <stop
         offset="0"
         style="stop-color:#fff"
         id="stop3829" />
      <stop
         offset=".30213"
         style="stop-color:#fff"
         id="stop4295" />
      <stop
         offset=".34361"
         style="stop-color:#fff;stop-opacity:.69020"
         id="stop4293" />
      <stop
         offset="1"
         style="stop-color:#fff;stop-opacity:0"
         id="stop3832" />
    </linearGradient>
    <linearGradient
       x1="23.452"
       y1="30.555"
       gradientTransform="matrix(1.2822 0 0 1.1747 -6.0702 -5.3032)"
       x2="43.007"
       gradientUnits="userSpaceOnUse"
       y2="45.934"
       id="linearGradient2811">
      <stop
         offset="0"
         style="stop-color:#fff;stop-opacity:0"
         id="stop4561" />
      <stop
         offset="1"
         style="stop-color:#fff;stop-opacity:0"
         id="stop4563" />
    </linearGradient>
    <linearGradient
       x1="15.464"
       y1="7.9757"
       x2="15.464"
       gradientUnits="userSpaceOnUse"
       y2="45.042"
       id="linearGradient2809">
      <stop
         offset="0"
         style="stop-color:#c9af8b"
         id="stop3297" />
      <stop
         offset=".23942"
         style="stop-color:#ad8757"
         id="stop3299" />
      <stop
         offset=".27582"
         style="stop-color:#c2a57f"
         id="stop3301" />
      <stop
         offset="1"
         style="stop-color:#9d7d53"
         id="stop3303" />
    </linearGradient>
    <linearGradient
       x1="24.823"
       y1="15.378"
       gradientTransform="matrix(1.2822 0 0 1.5573 -6.0702 -15.291)"
       x2="24.997"
       gradientUnits="userSpaceOnUse"
       y2="37.277"
       id="linearGradient2807">
      <stop
         offset="0"
         style="stop-color:#dac197"
         id="stop3201" />
      <stop
         offset=".23942"
         style="stop-color:#c1a581"
         id="stop3203" />
      <stop
         offset=".27582"
         style="stop-color:#dbc298"
         id="stop3205" />
      <stop
         offset="1"
         style="stop-color:#a68b60"
         id="stop3207" />
    </linearGradient>
    <radialGradient
       r="5"
       gradientTransform="matrix(.59382 0 0 1.5367 41.141 -103.94)"
       cx="5"
       cy="41.5"
       gradientUnits="userSpaceOnUse"
       xlink:href="#linearGradient3681"
       id="radialGradient2805" />
    <linearGradient
       x1="17.554"
       y1="46"
       gradientTransform="matrix(1.757 0 0 1.397 -17.394 -16.412)"
       x2="17.554"
       gradientUnits="userSpaceOnUse"
       y2="35"
       id="linearGradient2803">
      <stop
         offset="0"
         style="stop-opacity:0"
         id="stop3705" />
      <stop
         offset=".5"
         id="stop3711" />
      <stop
         offset="1"
         style="stop-opacity:0"
         id="stop3707" />
    </linearGradient>
    <linearGradient
       id="linearGradient3681">
      <stop
         offset="0"
         id="stop3683" />
      <stop
         offset="1"
         style="stop-opacity:0"
         id="stop3685" />
    </linearGradient>
    <radialGradient
       r="5"
       gradientTransform="matrix(.59382 0 0 1.5367 -6.6595 -103.94)"
       cx="5"
       cy="41.5"
       gradientUnits="userSpaceOnUse"
       xlink:href="#linearGradient3681"
       id="radialGradient2801" />
    <linearGradient
       x1="13.472"
       y1="25.411"
       gradientTransform="matrix(0 .71282 -.67402 0 50.746 15.046)"
       x2="57.726"
       gradientUnits="userSpaceOnUse"
       y2="25.411"
       id="linearGradient2789">
      <stop
         offset="0"
         style="stop-color:#fff"
         id="stop4224" />
      <stop
         offset="1"
         style="stop-color:#fff;stop-opacity:0"
         id="stop4226" />
    </linearGradient>
    <linearGradient
       x1="28.315"
       y1="20.71"
       gradientTransform="matrix(0 -.61460 -.58384 0 46.949 46.633)"
       x2=".81572"
       gradientUnits="userSpaceOnUse"
       y2="20.71"
       id="linearGradient2787">
      <stop
         offset="0"
         style="stop-color:#d7e866"
         id="stop2266" />
      <stop
         offset="1"
         style="stop-color:#8cab2a"
         id="stop2268" />
    </linearGradient>
    <radialGradient
       id="radialGradient2805-9"
       xlink:href="#linearGradient3681"
       gradientUnits="userSpaceOnUse"
       cy="41.5"
       cx="5"
       gradientTransform="matrix(.59382 0 0 1.5367 41.141 -103.94)"
       r="5" />
    <radialGradient
       id="radialGradient2801-3"
       xlink:href="#linearGradient3681"
       gradientUnits="userSpaceOnUse"
       cy="41.5"
       cx="5"
       gradientTransform="matrix(.59382 0 0 1.5367 -6.6595 -103.94)"
       r="5" />
    <clipPath
       clipPathUnits="userSpaceOnUse"
       id="clipPath6332">
      <rect
         style="opacity:1;fill:#002737;fill-opacity:1;stroke:none;stroke-width:0;stroke-linecap:butt;stroke-linejoin:miter;stroke-miterlimit:4;stroke-dasharray:none;stroke-dashoffset:0;stroke-opacity:1"
         id="rect6334"
         width="262.55066"
         height="36.242378"
         x="126.22997"
         y="674.26868"
         ry="9.1197138"
         rx="9.1197138" />
    </clipPath>
    <linearGradient
       id="linearGradient3924-1">
      <stop
         id="stop3926-3"
         style="stop-color:#ffffff;stop-opacity:1"
         offset="0" />
      <stop
         id="stop3928-91"
         style="stop-color:#ffffff;stop-opacity:0.23529412"
         offset="0.06316455" />
      <stop
         id="stop3930-6"
         style="stop-color:#ffffff;stop-opacity:0.15686275"
         offset="0.95056331" />
      <stop
         id="stop3932-6"
         style="stop-color:#ffffff;stop-opacity:0.39215687"
         offset="1" />
    </linearGradient>
    <linearGradient
       id="linearGradient27416-1-2-2">
      <stop
         id="stop27420-2-0-2"
         style="stop-color:#55c1ec;stop-opacity:1"
         offset="0" />
      <stop
         id="stop27422-3-5-1"
         style="stop-color:#3689e6;stop-opacity:1"
         offset="1" />
    </linearGradient>
    <linearGradient
       id="linearGradient4632-92-3-0-8-1-6">
      <stop
         id="stop4634-68-8-0-2-9-1"
         style="stop-color:#fafafa;stop-opacity:1"
         offset="0" />
      <stop
         id="stop4636-8-21-7-1-4-9"
         style="stop-color:#e1e1e1;stop-opacity:1"
         offset="1" />
    </linearGradient>
    <radialGradient
       cx="4.9929786"
       cy="43.5"
       r="2.5"
       fx="4.9929786"
       fy="43.5"
       id="radialGradient3013"
       xlink:href="#linearGradient3688-166-749"
       gradientUnits="userSpaceOnUse"
       gradientTransform="matrix(2.003784,0,0,1.4,27.98813,-17.4)" />
    <linearGradient
       id="linearGradient3688-166-749">
      <stop
         id="stop2883"
         style="stop-color:#181818;stop-opacity:1"
         offset="0" />
      <stop
         id="stop2885"
         style="stop-color:#181818;stop-opacity:0"
         offset="1" />
    </linearGradient>
    <radialGradient
       cx="4.9929786"
       cy="43.5"
       r="2.5"
       fx="4.9929786"
       fy="43.5"
       id="radialGradient3015"
       xlink:href="#linearGradient3688-166-749"
       gradientUnits="userSpaceOnUse"
       gradientTransform="matrix(2.003784,0,0,1.4,-20.01187,-104.4)" />
    <linearGradient
       id="linearGradient3702-501-757">
      <stop
         id="stop2895"
         style="stop-color:#181818;stop-opacity:0"
         offset="0" />
      <stop
         id="stop2897"
         style="stop-color:#181818;stop-opacity:1"
         offset="0.5" />
      <stop
         id="stop2899"
         style="stop-color:#181818;stop-opacity:0"
         offset="1" />
    </linearGradient>
    <linearGradient
       x1="25.058096"
       y1="47.027729"
       x2="25.058096"
       y2="39.999443"
       id="linearGradient4387"
       xlink:href="#linearGradient3702-501-757"
       gradientUnits="userSpaceOnUse" />
    <linearGradient
       id="linearGradient4011-9-9-70-61-7">
      <stop
         id="stop4013-5-4-3-8-3"
         style="stop-color:#ffffff;stop-opacity:1;"
         offset="0" />
      <stop
         offset="0.507761"
         style="stop-color:#ffffff;stop-opacity:0.23529412;"
         id="stop4015-1-5-70-9-5" />
      <stop
         id="stop4017-7-0-13-0-1"
         style="stop-color:#ffffff;stop-opacity:0.15686275;"
         offset="0.83456558" />
      <stop
         id="stop4019-1-12-7-0-7"
         style="stop-color:#ffffff;stop-opacity:0.39215687;"
         offset="1" />
    </linearGradient>
    <linearGradient
       id="linearGradient4215-8-4-07-7">
      <stop
         style="stop-color:#e9e9e9;stop-opacity:1;"
         offset="0"
         id="stop4217-1-2-1-2" />
      <stop
         style="stop-color:#ffffff;stop-opacity:1;"
         offset="1"
         id="stop4219-3-4-0-96" />
    </linearGradient>
    <radialGradient
       gradientTransform="matrix(2.003784,0,0,1.4,-20.01187,-104.4)"
       gradientUnits="userSpaceOnUse"
       xlink:href="#linearGradient3688-166-749"
       id="radialGradient3339-1-4"
       fy="43.5"
       fx="4.9929786"
       r="2.5"
       cy="43.5"
       cx="4.9929786" />
    <radialGradient
       gradientTransform="matrix(2.003784,0,0,1.4,27.98813,-17.4)"
       gradientUnits="userSpaceOnUse"
       xlink:href="#linearGradient3688-166-749"
       id="radialGradient3337-2-2"
       fy="43.5"
       fx="4.9929786"
       r="2.5"
       cy="43.5"
       cx="4.9929786" />
    <linearGradient
       inkscape:collect="always"
       xlink:href="#linearGradient4011-9-9-70-61-7"
       id="linearGradient3590"
       gradientUnits="userSpaceOnUse"
       gradientTransform="matrix(-0.29729724,0,0,0.29729724,52.326181,17.461356)"
       x1="71.204407"
       y1="6.2375584"
       x2="71.204407"
       y2="44.340794" />
    <linearGradient
       inkscape:collect="always"
       xlink:href="#linearGradient4215-8-4-07-7"
       id="linearGradient3593"
       gradientUnits="userSpaceOnUse"
       gradientTransform="matrix(-0.25490196,0,0,0.25490196,39.156863,16.333328)"
       x1="38.976662"
       y1="59.967686"
       x2="38.976662"
       y2="8.0928917" />
    <linearGradient
       inkscape:collect="always"
       xlink:href="#linearGradient27416-1-2-2"
       id="linearGradient3818"
       gradientUnits="userSpaceOnUse"
       gradientTransform="matrix(1.111111,0,0,1.25,-96.572559,-8.817797)"
       x1="30.271185"
       y1="10.028973"
       x2="30.271185"
       y2="55.052982" />
    <linearGradient
       inkscape:collect="always"
       xlink:href="#linearGradient3924-1"
       id="linearGradient3822"
       gradientUnits="userSpaceOnUse"
       gradientTransform="matrix(1.4324324,0,0,1.4362832,-95.395384,-3.2885759)"
       x1="23.99999"
       y1="4.999989"
       x2="23.99999"
       y2="43" />
    <radialGradient
       inkscape:collect="always"
       xlink:href="#linearGradient4632-92-3-0-8-1-6"
       id="radialGradient3826"
       gradientUnits="userSpaceOnUse"
       gradientTransform="matrix(1.0056172e-8,2.3103361,-2.310336,1.0056172e-8,-50.985718,-69.903761)"
       cx="31.999998"
       cy="4.3419166"
       fx="31.999998"
       fy="4.3419166"
       r="27.5" />
    <linearGradient
       inkscape:collect="always"
       xlink:href="#linearGradient27416-1-2-2"
       id="linearGradient3853"
       gradientUnits="userSpaceOnUse"
       gradientTransform="matrix(0.78787871,0,0,0.88636364,-1.212111,-3.363642)"
       x1="30.271185"
       y1="10.028973"
       x2="30.271185"
       y2="55.052982" />
    <linearGradient
       x1="8.9254236"
       y1="5.9997859"
       x2="8.9254236"
       y2="19"
       id="linearGradient2868"
       xlink:href="#linearGradient3678"
       gradientUnits="userSpaceOnUse"
       gradientTransform="translate(-1,-2)" />
    <linearGradient
       id="linearGradient3678">
      <stop
         id="stop3680"
         style="stop-color:#ffffff;stop-opacity:1"
         offset="0" />
      <stop
         id="stop3682"
         style="stop-color:#e6e6e6;stop-opacity:1"
         offset="1" />
    </linearGradient>
    <linearGradient
       x1="9"
       y1="3"
       x2="9"
       y2="21"
       id="linearGradient2393"
       xlink:href="#linearGradient3678"
       gradientUnits="userSpaceOnUse"
       gradientTransform="translate(-2,-1)" />
    <clipPath
       id="clipPath4473"
       clipPathUnits="userSpaceOnUse">
      <path
         style="fill:#fecd38;fill-opacity:1;stroke:none"
         d="m 142,240 c -1.108,0 -2,0.892 -2,2 l 0,36 c 0,1.108 0.892,2 2,2 l 22,0 16,-16 0,-22 c 0,-1.108 -0.892,-2 -2,-2 z"
         id="path4475"
         inkscape:connector-curvature="0"
         sodipodi:nodetypes="ssssccsss" />
    </clipPath>
    <radialGradient
       gradientTransform="matrix(1.1256295,0,0,1.1256295,-41.873391,-39.54673)"
       id="radialGradient29545"
       cx="375.21439"
       cy="783.16357"
       r="300.5752"
       fx="375.21439"
       fy="783.16357"
       gradientUnits="userSpaceOnUse">
      <stop
         offset="0.0112"
         style="stop-color:#eeeeef;stop-opacity:0.94117647;"
         id="stop29547" />
      <stop
         offset="0.29210001"
         style="stop-color:#6193cf;stop-opacity:1;"
         id="stop29549" />
      <stop
         offset="0.45750001"
         style="stop-color:#2c72c7;stop-opacity:1;"
         id="stop29551" />
      <stop
         offset="0.6767"
         style="stop-color:#0057ae;stop-opacity:1;"
         id="stop29553" />
      <stop
         offset="0.8653"
         style="stop-color:#004d9a;stop-opacity:1;"
         id="stop29555" />
      <stop
         offset="1"
         style="stop-color:#00438a;stop-opacity:1;"
         id="stop29557" />
    </radialGradient>
  </defs>
  <sodipodi:namedview
     id="base"
     pagecolor="#ffffff"
     bordercolor="#666666"
     borderopacity="1.0"
     inkscape:pageopacity="0.0"
     inkscape:pageshadow="2"
     inkscape:zoom="8.6599296"
     inkscape:cx="51.695467"
     inkscape:cy="21.620047"
     inkscape:document-units="px"
     inkscape:current-layer="layer1"
     showgrid="false"
     inkscape:window-width="1600"
     inkscape:window-height="840"
     inkscape:window-x="-4"
     inkscape:window-y="34"
     inkscape:window-maximized="1">
    <inkscape:grid
       type="xygrid"
       id="grid3011"
       empspacing="5"
       visible="true"
       enabled="true"
       snapvisiblegridlinesonly="true" />
  </sodipodi:namedview>
  <metadata
     id="metadata5053">
    <rdf:RDF>
      <cc:Work
         rdf:about="">
        <dc:format>image/svg+xml</dc:format>
        <dc:type
           rdf:resource="http://purl.org/dc/dcmitype/StillImage" />
        <dc:title />
      </cc:Work>
    </rdf:RDF>
  </metadata>
  <g
     inkscape:label="Layer 1"
     inkscape:groupmode="layer"
     id="layer1"
     transform="translate(0,-1004.3622)">
    <rect
       style="fill:#8b9299;fill-opacity:0;stroke:none"
       id="rect3024"
       width="20"
       height="60"
       x="864"
       y="543"
       transform="translate(0,52.36218)"
       ry="10" />
    <rect
       style="opacity:0;fill:#ffffff;fill-opacity:1;stroke:none"
       id="rect3861"
       width="48"
       height="48"
       x="0"
       y="1004.3622" />
    <g
       id="g4236">
      <path
         id="path4143"
         transform="translate(0,1004.3622)"
         d="M 26.113281 2 L 19 2.6777344 L 19 31.699219 L 26.037109 30.644531 L 26.037109 18.271484 L 35.505859 32 L 42.923828 29.666016 L 33.226562 16.464844 L 43 4.0175781 L 35.429688 2.3007812 L 26.037109 14.75 L 26.113281 2 z M 10.601562 9.0019531 C 10.519803 9.0119531 10.430691 9.03175 10.369141 9.09375 L 7.5273438 11.917969 C 7.4079609 12.036969 7.3928264 12.219181 7.4804688 12.363281 L 10.800781 17.810547 C 10.211011 18.795147 9.7336297 19.850803 9.3964844 20.970703 L 3.2929688 22.228516 C 3.123156 22.263316 3 22.424856 3 22.597656 L 3 26.587891 C 3 26.756591 3.1285965 26.899653 3.2929688 26.939453 L 9.2109375 28.367188 C 9.5273229 29.663687 10.015122 30.905056 10.662109 32.035156 L 7.2324219 37.220703 C 7.1367639 37.365603 7.1559699 37.559441 7.2792969 37.681641 L 10.121094 40.503906 C 10.240849 40.622506 10.425714 40.638181 10.570312 40.550781 L 15.945312 37.3125 C 16.999778 37.9171 18.141105 38.402109 19.34375 38.724609 L 20.595703 44.708984 C 20.630803 44.878084 20.777279 45 20.951172 45 L 24.96875 45 C 25.137329 45 25.284174 44.888409 25.324219 44.724609 L 26.806641 38.708984 C 28.046979 38.376884 29.215223 37.884353 30.296875 37.251953 L 35.597656 40.703125 C 35.743738 40.797125 35.936707 40.779203 36.060547 40.658203 L 38.886719 37.835938 C 39.006842 37.716838 39.037205 37.534325 38.949219 37.390625 L 37.017578 34.228516 L 36.384766 34.429688 C 36.293306 34.457688 36.191096 34.414938 36.136719 34.335938 C 36.136719 34.335938 34.917995 32.554834 33.326172 30.240234 C 31.422405 33.940334 27.540049 36.46875 23.068359 36.46875 C 16.714156 36.46875 11.558594 31.350162 11.558594 25.039062 C 11.558594 20.396563 14.353038 16.408141 18.355469 14.619141 L 18.355469 11.673828 C 17.627039 11.927128 16.924722 12.23195 16.255859 12.59375 C 16.255021 12.59325 16.257159 12.579125 16.255859 12.578125 L 10.832031 9.0507812 C 10.759111 9.0027812 10.683319 8.9939531 10.601562 9.0019531 z "
         style="color:#31363b;opacity:1;fill:#608ab5;fill-opacity:1" />
      <path
         id="path4773"
         transform="translate(0,1004.3622)"
         d="M 26.113281 2 L 19 2.6777344 L 19 3.6777344 L 26.107422 3 L 26.113281 2 z M 35.429688 2.3007812 L 26.042969 14.742188 L 26.037109 15.75 L 35.429688 3.3007812 L 42.333984 4.8671875 L 43 4.0175781 L 35.429688 2.3007812 z M 10.601562 9.0019531 C 10.519804 9.0119531 10.430691 9.03175 10.369141 9.09375 L 7.5273438 11.917969 C 7.4079609 12.036969 7.3928263 12.219181 7.4804688 12.363281 L 7.7089844 12.738281 L 10.369141 10.09375 C 10.430691 10.03175 10.519803 10.011953 10.601562 10.001953 C 10.683319 9.9939531 10.759111 10.002781 10.832031 10.050781 L 16.255859 13.578125 C 16.257159 13.579125 16.255021 13.59325 16.255859 13.59375 C 16.924722 13.23195 17.627039 12.927128 18.355469 12.673828 L 18.355469 11.673828 C 17.627039 11.927128 16.924722 12.23195 16.255859 12.59375 C 16.255021 12.59325 16.257159 12.579125 16.255859 12.578125 L 10.832031 9.0507812 C 10.759111 9.0027812 10.68332 8.9939531 10.601562 9.0019531 z M 33.605469 16.982422 L 33.226562 17.464844 L 42.328125 29.853516 L 42.923828 29.666016 L 33.605469 16.982422 z M 10.509766 18.332031 C 10.055133 19.166148 9.6751862 20.044935 9.3964844 20.970703 L 3.2929688 22.228516 C 3.1231559 22.263316 3 22.424856 3 22.597656 L 3 23.597656 C 3 23.424856 3.1231559 23.263116 3.2929688 23.228516 L 9.3964844 21.970703 C 9.7336297 20.850803 10.211011 19.795147 10.800781 18.810547 L 10.509766 18.332031 z M 11.580078 25.472656 C 11.57079 25.66072 11.558594 25.848692 11.558594 26.039062 C 11.558594 32.350162 16.714156 37.46875 23.068359 37.46875 C 27.540049 37.46875 31.422405 34.940334 33.326172 31.240234 C 34.917995 33.554834 36.136719 35.335938 36.136719 35.335938 C 36.191096 35.414937 36.293306 35.457688 36.384766 35.429688 L 37.017578 35.228516 L 38.714844 38.007812 L 38.886719 37.835938 C 39.006842 37.716838 39.037205 37.534325 38.949219 37.390625 L 37.017578 34.228516 L 36.384766 34.429688 C 36.293306 34.457687 36.191096 34.414938 36.136719 34.335938 C 36.136719 34.335938 34.917995 32.554834 33.326172 30.240234 C 31.422405 33.940334 27.540049 36.46875 23.068359 36.46875 C 16.861584 36.46875 11.811682 31.581212 11.580078 25.472656 z M 10.369141 32.478516 L 7.2324219 37.220703 C 7.1367639 37.365603 7.1559699 37.559441 7.2792969 37.681641 L 7.4667969 37.867188 L 10.662109 33.035156 C 10.55822 32.853691 10.464771 32.665488 10.369141 32.478516 z "
         style="color:#31363b;opacity:0.2;fill:#ffffff;fill-opacity:1" />
      <path
         inkscape:connector-curvature="0"
         id="path4778"
         d="m 26.107422,1006.3622 -0.07031,11.75 0.0059,-0.01 0.07031,-11.7422 -0.0059,0 z m 16.226562,1.8672 -9.107422,11.5976 0.378907,0.5176 L 43,1008.3798 l -0.666016,-0.1504 z m -34.6249996,7.8711 -0.1816406,0.1797 c -0.1193829,0.119 -0.1345175,0.3012 -0.046875,0.4453 l 3.0292972,4.9687 c 0.09534,-0.1749 0.18878,-0.3508 0.291015,-0.5215 l -3.0917966,-5.0722 z m 10.6464846,1.8808 c -4.002431,1.789 -6.796875,5.7775 -6.796875,10.42 0,0.1464 0.01598,0.2885 0.02148,0.4336 0.217222,-4.3982 2.937083,-8.1379 6.775391,-9.8536 l 0,-1 z m 7.68164,3.6524 0,1 9.46875,13.7285 7.417969,-2.334 -0.595703,-0.8125 -6.822266,2.1465 -9.46875,-13.7285 z M 3,1029.9501 l 0,1 c 0,0.1687 0.1285965,0.3118 0.2929688,0.3516 l 5.9179687,1.4277 c 0.2655819,1.0883 0.6582845,2.1339 1.1582035,3.1113 l 0.292968,-0.4433 c -0.646987,-1.1301 -1.1347861,-2.3715 -1.4511715,-3.668 l -5.9179687,-1.4277 C 3.1285965,1030.2619 3,1030.1188 3,1029.9501 Z m 23.037109,4.0566 -7.037109,1.0547 0,1 7.037109,-1.0547 0,-1 z m 4.259766,6.6075 c -1.081652,0.6324 -2.249896,1.1249 -3.490234,1.457 l -1.482422,6.0156 c -0.04004,0.1638 -0.18689,0.2754 -0.355469,0.2754 l -4.017578,0 c -0.173893,0 -0.320369,-0.1219 -0.355469,-0.291 l -1.251953,-5.9844 c -1.202645,-0.3225 -2.343972,-0.8075 -3.398438,-1.4121 l -5.375,3.2383 c -0.144598,0.087 -0.329463,0.072 -0.449218,-0.047 l -2.6542971,-2.6367 -0.234375,0.3535 c -0.095658,0.1449 -0.076452,0.3387 0.046875,0.4609 l 2.8417971,2.8223 c 0.119755,0.1186 0.30462,0.1342 0.449218,0.047 l 5.375,-3.2383 c 1.054466,0.6046 2.195793,1.0896 3.398438,1.4121 l 1.251953,5.9844 c 0.0351,0.1691 0.181576,0.291 0.355469,0.291 l 4.017578,0 c 0.168579,0 0.315424,-0.1116 0.355469,-0.2754 l 1.482422,-6.0156 c 1.240338,-0.3321 2.408582,-0.8246 3.490234,-1.457 l 5.300781,3.4511 c 0.146082,0.094 0.339051,0.076 0.462891,-0.045 l 2.826172,-2.8223 c 0.120123,-0.1191 0.150486,-0.3016 0.0625,-0.4453 l -0.234375,-0.3828 -2.654297,2.6504 c -0.12384,0.121 -0.316809,0.1389 -0.462891,0.045 l -5.300781,-3.4511 z"
         style="color:#31363b;opacity:0.3;fill:#000000;fill-opacity:1" />
    </g>
  </g>
</svg>
