<?xml version="1.0" encoding="UTF-8" standalone="no"?>
<!-- Created with Inkscape (http://www.inkscape.org/) -->

<svg
   xmlns:osb="http://www.openswatchbook.org/uri/2009/osb"
   xmlns:dc="http://purl.org/dc/elements/1.1/"
   xmlns:cc="http://creativecommons.org/ns#"
   xmlns:rdf="http://www.w3.org/1999/02/22-rdf-syntax-ns#"
   xmlns:svg="http://www.w3.org/2000/svg"
   xmlns="http://www.w3.org/2000/svg"
   xmlns:sodipodi="http://sodipodi.sourceforge.net/DTD/sodipodi-0.dtd"
   xmlns:inkscape="http://www.inkscape.org/namespaces/inkscape"
   sodipodi:docname="filename-genre-amarok.svg"
   inkscape:export-filename="/home/sam/source-symbolic.png"
   inkscape:export-xdpi="270"
   inkscape:export-ydpi="270"
   height="16"
   id="svg7384"
   style="enable-background:new"
   version="1.1"
   inkscape:version="0.91 r"
   width="16.000196">
  <sodipodi:namedview
     inkscape:bbox-nodes="true"
     inkscape:bbox-paths="false"
     bordercolor="#666666"
     borderlayer="false"
     borderopacity="1"
     inkscape:current-layer="layer12"
     inkscape:cx="4.995923"
     inkscape:cy="-19.365214"
     gridtolerance="10"
     inkscape:guide-bbox="true"
     guidetolerance="10"
     id="namedview88"
     inkscape:object-nodes="true"
     inkscape:object-paths="true"
     objecttolerance="10"
     pagecolor="#f7f7f7"
     inkscape:pageopacity="0"
     inkscape:pageshadow="2"
     showborder="true"
     showgrid="false"
     showguides="true"
     inkscape:showpageshadow="false"
     inkscape:snap-bbox="true"
     inkscape:snap-bbox-edge-midpoints="false"
     inkscape:snap-bbox-midpoints="true"
     inkscape:snap-center="false"
     inkscape:snap-global="true"
     inkscape:snap-grids="true"
     inkscape:snap-intersection-paths="true"
     inkscape:snap-midpoints="true"
     inkscape:snap-nodes="true"
     inkscape:snap-object-midpoints="true"
     inkscape:snap-others="true"
     inkscape:snap-page="false"
     inkscape:snap-smooth-nodes="true"
     inkscape:snap-to-guides="true"
     inkscape:window-height="842"
     inkscape:window-maximized="1"
     inkscape:window-width="1600"
     inkscape:window-x="-4"
     inkscape:window-y="32"
     inkscape:zoom="4.34">
    <inkscape:grid
       color="#000000"
       dotted="false"
       empcolor="#0800ff"
       empopacity="0.4627451"
       empspacing="4"
       enabled="true"
       id="grid4866"
       opacity="0.16470588"
       originx="-24.0002"
       originy="-336.00336"
       snapvisiblegridlinesonly="true"
       spacingx="0.25px"
       spacingy="0.25px"
       type="xygrid"
       visible="true" />
  </sodipodi:namedview>
  <metadata
     id="metadata90">
    <rdf:RDF>
      <cc:Work
         rdf:about="">
        <dc:format>image/svg+xml</dc:format>
        <dc:type
           rdf:resource="http://purl.org/dc/dcmitype/StillImage" />
        <dc:title>Paper Symbolic Icon Theme</dc:title>
      </cc:Work>
    </rdf:RDF>
  </metadata>
  <title
     id="title8473">Paper Symbolic Icon Theme</title>
  <defs
     id="defs7386">
    <linearGradient
       id="linearGradient5606"
       osb:paint="solid">
      <stop
         id="stop5608"
         offset="0"
         style="stop-color:#000000;stop-opacity:1;" />
    </linearGradient>
  </defs>
  <g
     inkscape:groupmode="layer"
     id="layer12"
     inkscape:label="actions"
     style="display:inline"
     transform="translate(-265.0004,119.00336)">
    <rect
       style="color:#000000;display:inline;overflow:visible;visibility:visible;fill:none;stroke:none;stroke-width:7.5;marker:none;enable-background:accumulate"
       id="rect4198"
       width="16"
       height="16"
       x="265.00049"
       y="-119.00336" />
    <rect
       style="color:#000000;display:inline;overflow:visible;visibility:visible;fill:none;stroke:none;stroke-width:6;marker:none;enable-background:accumulate"
       id="rect3038"
       width="16"
       height="16"
       x="265.00049"
       y="-119.00336" />
    <g
       id="g4256"
       transform="matrix(0.06898115,0,0,0.06892536,265.99481,-118.00334)"
       style="fill:#000000;fill-opacity:1;opacity:0.5">
      <path
         id="path4218"
         d="M 201.572,15.411 187.627,1.464 c -1.823,-1.823 -4.732,-1.96 -6.72,-0.32 L 157.931,20.12 c -1.086,0.898 -1.743,2.211 -1.81,3.618 -0.067,1.407 0.462,2.776 1.459,3.773 l 0.964,0.964 L 102.8,84.219 96.111,77.53 c -3.932,-3.933 -9.165,-6.099 -14.734,-6.099 -5.109,0 -9.989,1.88 -13.743,5.295 -0.438,0.398 -0.868,0.809 -1.293,1.233 -2.641,2.642 -4.866,5.646 -6.614,8.929 -2.271,4.268 -6.495,6.979 -11.297,7.253 -13.375,0.765 -25.691,6.459 -34.68,16.035 -19.356,20.622 -17.987,54.623 3.052,75.794 10.829,10.898 25.614,17.148 40.565,17.148 0.002,0 0.002,0 0.003,0 13.992,0 27.013,-5.314 36.662,-14.962 8.861,-8.861 14.141,-20.784 14.867,-33.57 0.274,-4.845 2.852,-8.989 6.894,-11.087 3.856,-1.999 7.317,-4.638 10.288,-7.842 0.005,-0.006 0.122,-0.132 0.127,-0.139 7.485,-8.154 7.177,-20.714 -0.702,-28.593 l -6.687,-6.687 55.744,-55.744 0.962,0.962 c 0.94,0.941 2.212,1.465 3.535,1.465 0.079,0 0.159,-0.002 0.238,-0.006 1.407,-0.066 2.72,-0.724 3.617,-1.811 l 18.976,-22.976 c 1.642,-1.986 1.504,-4.895 -0.319,-6.717 z M 91.436,127.605 c 0,4.275 -1.664,8.294 -4.688,11.317 -3.023,3.022 -7.042,4.688 -11.317,4.688 -4.275,0 -8.294,-1.665 -11.317,-4.688 -3.023,-3.023 -4.688,-7.041 -4.688,-11.316 0,-4.274 1.665,-8.294 4.688,-11.316 3.023,-3.023 7.042,-4.688 11.317,-4.688 4.275,0 8.294,1.664 11.317,4.687 3.023,3.022 4.688,7.042 4.688,11.316 z m -28.451,49.387 c -0.977,0.977 -2.256,1.465 -3.536,1.465 -1.28,0 -2.559,-0.488 -3.536,-1.465 L 26.044,147.123 c -1.953,-1.952 -1.953,-5.118 0,-7.07 1.953,-1.953 5.118,-1.953 7.071,0 l 29.869,29.869 c 1.953,1.952 1.953,5.118 10e-4,7.07 z"
         inkscape:connector-curvature="0"
         style="fill:#000000;fill-opacity:1" />
      <g
         id="g4220"
         style="fill:#000000;fill-opacity:1" />
      <g
         id="g4222"
         style="fill:#000000;fill-opacity:1" />
      <g
         id="g4224"
         style="fill:#000000;fill-opacity:1" />
      <g
         id="g4226"
         style="fill:#000000;fill-opacity:1" />
      <g
         id="g4228"
         style="fill:#000000;fill-opacity:1" />
      <g
         id="g4230"
         style="fill:#000000;fill-opacity:1" />
      <g
         id="g4232"
         style="fill:#000000;fill-opacity:1" />
      <g
         id="g4234"
         style="fill:#000000;fill-opacity:1" />
      <g
         id="g4236"
         style="fill:#000000;fill-opacity:1" />
      <g
         id="g4238"
         style="fill:#000000;fill-opacity:1" />
      <g
         id="g4240"
         style="fill:#000000;fill-opacity:1" />
      <g
         id="g4242"
         style="fill:#000000;fill-opacity:1" />
      <g
         id="g4244"
         style="fill:#000000;fill-opacity:1" />
      <g
         id="g4246"
         style="fill:#000000;fill-opacity:1" />
      <g
         id="g4248"
         style="fill:#000000;fill-opacity:1" />
    </g>
  </g>
</svg>
