<?xml version="1.0" encoding="UTF-8" standalone="no"?>
<!-- Created with Inkscape (http://www.inkscape.org/) -->

<svg
   xmlns:dc="http://purl.org/dc/elements/1.1/"
   xmlns:cc="http://creativecommons.org/ns#"
   xmlns:rdf="http://www.w3.org/1999/02/22-rdf-syntax-ns#"
   xmlns:svg="http://www.w3.org/2000/svg"
   xmlns="http://www.w3.org/2000/svg"
   xmlns:xlink="http://www.w3.org/1999/xlink"
   xmlns:sodipodi="http://sodipodi.sourceforge.net/DTD/sodipodi-0.dtd"
   xmlns:inkscape="http://www.inkscape.org/namespaces/inkscape"
   id="svg2817"
   height="48"
   width="48"
   version="1.0"
   inkscape:version="0.91 r"
   sodipodi:docname="doublecmd.svg">
  <metadata
     id="metadata57">
    <rdf:RDF>
      <cc:Work
         rdf:about="">
        <dc:format>image/svg+xml</dc:format>
        <dc:type
           rdf:resource="http://purl.org/dc/dcmitype/StillImage" />
        <dc:title />
      </cc:Work>
    </rdf:RDF>
  </metadata>
  <sodipodi:namedview
     pagecolor="#ffffff"
     bordercolor="#666666"
     borderopacity="1"
     objecttolerance="10"
     gridtolerance="10"
     guidetolerance="10"
     inkscape:pageopacity="0"
     inkscape:pageshadow="2"
     inkscape:window-width="1600"
     inkscape:window-height="842"
     id="namedview55"
     showgrid="false"
     inkscape:zoom="14.06"
     inkscape:cx="19.817779"
     inkscape:cy="24.778257"
     inkscape:window-x="-4"
     inkscape:window-y="32"
     inkscape:window-maximized="1"
     inkscape:current-layer="svg2817" />
  <defs
     id="defs2819">
    <linearGradient
       inkscape:collect="always"
       id="linearGradient4185">
      <stop
         style="stop-color:#000000;stop-opacity:1;"
         offset="0"
         id="stop4187" />
      <stop
         style="stop-color:#000000;stop-opacity:0;"
         offset="1"
         id="stop4189" />
    </linearGradient>
    <linearGradient
       id="linearGradient2815"
       y2="17.5"
       spreadMethod="reflect"
       gradientUnits="userSpaceOnUse"
       x2="3.0052"
       y1="17.5"
       x1="44.995">
      <stop
         id="stop3277"
         style="stop-color:#fff;stop-opacity:0"
         offset="0" />
      <stop
         id="stop3283"
         style="stop-color:#fff"
         offset=".245" />
      <stop
         id="stop3285"
         style="stop-color:#fff"
         offset=".77350" />
      <stop
         id="stop3279"
         style="stop-color:#fff;stop-opacity:0"
         offset="1" />
    </linearGradient>
    <linearGradient
       id="linearGradient2813"
       y2="8"
       gradientUnits="userSpaceOnUse"
       x2="26"
       y1="22"
       x1="26">
      <stop
         id="stop3829"
         style="stop-color:#fff"
         offset="0" />
      <stop
         id="stop4295"
         style="stop-color:#fff"
         offset=".30213" />
      <stop
         id="stop4293"
         style="stop-color:#fff;stop-opacity:.69020"
         offset=".34361" />
      <stop
         id="stop3832"
         style="stop-color:#fff;stop-opacity:0"
         offset="1" />
    </linearGradient>
    <linearGradient
       id="linearGradient2811"
       y2="45.934"
       gradientUnits="userSpaceOnUse"
       x2="43.007"
       gradientTransform="matrix(1.2822 0 0 1.1747 -6.0702 -5.3032)"
       y1="30.555"
       x1="23.452">
      <stop
         id="stop4561"
         style="stop-color:#fff;stop-opacity:0"
         offset="0" />
      <stop
         id="stop4563"
         style="stop-color:#fff;stop-opacity:0"
         offset="1" />
    </linearGradient>
    <linearGradient
       id="linearGradient2809"
       y2="45.042"
       gradientUnits="userSpaceOnUse"
       x2="15.464"
       y1="7.9757"
       x1="15.464">
      <stop
         id="stop3297"
         style="stop-color:#c9af8b"
         offset="0" />
      <stop
         id="stop3299"
         style="stop-color:#ad8757"
         offset=".23942" />
      <stop
         id="stop3301"
         style="stop-color:#c2a57f"
         offset=".27582" />
      <stop
         id="stop3303"
         style="stop-color:#9d7d53"
         offset="1" />
    </linearGradient>
    <linearGradient
       id="linearGradient2807"
       y2="37.277"
       gradientUnits="userSpaceOnUse"
       x2="24.997"
       gradientTransform="matrix(1.2822 0 0 1.5573 -6.0702 -15.291)"
       y1="15.378"
       x1="24.823">
      <stop
         id="stop3201"
         style="stop-color:#dac197"
         offset="0" />
      <stop
         id="stop3203"
         style="stop-color:#c1a581"
         offset=".23942" />
      <stop
         id="stop3205"
         style="stop-color:#dbc298"
         offset=".27582" />
      <stop
         id="stop3207"
         style="stop-color:#a68b60"
         offset="1" />
    </linearGradient>
    <radialGradient
       id="radialGradient2805"
       xlink:href="#linearGradient3681"
       gradientUnits="userSpaceOnUse"
       cy="41.5"
       cx="5"
       gradientTransform="matrix(.59382 0 0 1.5367 41.141 -103.94)"
       r="5" />
    <linearGradient
       id="linearGradient2803"
       y2="35"
       gradientUnits="userSpaceOnUse"
       x2="17.554"
       gradientTransform="matrix(1.757 0 0 1.397 -17.394 -16.412)"
       y1="46"
       x1="17.554">
      <stop
         id="stop3705"
         style="stop-opacity:0"
         offset="0" />
      <stop
         id="stop3711"
         offset=".5" />
      <stop
         id="stop3707"
         style="stop-opacity:0"
         offset="1" />
    </linearGradient>
    <linearGradient
       id="linearGradient3681">
      <stop
         id="stop3683"
         offset="0" />
      <stop
         id="stop3685"
         style="stop-opacity:0"
         offset="1" />
    </linearGradient>
    <radialGradient
       id="radialGradient2801"
       xlink:href="#linearGradient3681"
       gradientUnits="userSpaceOnUse"
       cy="41.5"
       cx="5"
       gradientTransform="matrix(.59382 0 0 1.5367 -6.6595 -103.94)"
       r="5" />
    <linearGradient
       id="linearGradient2789"
       y2="25.411"
       gradientUnits="userSpaceOnUse"
       x2="57.726"
       gradientTransform="matrix(0 .71282 -.67402 0 50.746 15.046)"
       y1="25.411"
       x1="13.472">
      <stop
         id="stop4224"
         style="stop-color:#fff"
         offset="0" />
      <stop
         id="stop4226"
         style="stop-color:#fff;stop-opacity:0"
         offset="1" />
    </linearGradient>
    <linearGradient
       id="linearGradient2787"
       y2="20.71"
       gradientUnits="userSpaceOnUse"
       x2=".81572"
       gradientTransform="matrix(0 -.61460 -.58384 0 46.949 46.633)"
       y1="20.71"
       x1="28.315">
      <stop
         id="stop2266"
         style="stop-color:#d7e866"
         offset="0" />
      <stop
         id="stop2268"
         style="stop-color:#8cab2a"
         offset="1" />
    </linearGradient>
    <linearGradient
       inkscape:collect="always"
       xlink:href="#linearGradient4185"
       id="linearGradient4191"
       x1="24.291777"
       y1="22.120689"
       x2="24.238728"
       y2="3.9509284"
       gradientUnits="userSpaceOnUse" />
  </defs>
  <rect
     ry="2"
     rx="2"
     y="-180"
     x="-281"
     height="40"
     width="40"
     id="rect4371"
     style="opacity:0.5;fill:#000000;fill-opacity:1;stroke:none;"
     transform="matrix(0,-1,-1,0,-136,-237)" />
  <rect
     transform="matrix(0,-1,-1,0,0,0)"
     style="fill:#d95951;fill-opacity:1;stroke:none"
     id="rect4203-6"
     width="40"
     height="40"
     x="-43"
     y="-44"
     rx="2"
     ry="2" />
  <path
     style="opacity:0.1;fill:#ffffff;fill-opacity:1;stroke:none"
     d="M 6,3 C 4.892,3 4,3.892 4,5 L 4,6 C 4,4.892 4.892,4 6,4 l 36,0 c 1.108,0 2,0.892 2,2 L 44,5 C 44,3.892 43.108,3 42,3 L 6,3 Z"
     id="rect4592"
     inkscape:connector-curvature="0" />
  <path
     id="path4597"
     d="M 6,43 C 4.892,43 4,42.108 4,41 l 0,-1 c 0,1.108 0.892,2 2,2 l 36,0 c 1.108,0 2,-0.892 2,-2 l 0,1 c 0,1.108 -0.892,2 -2,2 L 6,43 Z"
     style="opacity:0.1;fill:#000000;fill-opacity:1;stroke:none"
     inkscape:connector-curvature="0" />
  <g
     transform="matrix(-0.99414699,0,0,1.0058875,35.414929,-0.41623521)"
     style="font-style:normal;font-variant:normal;font-weight:normal;font-stretch:normal;font-size:29.80191803px;line-height:125%;font-family:'Droid Naskh Shift Alt';-inkscape-font-specification:'Droid Naskh Shift Alt';letter-spacing:0px;word-spacing:0px;fill:#ffffff;fill-opacity:1;stroke:none;stroke-width:1px;stroke-linecap:butt;stroke-linejoin:miter;stroke-opacity:1"
     id="text4220">
    <path
       d="M 12.84375 13 C 10.606258 13 8.658831 13.420555 7 14.259766 L 8.0703125 16.542969 C 9.7580758 15.762308 11.358881 15.371094 12.873047 15.371094 C 15.149117 15.371094 16.938245 16.141789 18.240234 17.683594 C 19.542224 19.225399 20.193359 21.334049 20.193359 24.007812 C 20.193359 26.7694 19.56224 28.901524 18.298828 30.404297 C 17.035416 31.897311 15.23628 32.642578 12.902344 32.642578 C 11.397823 32.642578 9.7048698 32.360901 7.8242188 31.794922 L 7.8242188 34.136719 C 8.7211448 34.468499 9.584647 34.693447 10.414062 34.810547 C 11.243478 34.937404 12.199128 35 13.279297 35 C 16.394427 35 18.794659 34.043479 20.482422 32.130859 C 22.160541 30.208482 23 27.491489 23 23.978516 C 23 21.773148 22.59931 19.840545 21.798828 18.181641 C 20.988701 16.522736 19.816657 15.243463 18.283203 14.345703 C 16.740105 13.447943 14.926933 13 12.84375 13 z M 35.15625 13 C 33.073067 13 31.259895 13.447943 29.716797 14.345703 C 28.183343 15.243463 27.011299 16.522736 26.201172 18.181641 C 25.40069 19.840545 25 21.773148 25 23.978516 C 25 27.491489 25.839459 30.208482 27.517578 32.130859 C 29.205341 34.043479 31.605573 35 34.720703 35 C 35.800872 35 36.756522 34.937404 37.585938 34.810547 C 38.415353 34.693447 39.278855 34.468499 40.175781 34.136719 L 40.175781 31.794922 C 38.29513 32.360901 36.602177 32.642578 35.097656 32.642578 C 32.76372 32.642578 30.964584 31.897311 29.701172 30.404297 C 28.43776 28.901524 27.806641 26.7694 27.806641 24.007812 C 27.806641 21.334049 28.457776 19.225399 29.759766 17.683594 C 31.061755 16.141789 32.850883 15.371094 35.126953 15.371094 C 36.641119 15.371094 38.241924 15.762308 39.929688 16.542969 L 41 14.259766 C 39.341169 13.420555 37.393742 13 35.15625 13 z "
       transform="matrix(-1.0058875,0,0,0.99414696,35.623433,0.41379897)"
       id="path4225" />
  </g>
  <path
     style="opacity:0.1;fill:#000000;fill-opacity:1;stroke:none"
     d="m 4,23 20,20 18,0 c 1.108,0 2,-0.892 2,-2 L 44,23 4,23 Z"
     id="path4038"
     inkscape:connector-curvature="0" />
  <path
     id="path4026"
     d="m 6,3.9999995 c -1.108,0 -2,0.892 -2,2 L 4,23 l 39.999999,0 0,-17.0000005 c 0,-1.108 -0.892,-2 -2,-2 L 6,3.9999995 Z"
     style="opacity:0.15;fill:url(#linearGradient4191);fill-opacity:1;stroke:none"
     inkscape:connector-curvature="0" />
  <g
     id="g4227"
     style="font-style:normal;font-variant:normal;font-weight:normal;font-stretch:normal;font-size:29.80191803px;line-height:125%;font-family:'Droid Naskh Shift Alt';-inkscape-font-specification:'Droid Naskh Shift Alt';letter-spacing:0px;word-spacing:0px;fill:#ffffff;fill-opacity:1;stroke:none;stroke-width:1px;stroke-linecap:butt;stroke-linejoin:miter;stroke-opacity:1"
     transform="matrix(0.99414699,0,0,1.0058875,12.585072,-0.41623521)" />
</svg>
