<?xml version="1.0" encoding="UTF-8" standalone="no"?>
<!-- Created with Inkscape (http://www.inkscape.org/) -->

<svg
   xmlns:dc="http://purl.org/dc/elements/1.1/"
   xmlns:cc="http://creativecommons.org/ns#"
   xmlns:rdf="http://www.w3.org/1999/02/22-rdf-syntax-ns#"
   xmlns:svg="http://www.w3.org/2000/svg"
   xmlns="http://www.w3.org/2000/svg"
   xmlns:xlink="http://www.w3.org/1999/xlink"
   xmlns:sodipodi="http://sodipodi.sourceforge.net/DTD/sodipodi-0.dtd"
   xmlns:inkscape="http://www.inkscape.org/namespaces/inkscape"
   id="svg2817"
   height="48"
   width="48"
   version="1.0"
   inkscape:version="0.91 r"
   sodipodi:docname="gimp.svg">
  <metadata
     id="metadata57">
    <rdf:RDF>
      <cc:Work
         rdf:about="">
        <dc:format>image/svg+xml</dc:format>
        <dc:type
           rdf:resource="http://purl.org/dc/dcmitype/StillImage" />
        <dc:title />
      </cc:Work>
    </rdf:RDF>
  </metadata>
  <sodipodi:namedview
     pagecolor="#afafaf"
     bordercolor="#666666"
     borderopacity="1"
     objecttolerance="10"
     gridtolerance="10"
     guidetolerance="10"
     inkscape:pageopacity="0"
     inkscape:pageshadow="2"
     inkscape:window-width="1600"
     inkscape:window-height="841"
     id="namedview55"
     showgrid="false"
     inkscape:zoom="13.12"
     inkscape:cx="21.552933"
     inkscape:cy="17.778261"
     inkscape:window-x="-4"
     inkscape:window-y="33"
     inkscape:window-maximized="1"
     inkscape:current-layer="svg2817" />
  <defs
     id="defs2819">
    <linearGradient
       id="linearGradient2815"
       y2="17.5"
       spreadMethod="reflect"
       gradientUnits="userSpaceOnUse"
       x2="3.0052"
       y1="17.5"
       x1="44.995">
      <stop
         id="stop3277"
         style="stop-color:#fff;stop-opacity:0"
         offset="0" />
      <stop
         id="stop3283"
         style="stop-color:#fff"
         offset=".245" />
      <stop
         id="stop3285"
         style="stop-color:#fff"
         offset=".77350" />
      <stop
         id="stop3279"
         style="stop-color:#fff;stop-opacity:0"
         offset="1" />
    </linearGradient>
    <linearGradient
       id="linearGradient2813"
       y2="8"
       gradientUnits="userSpaceOnUse"
       x2="26"
       y1="22"
       x1="26">
      <stop
         id="stop3829"
         style="stop-color:#fff"
         offset="0" />
      <stop
         id="stop4295"
         style="stop-color:#fff"
         offset=".30213" />
      <stop
         id="stop4293"
         style="stop-color:#fff;stop-opacity:.69020"
         offset=".34361" />
      <stop
         id="stop3832"
         style="stop-color:#fff;stop-opacity:0"
         offset="1" />
    </linearGradient>
    <linearGradient
       id="linearGradient2811"
       y2="45.934"
       gradientUnits="userSpaceOnUse"
       x2="43.007"
       gradientTransform="matrix(1.2822 0 0 1.1747 -6.0702 -5.3032)"
       y1="30.555"
       x1="23.452">
      <stop
         id="stop4561"
         style="stop-color:#fff;stop-opacity:0"
         offset="0" />
      <stop
         id="stop4563"
         style="stop-color:#fff;stop-opacity:0"
         offset="1" />
    </linearGradient>
    <linearGradient
       id="linearGradient2809"
       y2="45.042"
       gradientUnits="userSpaceOnUse"
       x2="15.464"
       y1="7.9757"
       x1="15.464">
      <stop
         id="stop3297"
         style="stop-color:#c9af8b"
         offset="0" />
      <stop
         id="stop3299"
         style="stop-color:#ad8757"
         offset=".23942" />
      <stop
         id="stop3301"
         style="stop-color:#c2a57f"
         offset=".27582" />
      <stop
         id="stop3303"
         style="stop-color:#9d7d53"
         offset="1" />
    </linearGradient>
    <linearGradient
       id="linearGradient2807"
       y2="37.277"
       gradientUnits="userSpaceOnUse"
       x2="24.997"
       gradientTransform="matrix(1.2822 0 0 1.5573 -6.0702 -15.291)"
       y1="15.378"
       x1="24.823">
      <stop
         id="stop3201"
         style="stop-color:#dac197"
         offset="0" />
      <stop
         id="stop3203"
         style="stop-color:#c1a581"
         offset=".23942" />
      <stop
         id="stop3205"
         style="stop-color:#dbc298"
         offset=".27582" />
      <stop
         id="stop3207"
         style="stop-color:#a68b60"
         offset="1" />
    </linearGradient>
    <radialGradient
       id="radialGradient2805"
       xlink:href="#linearGradient3681"
       gradientUnits="userSpaceOnUse"
       cy="41.5"
       cx="5"
       gradientTransform="matrix(.59382 0 0 1.5367 41.141 -103.94)"
       r="5" />
    <linearGradient
       id="linearGradient2803"
       y2="35"
       gradientUnits="userSpaceOnUse"
       x2="17.554"
       gradientTransform="matrix(1.757 0 0 1.397 -17.394 -16.412)"
       y1="46"
       x1="17.554">
      <stop
         id="stop3705"
         style="stop-opacity:0"
         offset="0" />
      <stop
         id="stop3711"
         offset=".5" />
      <stop
         id="stop3707"
         style="stop-opacity:0"
         offset="1" />
    </linearGradient>
    <linearGradient
       id="linearGradient3681">
      <stop
         id="stop3683"
         offset="0" />
      <stop
         id="stop3685"
         style="stop-opacity:0"
         offset="1" />
    </linearGradient>
    <radialGradient
       id="radialGradient2801"
       xlink:href="#linearGradient3681"
       gradientUnits="userSpaceOnUse"
       cy="41.5"
       cx="5"
       gradientTransform="matrix(.59382 0 0 1.5367 -6.6595 -103.94)"
       r="5" />
    <linearGradient
       id="linearGradient2789"
       y2="25.411"
       gradientUnits="userSpaceOnUse"
       x2="57.726"
       gradientTransform="matrix(0 .71282 -.67402 0 50.746 15.046)"
       y1="25.411"
       x1="13.472">
      <stop
         id="stop4224"
         style="stop-color:#fff"
         offset="0" />
      <stop
         id="stop4226"
         style="stop-color:#fff;stop-opacity:0"
         offset="1" />
    </linearGradient>
    <linearGradient
       id="linearGradient2787"
       y2="20.71"
       gradientUnits="userSpaceOnUse"
       x2=".81572"
       gradientTransform="matrix(0 -.61460 -.58384 0 46.949 46.633)"
       y1="20.71"
       x1="28.315">
      <stop
         id="stop2266"
         style="stop-color:#d7e866"
         offset="0" />
      <stop
         id="stop2268"
         style="stop-color:#8cab2a"
         offset="1" />
    </linearGradient>
    <radialGradient
       r="5"
       gradientTransform="matrix(.59382 0 0 1.5367 41.141 -103.94)"
       cx="5"
       cy="41.5"
       gradientUnits="userSpaceOnUse"
       xlink:href="#linearGradient3681"
       id="radialGradient2805-9" />
    <radialGradient
       r="5"
       gradientTransform="matrix(.59382 0 0 1.5367 -6.6595 -103.94)"
       cx="5"
       cy="41.5"
       gradientUnits="userSpaceOnUse"
       xlink:href="#linearGradient3681"
       id="radialGradient2801-3" />
  </defs>
  <path
     inkscape:connector-curvature="0"
     style="opacity:1;fill:#ffffff;fill-opacity:1;fill-rule:nonzero;stroke:none;stroke-opacity:1"
     d="m 20.19746,29.316806 a 3.96269,5.2823989 0 0 1 -5.07685,3.156015 3.96269,5.2823989 0 0 1 -2.371773,-6.764977 3.96269,5.2823989 0 0 1 5.072895,-3.167291 3.96269,5.2823989 0 0 1 2.380229,6.759698"
     id="path4238" />
  <g
     id="g4183"
     transform="matrix(1.4904356,0,0,1.7300597,-14.885226,-14.300597)"
     style="fill:#765d40;fill-opacity:1">
    <path
       sodipodi:nodetypes="cacccc"
       inkscape:connector-curvature="0"
       id="path3342-7"
       d="m 27.646256,10.772643 c -0.691224,1.19077 -1.147289,2.505523 -1.96796,3.615362 -0.642282,0.868599 -1.356306,1.701438 -2.278294,2.334461 1.790045,-0.669306 3.942866,-0.961634 5.29834,-1.592844 0.04651,-0.02258 0.09646,-0.04707 0.144051,-0.07023 -0.212719,-1.457544 -0.592658,-2.912985 -1.196137,-4.286745 z"
       style="fill:#765d40;fill-opacity:1;stroke-width:0.45385963" />
    <path
       sodipodi:nodetypes="cccsccccssssscccccccscccccscccccccccccccccccccccccscsscssccccccscccccsccscccscsssscccccsccccccccssccccccscccccccccccsccsccccssscsccccccscccsscccccccccsccccccccccccccc"
       inkscape:connector-curvature="0"
       id="path3344"
       d="m 38.667537,13.704896 c -1.452223,0.258008 0.21456,1.807613 -0.133012,2.653431 1.260497,-0.357982 1.511105,-2.29687 0.133012,-2.653431 z m 0.602564,3.276854 c -0.07009,9.15e-4 -0.147222,0.02713 -0.195203,0.06271 -0.906301,0.672181 -0.282137,2.100627 -0.887211,2.938068 0.427661,0.02494 0.857246,-0.119449 1.234685,-0.2732 1.227507,-0.411446 0.776954,-2.110202 -0.04152,-2.698645 -0.02918,-0.02098 -0.0687,-0.02951 -0.110749,-0.02894 z m -1.874232,0.06505 c -0.436583,-0.0033 -0.287942,1.167686 0.191748,1.187218 0.405798,0.01652 0.449884,-0.679727 0.279467,-0.986361 -0.07404,-0.133218 -0.35993,-0.200028 -0.471215,-0.200857 z m 0.498724,3.261482 c -1.424001,0.431183 -2.922767,0.913224 -4.452438,1.058701 2.45e-4,-1.4e-5 6.53e-4,-2.6e-5 8.97e-4,-5.4e-5 0.01605,-7.48e-4 0.03117,-0.0011 0.04632,-0.0014 0.0068,-8.3e-5 0.01397,-4.16e-4 0.0206,-4.99e-4 0.01421,-8.3e-5 0.02745,8.3e-5 0.04069,4.16e-4 0.0065,8.3e-5 0.01318,8.3e-5 0.01939,4.16e-4 0.01131,4.16e-4 0.02174,0.0013 0.03218,0.0021 0.0076,6.66e-4 0.01542,0.0011 0.02258,0.002 0.01394,0.0016 0.02727,0.0035 0.03922,0.006 8.2e-5,2.5e-5 2.45e-4,2.6e-5 4.08e-4,5.6e-5 4.89e-4,8.3e-5 8.97e-4,1.66e-4 0.0014,2.49e-4 0.0061,0.0013 0.0119,0.0027 0.0174,0.0043 8.97e-4,1.67e-4 0.0017,5e-4 0.0026,8.32e-4 0.0053,0.0016 0.01046,0.0033 0.01523,0.0051 8.2e-5,2.6e-5 8.2e-5,8.4e-5 2.45e-4,8.4e-5 2.44e-4,8.3e-5 6.52e-4,1.66e-4 8.15e-4,4.15e-4 0.0051,0.002 0.0099,0.0042 0.01427,0.0065 0.02233,0.01194 0.03536,0.02825 0.03756,0.04984 8.2e-5,10e-4 4.08e-4,0.0019 4.08e-4,0.0029 8.1e-5,0.0033 -8.2e-5,0.0069 -4.08e-4,0.01043 -8.1e-5,0.0015 -8.1e-5,0.0029 -4.08e-4,0.0044 -6.52e-4,0.0036 -0.0015,0.0075 -0.0026,0.01144 -4.07e-4,0.0016 -8.15e-4,0.0032 -0.0013,0.0048 -0.0012,0.0039 -0.0029,0.0079 -0.0046,0.01202 -8.97e-4,0.0021 -0.0016,0.0041 -0.0026,0.0062 -0.0018,0.0038 -0.0039,0.0077 -0.0061,0.0117 -0.0015,0.0027 -0.003,0.0054 -0.0047,0.0082 -0.0024,0.004 -0.005,0.0081 -0.0078,0.01223 -0.0021,0.0031 -0.0042,0.0062 -0.0065,0.0094 -0.0029,0.0041 -0.0061,0.0083 -0.0094,0.01261 -0.0027,0.0036 -0.0055,0.0072 -0.0085,0.01085 -0.0034,0.0042 -0.007,0.0084 -0.01068,0.01277 -0.0034,0.004 -0.007,0.0081 -0.01068,0.01218 -0.0045,0.005 -0.0093,0.01018 -0.0142,0.01543 -0.0021,0.0022 -0.0043,0.0045 -0.0065,0.0068 -0.01504,0.01565 -0.03215,0.03237 -0.05106,0.04995 -0.01247,0.01159 -0.02724,0.02434 -0.04146,0.03681 -0.01096,0.0096 -0.02086,0.01869 -0.03289,0.02883 -0.0168,0.01418 -0.03628,0.0297 -0.05522,0.04495 -0.0127,0.01023 -0.02406,0.01975 -0.03775,0.03048 -0.03352,0.02626 -0.06984,0.05396 -0.109471,0.0833 -0.04474,0.04944 -0.08474,0.09855 -0.120154,0.147291 -0.106279,0.146259 -0.171468,0.289148 -0.201218,0.42746 -0.005,0.02305 -0.0089,0.04594 -0.01197,0.06873 -2e-6,1.6e-5 3e-6,2.5e-5 0,5.5e-5 -0.01166,0.08821 -0.0086,0.174382 0.007,0.258305 4.89e-4,0.0028 7.34e-4,0.0056 0.0013,0.0084 4e-6,1.9e-5 -3e-6,2.7e-5 0,5.7e-5 0.0042,0.02162 0.0094,0.04311 0.01529,0.06442 0.01781,0.064 0.0431,0.126541 0.07517,0.187506 0.01069,0.02032 0.02212,0.04042 0.03429,0.06037 1.3e-5,2.1e-5 5.4e-5,2.5e-5 5.4e-5,5.5e-5 0.01216,0.01994 0.02506,0.03969 0.03864,0.05926 9e-6,1.5e-5 -1e-5,2.8e-5 0,5.7e-5 0.01359,0.01957 0.0279,0.03895 0.04287,0.05814 0.01499,0.01922 0.03065,0.03825 0.04696,0.05708 0.01631,0.01882 0.03322,0.03739 0.0508,0.0558 1.8e-5,2e-5 2.8e-5,2.7e-5 5.5e-5,5.6e-5 0.03516,0.03682 0.07279,0.07279 0.112732,0.107928 0.159788,0.140567 0.356228,0.267359 0.576141,0.377512 -0.01095,0.02308 -0.02373,0.04638 -0.0382,0.06989 -0.0072,0.01176 -0.01492,0.02357 -0.02297,0.03543 -0.0081,0.01187 -0.01645,0.02377 -0.02527,0.03575 -0.01762,0.02392 -0.03673,0.04801 -0.05713,0.07229 -0.02042,0.02429 -0.04211,0.04874 -0.06494,0.07335 -0.04564,0.0492 -0.09575,0.09903 -0.148819,0.149313 -0.05306,0.05028 -0.109075,0.101009 -0.166603,0.152078 -0.143811,0.127662 -0.296999,0.257335 -0.43628,0.386714 -0.208948,0.194095 -0.38668,0.387561 -0.455154,0.572677 -0.0046,0.01234 -0.0086,0.0246 -0.01222,0.03686 -0.0036,0.01228 -0.0066,0.0245 -0.0091,0.0367 -0.0051,0.02435 -0.008,0.04856 -0.0086,0.07255 -10e-7,1.9e-5 0,2.7e-5 0,5.6e-5 -6.53e-4,0.02401 0.0011,0.04781 0.0053,0.07144 0.0021,0.01181 0.0048,0.02356 0.0082,0.03527 0.0034,0.01173 0.0074,0.02338 0.01209,0.035 0.0094,0.02318 0.02143,0.04616 0.03634,0.06889 1.4e-5,2.1e-5 5.6e-5,2.5e-5 5.6e-5,5.5e-5 0.0075,0.01135 0.01559,0.02266 0.0245,0.03388 0.0089,0.01127 0.0186,0.02242 0.02905,0.03356 0.02086,0.02224 0.04482,0.04425 0.07198,0.06596 0.01357,0.01085 0.02791,0.02164 0.04312,0.03234 0.03045,0.02144 0.06423,0.04256 0.101536,0.06341 0.03729,0.02084 0.07813,0.04138 0.12265,0.0616 0.03738,0.01697 0.07796,0.03365 0.120667,0.05016 0.0082,0.0032 0.01576,0.0064 0.02412,0.0095 0.05212,0.01956 0.108113,0.03875 0.168204,0.05761 0.02908,0.0021 0.05614,0.006 0.08177,0.01106 0.0024,4.99e-4 0.005,8.32e-4 0.0074,0.0013 1.8e-5,4e-6 2.6e-5,-6e-6 5.3e-5,0 0.0032,6.65e-4 0.0061,0.0016 0.0093,0.0023 0.02407,0.0055 0.04691,0.0122 0.06801,0.02027 0.01194,0.0046 0.02338,0.0095 0.03442,0.01484 0.01104,0.0053 0.02163,0.01102 0.0318,0.01708 2.4e-5,1.5e-5 2.9e-5,2.5e-5 5.6e-5,5.5e-5 0.02033,0.01211 0.03897,0.02563 0.05605,0.04043 0.0085,0.0074 0.01673,0.01508 0.0245,0.02309 1.1e-5,10e-6 -9e-6,5.5e-5 0,5.5e-5 0.0078,0.008 0.01521,0.0163 0.02227,0.02489 1e-5,1.2e-5 -1.1e-5,5.6e-5 0,5.6e-5 0.007,0.0086 0.01378,0.01745 0.02015,0.0266 0.0064,0.0092 0.01237,0.01861 0.01811,0.0283 0.01718,0.02901 0.03153,0.06024 0.04351,0.09325 0.01026,0.02828 0.01836,0.05821 0.02546,0.08878 0.0012,0.0051 0.0028,0.0099 0.0039,0.01505 0.0052,0.02406 0.0095,0.04866 0.01312,0.07373 0.0036,0.02505 0.0066,0.05051 0.009,0.07628 3e-6,1.9e-5 -2e-6,2.6e-5 0,5.6e-5 0.0024,0.02575 0.0043,0.05179 0.0058,0.07798 5.4e-5,9.15e-4 5.4e-5,0.0018 8.1e-5,0.0027 0.0028,0.05156 0.0042,0.103653 0.0051,0.155271 8.97e-4,0.0525 0.0013,0.10446 0.0025,0.154792 0.0017,0.07552 0.0051,0.147303 0.01388,0.211602 0.0029,0.02143 0.0065,0.04198 0.01081,0.0616 0.0022,0.0098 0.0045,0.0194 0.007,0.02872 0.0025,0.0093 0.0053,0.01831 0.0083,0.02708 0.003,0.0088 0.0062,0.01728 0.0097,0.02548 0.0034,0.0082 0.0071,0.01604 0.01107,0.02362 0.0013,0.0025 0.0027,0.0047 0.0041,0.0071 0.0069,0.01235 0.01436,0.02399 0.02284,0.03447 0.0051,0.0063 0.01045,0.01212 0.01612,0.01766 0.01703,0.01662 0.03683,0.02993 0.06001,0.03947 0.02317,0.0095 0.04968,0.0153 0.07997,0.01681 0.0202,10e-4 0.04205,8.3e-5 0.06577,-0.0028 0.01186,-0.0015 0.02419,-0.0034 0.03698,-0.0059 0.02559,-0.005 0.05311,-0.01207 0.08266,-0.02138 0.01478,-0.0047 0.03005,-0.0099 0.04587,-0.01569 0.06328,-0.02319 0.135028,-0.05561 0.216445,-0.09841 0.02035,-0.0107 0.04131,-0.02203 0.06289,-0.03404 0.04208,-0.03526 0.08031,-0.06653 0.116123,-0.09532 0.01388,-0.01115 0.02606,-0.02053 0.03903,-0.03074 0.02137,-0.01684 0.04219,-0.03313 0.06116,-0.0475 0.01163,-0.0088 0.02245,-0.01678 0.03321,-0.02468 0.01748,-0.01285 0.03391,-0.02467 0.04914,-0.03521 0.01302,-0.009 0.02625,-0.01826 0.03768,-0.02564 0.0023,-0.0015 0.0047,-0.0031 0.007,-0.0045 0.01619,-0.01028 0.03072,-0.01886 0.0437,-0.02585 0.0053,-0.0028 0.01041,-0.0055 0.01516,-0.0078 0.0021,-0.001 0.0042,-0.0022 0.0062,-0.0031 0.0064,-0.0029 0.01231,-0.0053 0.01772,-0.0073 7.34e-4,-1.66e-4 0.0015,-6.65e-4 0.0021,-8.32e-4 0.0061,-0.0021 0.01157,-0.0036 0.01644,-0.0044 7.34e-4,-8.3e-5 0.0013,-5.5e-5 0.002,-8.3e-5 0.0039,-4.99e-4 0.0073,-6.65e-4 0.01037,-4.16e-4 0.001,8.4e-5 0.0018,4.16e-4 0.0027,4.99e-4 0.0025,4.99e-4 0.0047,0.0013 0.0066,0.0025 6.52e-4,4.15e-4 0.0011,8.31e-4 0.0017,0.0012 0.0018,0.0015 0.0033,0.0034 0.0044,0.0057 2.45e-4,4.16e-4 4.08e-4,8.32e-4 6.53e-4,0.0012 0.0011,0.0029 0.0018,0.0063 0.0018,0.01032 0,0.0042 -4.07e-4,0.0089 -0.0015,0.0142 1.314304,-2.149121 2.774657,-4.34837 2.864578,-6.810523 z"
       style="fill:#765d40;fill-opacity:1;stroke-width:0.45385963" />
    <path
       sodipodi:nodetypes="ccccsc"
       inkscape:connector-curvature="0"
       id="path3340"
       d="m 14.072867,28.227317 c -0.865831,0.659954 -2.634245,0.660241 -1.897459,2.055382 0.395877,0.623874 0.700338,1.12885 1.187343,1.612712 0.03535,-0.02441 0.06489,-0.0481 0.0842,-0.06655 0.379744,-0.362671 0.860392,-1.654464 0.859764,-2.826414 -1.63e-4,-0.455717 -0.113953,-0.705035 -0.233847,-0.775131 z"
       style="fill:#765d40;fill-opacity:1;stroke-width:0.45385963" />
    <path
       sodipodi:nodetypes="cccscccsscccccccccccccccccccccccccccccccccccccccccccc"
       inkscape:connector-curvature="0"
       style="fill:#836c50;fill-opacity:1;stroke-width:0.45385963"
       d="m 35.689453,8 c -0.796347,3.051399 -5.091563,5.202514 -7.994141,6.583984 -0.289168,-1.892971 -0.793818,-3.782152 -1.595703,-5.5664059 -0.932108,1.5695369 -1.54763,3.3027629 -2.654297,4.7656249 -0.818231,1.081596 -1.731154,2.11455 -2.876953,2.929688 -0.08084,0.02809 -0.166281,0.05091 -0.246093,0.08008 l 0,0.002 c -0.591616,0.216219 -1.154328,0.460121 -1.664063,0.75 -2.30704,1.311987 -3.984542,3.101092 -5.291015,5.179687 -1.757605,2.796339 -0.541072,6.39151 -5.3496099,9.066407 -0.079655,0.0943 -0.1776301,0.180257 -0.2890625,0.261718 0.00539,-0.004 0.010339,-0.0078 0.015625,-0.01172 0.1616745,0.0924 0.3160948,0.422762 0.3164063,1.023437 7.7e-4,1.54473 -0.6480755,3.246578 -1.1601563,3.724609 -0.025958,0.02423 -0.065841,0.05584 -0.1132812,0.08789 1.7158637,1.666369 4.1993416,2.801051 6.8867186,3.03125 0.214939,0.02311 0.458792,0.03357 0.695313,0.04687 -0.01856,6.03e-4 -0.04017,0.0034 -0.05859,0.0039 0.05622,0.0033 0.114862,0.0011 0.171875,0.0039 0.579432,0.02896 1.125072,0.03826 1.679687,0.03516 0.617772,-0.0025 1.166909,-0.01499 1.509766,-0.01563 6.715704,-0.01667 13.114449,-3.124078 16.958984,-7.533203 0.188068,-0.227515 0.714945,-0.852687 1.076172,-1.335938 0.07095,-0.09423 0.124044,-0.163467 0.177735,-0.242187 0.0345,-0.0507 0.07314,-0.105194 0.09766,-0.146485 0.01608,-0.02697 0.02401,-0.04612 0.03516,-0.06836 0.02314,-0.04605 0.03103,-0.07779 0.0293,-0.09961 -9.24e-4,-0.01 0.0012,-0.02146 -0.0059,-0.02539 -0.004,-0.0025 0.0025,-0.01538 -0.0039,-0.01563 -0.01767,-6.53e-4 -0.07017,0.03391 -0.107421,0.05273 -0.0255,0.01287 -0.0386,0.01412 -0.07422,0.03711 -0.101353,0.06558 -0.237383,0.165106 -0.431641,0.324219 -0.226964,0.123504 -0.400506,0.191 -0.537109,0.21875 -0.05435,0.01096 -0.09999,0.01349 -0.142578,0.01172 -0.0085,-3.32e-4 -0.01931,0.0028 -0.02734,0.002 l -0.002,0 c -0.04049,-0.0043 -0.07306,-0.01784 -0.103516,-0.0332 -0.480994,-0.243035 0.202787,-1.78902 -0.855469,-1.865234 -2.592123,-0.795252 0.441729,-2.073169 0.914063,-3.046875 -1.186204,-0.580764 -1.865851,-1.511715 -0.900391,-2.554688 1.773075,-1.28322 -1.095812,-0.274014 -1.521484,-0.722656 2.265179,-2.523905 4.414466,-5.278895 4.892578,-8.447265 C 37.440867,12.292098 37.063135,9.9157772 35.689453,8 Z M 17.259766,23.316406 c 1.370143,-0.0017 1.472135,2.121299 1.623046,3.074219 0.228033,1.425668 0.493425,3.026745 -1.61914,3.560547 -0.143539,0.06105 -0.697965,0.415764 -0.535156,-0.02148 0.600557,-1.041112 -0.440603,-3.670126 -2.046875,-2.363282 -0.160038,-1.483681 0.372549,-3.178861 1.910156,-4.109375 0.251306,-0.09659 0.472237,-0.140383 0.667969,-0.140629 z m -9.5664066,8.761719 c -0.0093,0.0066 -0.01785,0.01311 -0.027344,0.01953 0.00944,-0.0065 0.017985,-0.01298 0.027344,-0.01953 z"
       transform="matrix(0.74157053,0,0,0.75867641,8.2921475,3.9305885)"
       id="path3342-8" />
    <path
       transform="matrix(0.88045729,0.47412548,-0.30337061,0.95287264,0,0)"
       d="m 27.187027,13.291659 a 0.34380603,0.43676943 0 0 1 -0.440472,0.260952 0.34380603,0.43676943 0 0 1 -0.205777,-0.559355 0.34380603,0.43676943 0 0 1 0.440129,-0.261884 0.34380603,0.43676943 0 0 1 0.20651,0.558918"
       sodipodi:open="true"
       sodipodi:end="0.34612148"
       sodipodi:start="0.34945506"
       sodipodi:ry="0.43676943"
       sodipodi:rx="0.34380603"
       sodipodi:cy="13.142116"
       sodipodi:cx="26.864"
       sodipodi:type="arc"
       id="path4237"
       style="opacity:1;fill:#765d40;fill-opacity:1;fill-rule:evenodd;stroke:none;stroke-width:2.3958447;stroke-linecap:butt;stroke-linejoin:round;stroke-miterlimit:4;stroke-dasharray:none;stroke-dashoffset:0;stroke-opacity:1" />
  </g>
  <path
     sodipodi:nodetypes="cccsccccssssscccccccscccccscccccccccccccccccccccccscsscssccccccscccccsccscccscsssscccccsccccccccssccccccscccccccccccsccsccccssscsccccccscccsscccccccccsccccccccccccccc"
     inkscape:connector-curvature="0"
     id="path4227"
     d="m 42.746247,9.4096917 c -2.164445,0.44637 0.319788,3.1272793 -0.198246,4.5905943 1.878689,-0.61933 2.252205,-3.973722 0.198246,-4.5905943 z m 0.898083,5.6691533 c -0.10447,0.0016 -0.219425,0.04694 -0.290937,0.108496 -1.350785,1.162913 -0.420508,3.63421 -1.322332,5.083033 0.637401,0.04314 1.27767,-0.206654 1.840219,-0.472652 1.82952,-0.711827 1.158,-3.650776 -0.06188,-4.668818 -0.04349,-0.03629 -0.102391,-0.05106 -0.165063,-0.05007 z m -2.793422,0.112538 c -0.6507,-0.0056 -0.42916,2.020166 0.285788,2.053958 0.604815,0.02859 0.670523,-1.175968 0.416527,-1.706464 -0.11035,-0.230474 -0.536452,-0.34606 -0.702315,-0.347494 z m 0.743316,5.642558 c -2.122382,0.745973 -4.356196,1.579932 -6.636072,1.831616 3.65e-4,-2.3e-5 9.73e-4,-4.4e-5 0.0013,-9.3e-5 0.02392,-0.0013 0.04645,-0.002 0.06903,-0.0024 0.01017,-1.44e-4 0.02082,-7.2e-4 0.0307,-8.63e-4 0.02118,-1.45e-4 0.04092,1.43e-4 0.06065,7.19e-4 0.0097,1.44e-4 0.01964,1.44e-4 0.0289,7.21e-4 0.01685,7.19e-4 0.03241,0.0022 0.04796,0.0037 0.01133,0.0012 0.02298,0.0018 0.03366,0.0034 0.02078,0.0028 0.04064,0.006 0.05846,0.01037 1.23e-4,4.3e-5 3.66e-4,4.4e-5 6.08e-4,9.7e-5 7.29e-4,1.43e-4 0.0013,2.87e-4 0.0021,4.3e-4 0.0091,0.0022 0.01774,0.0047 0.02593,0.0075 0.0013,2.89e-4 0.0025,8.65e-4 0.0039,0.0014 0.0078,0.0028 0.01559,0.0056 0.0227,0.0088 1.21e-4,4.4e-5 1.21e-4,1.45e-4 3.65e-4,1.45e-4 3.63e-4,1.44e-4 9.71e-4,2.87e-4 0.0012,7.18e-4 0.0076,0.0034 0.01476,0.0072 0.02127,0.01129 0.03328,0.02066 0.0527,0.04888 0.05598,0.08622 1.23e-4,0.0017 6.08e-4,0.0033 6.08e-4,0.005 1.22e-4,0.0056 -1.22e-4,0.01194 -6.08e-4,0.01805 -1.2e-4,0.0026 -1.2e-4,0.005 -6.08e-4,0.0076 -9.71e-4,0.0062 -0.0022,0.013 -0.0039,0.01979 -6.07e-4,0.0028 -0.0012,0.0055 -0.002,0.0083 -0.0018,0.0067 -0.0043,0.01366 -0.0069,0.02079 -0.0013,0.0037 -0.0024,0.0071 -0.0039,0.01076 -0.0027,0.0066 -0.0059,0.01332 -0.0091,0.02024 -0.0022,0.0047 -0.0044,0.0093 -0.007,0.01419 -0.0035,0.007 -0.0074,0.01402 -0.01163,0.02116 -0.0031,0.0054 -0.0063,0.01076 -0.0097,0.01626 -0.0043,0.0071 -0.0091,0.01436 -0.01401,0.02182 -0.004,0.0062 -0.0082,0.01247 -0.01267,0.01877 -0.0051,0.0072 -0.01039,0.01453 -0.01592,0.02209 -0.0051,0.007 -0.01039,0.01402 -0.01591,0.02107 -0.0067,0.0087 -0.01386,0.01761 -0.02117,0.0267 -0.0031,0.0038 -0.0064,0.0077 -0.0097,0.01181 -0.02242,0.02708 -0.04791,0.05601 -0.0761,0.08642 -0.01859,0.02006 -0.0406,0.04211 -0.06179,0.06368 -0.01634,0.0166 -0.03109,0.03233 -0.04902,0.04988 -0.02503,0.02453 -0.05407,0.05139 -0.0823,0.07777 -0.01893,0.01769 -0.03585,0.03417 -0.05627,0.05274 -0.04996,0.04543 -0.104094,0.09335 -0.163159,0.144113 -0.06668,0.08554 -0.1263,0.170497 -0.179083,0.254822 -0.158402,0.253037 -0.255561,0.500244 -0.299902,0.739532 -0.0074,0.03988 -0.01326,0.07948 -0.01784,0.118904 -3e-6,2.8e-5 5e-6,4.4e-5 0,9.5e-5 -0.01737,0.152608 -0.01282,0.301691 0.01039,0.446883 7.28e-4,0.0049 0.0011,0.0097 0.002,0.01453 6e-6,3.3e-5 -4e-6,4.7e-5 0,9.9e-5 0.0063,0.03741 0.01402,0.07458 0.02279,0.111449 0.02655,0.110727 0.06424,0.218923 0.112036,0.324396 0.01594,0.03515 0.03297,0.06993 0.05111,0.10444 2e-5,3.6e-5 8.1e-5,4.4e-5 8.1e-5,9.5e-5 0.01813,0.03449 0.03735,0.06867 0.05759,0.102524 1.3e-5,2.6e-5 -1.5e-5,4.8e-5 0,9.8e-5 0.02026,0.03385 0.04158,0.06739 0.0639,0.100581 0.02234,0.03325 0.04568,0.06618 0.06999,0.09876 0.0243,0.03256 0.04951,0.06468 0.07571,0.09654 2.7e-5,3.4e-5 4.1e-5,4.8e-5 8.2e-5,9.7e-5 0.0524,0.0637 0.108493,0.125927 0.16802,0.186722 0.238153,0.243189 0.530934,0.462547 0.858701,0.653118 -0.01633,0.03993 -0.03537,0.08024 -0.05693,0.120913 -0.01072,0.02034 -0.02224,0.04078 -0.03423,0.0613 -0.01207,0.02053 -0.02452,0.04112 -0.03767,0.06185 -0.02626,0.04139 -0.05474,0.08306 -0.08515,0.12506 -0.03044,0.04203 -0.06276,0.08432 -0.09679,0.126898 -0.06803,0.08512 -0.142709,0.171328 -0.221805,0.25832 -0.07908,0.08698 -0.162569,0.174753 -0.248311,0.263105 -0.214341,0.220863 -0.442658,0.445205 -0.650247,0.669038 -0.311424,0.335796 -0.576322,0.670503 -0.678378,0.990765 -0.0069,0.02136 -0.01282,0.04255 -0.01821,0.06378 -0.0054,0.02125 -0.0098,0.04238 -0.01356,0.06349 -0.0076,0.04213 -0.01193,0.08402 -0.01282,0.12552 -1e-6,3.2e-5 0,4.7e-5 0,9.7e-5 -9.74e-4,0.04154 0.0017,0.08272 0.0078,0.12359 0.0031,0.02044 0.0072,0.04076 0.01223,0.06102 0.0051,0.02029 0.01105,0.04045 0.01801,0.06055 0.01402,0.0401 0.03194,0.07986 0.05416,0.11918 2.1e-5,3.7e-5 8.3e-5,4.3e-5 8.3e-5,9.4e-5 0.01117,0.01964 0.02323,0.03921 0.03652,0.05862 0.01326,0.0195 0.02772,0.03879 0.04329,0.05807 0.03109,0.03847 0.0668,0.07655 0.107277,0.114113 0.02023,0.01877 0.0416,0.03743 0.06427,0.05595 0.04538,0.03709 0.09573,0.07363 0.151333,0.109704 0.05558,0.03606 0.116448,0.07159 0.182803,0.106566 0.05572,0.02936 0.116194,0.05821 0.179846,0.08677 0.01222,0.0055 0.02349,0.01103 0.03594,0.01643 0.07768,0.03384 0.161135,0.06705 0.250698,0.09966 0.04334,0.0037 0.08367,0.01037 0.121873,0.01914 0.0035,8.62e-4 0.0074,0.0014 0.01105,0.0022 2.7e-5,7e-6 3.8e-5,-10e-6 7.9e-5,0 0.0048,0.0012 0.0091,0.0028 0.01386,0.0039 0.03588,0.0094 0.06992,0.02111 0.101364,0.03507 0.01779,0.008 0.03485,0.01643 0.05129,0.02567 0.01646,0.0092 0.03224,0.01906 0.04739,0.02954 3.5e-5,2.7e-5 4.3e-5,4.4e-5 8.3e-5,9.6e-5 0.0303,0.02095 0.05808,0.04434 0.08354,0.06995 0.01267,0.01286 0.02493,0.02609 0.03652,0.03995 1.7e-5,1.7e-5 -1.3e-5,9.4e-5 0,9.4e-5 0.01163,0.01385 0.02267,0.02819 0.03319,0.04306 1.5e-5,2.1e-5 -1.6e-5,9.7e-5 0,9.7e-5 0.01039,0.01488 0.02054,0.03019 0.03003,0.04602 0.0095,0.01592 0.01844,0.0322 0.02699,0.04896 0.02561,0.05019 0.047,0.104217 0.06485,0.161327 0.01528,0.04893 0.02737,0.100713 0.03794,0.153595 0.0018,0.0088 0.0042,0.01713 0.0059,0.02604 0.0077,0.04162 0.01416,0.08419 0.01955,0.127555 0.0054,0.04334 0.0098,0.08739 0.01342,0.131968 5e-6,3.3e-5 -3e-6,4.5e-5 0,9.7e-5 0.0035,0.04455 0.0064,0.08959 0.0086,0.13491 8.1e-5,0.0016 8.1e-5,0.0031 1.21e-4,0.0047 0.0042,0.0892 0.0063,0.179327 0.0076,0.268628 0.0013,0.09083 0.002,0.180723 0.0038,0.267799 0.0025,0.130652 0.0076,0.254843 0.02069,0.366085 0.0043,0.03708 0.0097,0.07262 0.01611,0.106566 0.0033,0.01696 0.0067,0.03356 0.01039,0.04969 0.0038,0.01609 0.0078,0.03167 0.01237,0.04684 0.0044,0.01523 0.0093,0.0299 0.01446,0.04409 0.0051,0.01419 0.01061,0.02775 0.0165,0.04086 0.002,0.0043 0.004,0.0081 0.0061,0.01234 0.01028,0.02137 0.0214,0.0415 0.03404,0.05964 0.0076,0.01089 0.01557,0.02096 0.02403,0.03056 0.02538,0.02876 0.05489,0.05178 0.08944,0.06829 0.03453,0.01643 0.07404,0.02647 0.119191,0.02909 0.03011,0.0017 0.06267,1.43e-4 0.09803,-0.0049 0.01767,-0.0026 0.03605,-0.0059 0.05512,-0.01024 0.03814,-0.0087 0.07916,-0.02088 0.123199,-0.03699 0.02203,-0.0081 0.04479,-0.01713 0.06837,-0.02714 0.09431,-0.04012 0.201251,-0.09621 0.322597,-0.170255 0.03033,-0.01851 0.06158,-0.03812 0.09374,-0.05889 0.06271,-0.06101 0.119697,-0.115098 0.173073,-0.164909 0.02069,-0.01929 0.03884,-0.03552 0.05817,-0.05318 0.03185,-0.02914 0.06288,-0.05732 0.09115,-0.08218 0.01733,-0.01523 0.03346,-0.02903 0.04949,-0.0427 0.02605,-0.02223 0.05054,-0.04268 0.07323,-0.06092 0.01941,-0.01557 0.03913,-0.03159 0.05616,-0.04436 0.0034,-0.0026 0.007,-0.0054 0.01039,-0.0077 0.02413,-0.01778 0.04579,-0.03263 0.06513,-0.04472 0.0078,-0.0049 0.01552,-0.0095 0.02259,-0.01349 0.0031,-0.0017 0.0063,-0.0038 0.0093,-0.0054 0.0095,-0.005 0.01835,-0.0092 0.02642,-0.0126 0.0011,-2.87e-4 0.0022,-0.0011 0.0031,-0.0014 0.0091,-0.0037 0.01724,-0.0062 0.0245,-0.0076 0.0011,-1.43e-4 0.002,-9.5e-5 0.003,-1.43e-4 0.0059,-8.64e-4 0.01083,-0.0012 0.01545,-7.21e-4 0.0014,1.46e-4 0.0027,7.21e-4 0.004,8.64e-4 0.0038,8.63e-4 0.007,0.0022 0.0098,0.0043 9.72e-4,7.18e-4 0.0017,0.0014 0.0025,0.0021 0.0027,0.0026 0.0049,0.0059 0.0065,0.0098 3.66e-4,7.2e-4 6.09e-4,0.0014 9.74e-4,0.0021 0.0017,0.005 0.0027,0.01089 0.0027,0.01785 0,0.0072 -6.07e-4,0.0154 -0.0022,0.02457 1.958886,-3.718107 4.135447,-7.522939 4.269469,-11.782611 z"
     style="fill:#7394ee;fill-opacity:1;stroke-width:0.45385963" />
  <path
     sodipodi:nodetypes="ccccsc"
     inkscape:connector-curvature="0"
     id="path4229"
     d="m 6.0894758,34.534347 c -1.2904653,1.14176 -3.9261725,1.142257 -2.8280404,3.555935 0.5900292,1.079339 1.0438087,1.952977 1.7696583,2.790087 0.052687,-0.04223 0.096714,-0.08322 0.1254946,-0.115137 0.5659839,-0.627441 1.2823589,-2.86232 1.2814228,-4.889863 -2.429e-4,-0.788418 -0.1698395,-1.219752 -0.3485338,-1.341023 z"
     style="fill:#292929;fill-opacity:1;stroke-width:0.45385963" />
  <path
     inkscape:connector-curvature="0"
     style="opacity:1;fill:#292929;fill-opacity:1;fill-rule:nonzero;stroke:none;stroke-opacity:1"
     d="m 14.624692,28.215423 c -0.281118,0.0062 -0.591051,0.144952 -0.92393,0.466571 -9.2e-4,-0.01011 -0.0013,-0.02062 -0.0022,-0.03077 a 1.8511351,3.5818626 0 0 0 1.217516,3.355732 1.8511351,3.5818626 0 0 0 1.213199,0.03589 c -0.14908,0.05333 -0.255639,0.02626 -0.166221,-0.258921 0.539316,-1.110296 -0.120227,-3.595271 -1.338405,-3.568511 z"
     id="path4219" />
  <path
     transform="matrix(0.8479693,0.53004534,-0.26450899,0.96438322,0,0)"
     d="m 23.139471,18.298392 a 0.53205293,0.74661809 0 0 1 -0.681646,0.446074 0.53205293,0.74661809 0 0 1 -0.318447,-0.956167 0.53205293,0.74661809 0 0 1 0.681115,-0.447667 0.53205293,0.74661809 0 0 1 0.319583,0.95542"
     sodipodi:open="true"
     sodipodi:end="0.34612148"
     sodipodi:start="0.34945506"
     sodipodi:ry="0.74661809"
     sodipodi:rx="0.53205293"
     sodipodi:cy="18.042761"
     sodipodi:cx="22.639576"
     sodipodi:type="arc"
     id="path4235"
     style="opacity:1;fill:#ffffff;fill-opacity:1;fill-rule:evenodd;stroke:none;stroke-width:2.3958447;stroke-linecap:butt;stroke-linejoin:round;stroke-miterlimit:4;stroke-dasharray:none;stroke-dashoffset:0;stroke-opacity:1" />
  <path
     style="fill:#ffffff;fill-opacity:1;stroke-width:0.45385963;opacity:0.1"
     d="M 36.91408,2.8886212 C 36.033907,6.8937517 31.286255,9.717944 28.078142,11.5312 27.758536,9.0465703 27.200764,6.566491 26.31447,4.2245587 25.284249,6.284663 24.604035,8.5583774 23.380877,10.478465 c -0.904361,1.419656 -1.913278,2.77579 -3.179688,3.845704 -0.08935,0.03687 -0.183271,0.06718 -0.271484,0.105469 l 0,0.002 c -0.653891,0.283799 -1.276453,0.603892 -1.839844,0.984375 -2.549886,1.722055 -4.40366,4.070557 -5.847656,6.798828 -1.942616,3.67035 -0.597414,8.389443 -5.9121097,11.90039 -0.08804,0.123774 -0.197151,0.236832 -0.320313,0.34375 0.006,-0.0053 0.011738,-0.01049 0.017578,-0.01562 0.0041,0.0028 0.0077,0.01059 0.011719,0.01367 -1.210454,1.026409 -3.500589,1.126068 -2.957031,3.042969 0.047725,-0.124412 0.114583,-0.23665 0.197265,-0.339844 0.049852,-0.06222 0.115386,-0.115855 0.175782,-0.171875 0.069943,-0.06521 0.142872,-0.128958 0.224609,-0.1875 0.069542,-0.0495 0.138474,-0.100617 0.214844,-0.146484 0.085541,-0.05172 0.17748,-0.09983 0.269531,-0.148437 0.125167,-0.06561 0.250426,-0.1321 0.382812,-0.195313 0.179574,-0.08642 0.359961,-0.175306 0.541016,-0.265625 0.089955,-0.04461 0.177889,-0.0913 0.265625,-0.138672 0.08321,-0.04516 0.166323,-0.09001 0.246094,-0.138672 0.155824,-0.09471 0.303087,-0.198653 0.4375,-0.3125 -0.0033,-0.0036 -0.00628,-0.0093 -0.00977,-0.01172 -0.0058,0.0051 -0.011578,0.01033 -0.017578,0.01562 0.123162,-0.106917 0.232273,-0.219977 0.320313,-0.34375 5.3146957,-3.510881 3.9694937,-8.230109 5.9121097,-11.90039 1.443996,-2.72822 3.29777,-5.076806 5.847656,-6.798828 0.563391,-0.380476 1.185953,-0.700582 1.839844,-0.984375 l 0,-0.002 c 0.08766,-0.03805 0.180683,-0.06891 0.269531,-0.105469 l 0.002,0 c 0.006,-0.0051 0.0116,-0.01056 0.01758,-0.01563 1.257599,-1.067181 2.262247,-2.415704 3.16211,-3.828125 l 0,-0.002 c 0.152594,-0.239535 0.298119,-0.484931 0.435547,-0.734376 l 0,-0.002 C 23.953862,10.492588 24.085297,10.239417 24.211,9.98227 l 0,-0.002 c 0.251874,-0.5153645 0.483121,-1.0431918 0.708984,-1.5761728 0.451607,-1.066154 0.879421,-2.1496554 1.394531,-3.1796875 0.224192,0.5923898 0.427716,1.192862 0.611329,1.8007813 5.97e-4,0.00197 0.0014,0.00389 0.002,0.00586 0.178607,0.5917975 0.337568,1.1905215 0.480468,1.7929688 0.145666,0.6112456 0.273232,1.2276002 0.384766,1.8457032 0.111744,0.619269 0.205155,1.239307 0.285156,1.861328 3.208017,-1.813176 7.955765,-4.6375233 8.835938,-8.6425781 1.105175,1.8303492 1.621228,3.980239 1.695312,6.1289061 0.07121,-2.4726211 -0.418546,-5.0143345 -1.695312,-7.1289061 z m 5.826171,6.4101562 c -0.926641,0.1910998 -0.985905,0.7998686 -0.808593,1.5390626 0.02458,-0.0535 0.05688,-0.10296 0.09375,-0.15039 0.01378,-0.01808 0.02929,-0.03557 0.04492,-0.05274 0.0343,-0.03679 0.0716,-0.07128 0.115235,-0.103515 0.03569,-0.02707 0.07847,-0.05051 0.121094,-0.07422 0.03599,-0.01956 0.06834,-0.04148 0.109375,-0.05859 0.0941,-0.03993 0.200156,-0.07402 0.324218,-0.09961 0.171804,0.0516 0.320609,0.128143 0.458985,0.214844 0.03177,0.01991 0.06175,0.04095 0.0918,0.0625 0.129416,0.09281 0.24964,0.194978 0.347656,0.314453 0.09971,0.121538 0.177791,0.257726 0.246094,0.400391 0.01572,0.03281 0.02887,0.06589 0.04297,0.09961 0.0583,0.139455 0.107602,0.284078 0.138672,0.435547 7.15e-4,0.0035 0.0032,0.0063 0.0039,0.0098 0.164185,-1.069964 -0.218262,-2.203195 -1.330078,-2.5371106 z m 0.898438,5.6679696 c -0.104469,0.0016 -0.219503,0.04782 -0.291016,0.109375 -1.350784,1.162914 -0.420441,3.633208 -1.322265,5.082031 0.116257,0.0079 0.231717,-0.0037 0.347656,-0.01367 0.06131,-0.338333 0.08616,-0.697619 0.105469,-1.058593 0.0073,-0.144635 0.02249,-0.284975 0.0293,-0.429688 0.0025,-0.04926 0.007,-0.09738 0.0098,-0.146484 0.02476,-0.442613 0.06129,-0.876746 0.164063,-1.273438 0.01301,-0.05121 0.02962,-0.100506 0.04492,-0.15039 0.04329,-0.138849 0.09971,-0.269792 0.164063,-0.396485 0.03184,-0.06328 0.05768,-0.129732 0.0957,-0.189453 0.0171,-0.02668 0.03627,-0.05221 0.05469,-0.07813 0.08745,-0.123729 0.185435,-0.241358 0.30664,-0.345703 0.07151,-0.06155 0.186547,-0.107775 0.291016,-0.109375 0.06267,-9.8e-4 0.120571,0.01448 0.164062,0.05078 0.14226,0.11872 0.275353,0.263305 0.398438,0.427735 8.85e-4,0.0012 0.0011,0.0027 0.002,0.0039 0.120332,0.159154 0.226488,0.339452 0.324219,0.529297 0.0022,0.0043 0.0056,0.0074 0.0078,0.01172 0,0 0,0.002 0,0.002 0.201016,0.394335 0.339734,0.835263 0.40625,1.28125 0.197274,-1.142811 -0.349985,-2.597669 -1.138672,-3.25586 -0.04349,-0.03629 -0.10139,-0.05177 -0.164062,-0.05078 z m -2.792969,0.113281 c -0.383945,-0.0033 -0.457907,0.698342 -0.3125,1.283203 0.0308,-0.08388 0.06855,-0.155098 0.121094,-0.203125 0.05179,-0.05097 0.114798,-0.08074 0.191406,-0.08008 0.08293,7.17e-4 0.230042,0.03001 0.371094,0.08789 0.07104,0.02915 0.138944,0.06569 0.197265,0.109375 0.05748,0.04306 0.105426,0.09319 0.132813,0.15039 0.03237,0.06761 0.04292,0.166405 0.06445,0.251954 0.119137,-0.390982 0.08592,-0.937881 -0.06445,-1.251954 -0.11035,-0.230469 -0.535308,-0.346222 -0.701172,-0.347656 z m 0.742188,5.642578 c -2.585517,0.841784 -5.06198,1.760771 -7.744141,1.78125 -0.243153,0.333373 -0.487076,0.666924 -0.734375,0.994141 2.937762,0.165412 5.599754,-0.835687 8.386719,-1.746094 0.03693,-0.341859 0.08086,-0.681583 0.0918,-1.029297 z M 5.9707193,34.492138 c -0.01028,0.0087 -0.018796,0.01696 -0.029296,0.02539 0.01043,-0.0085 0.018948,-0.01679 0.029296,-0.02539 z"
     id="path4218"
     inkscape:connector-curvature="0" />
  <path
     sodipodi:nodetypes="ccccccc"
     inkscape:connector-curvature="0"
     id="path4154"
     d="m 13,44 c 0.854334,-0.102835 1.233476,-0.138509 2.247733,-1.125954 1.113423,-1.212831 2.087722,-2.631669 3.128566,-3.951969 0.05856,-0.244023 -0.253643,-0.841625 -0.35093,-0.44511 -0.02526,0.249461 -0.121366,0.31894 -0.352369,0.674563 -1.068149,1.319236 -2.152347,2.945127 -3.204447,3.957705 C 14.330688,43.288546 13.423397,43.859054 13,44 Z"
     style="fill:#292929;fill-opacity:1;fill-rule:evenodd;stroke:none;stroke-width:0.07866335;stroke-linecap:butt;stroke-linejoin:round;stroke-miterlimit:4;stroke-dasharray:none;stroke-opacity:1" />
</svg>
