<?xml version="1.0" encoding="UTF-8" standalone="no"?>
<!-- Created with Inkscape (http://www.inkscape.org/) -->

<svg
   xmlns:dc="http://purl.org/dc/elements/1.1/"
   xmlns:cc="http://creativecommons.org/ns#"
   xmlns:rdf="http://www.w3.org/1999/02/22-rdf-syntax-ns#"
   xmlns:svg="http://www.w3.org/2000/svg"
   xmlns="http://www.w3.org/2000/svg"
   xmlns:xlink="http://www.w3.org/1999/xlink"
   xmlns:sodipodi="http://sodipodi.sourceforge.net/DTD/sodipodi-0.dtd"
   xmlns:inkscape="http://www.inkscape.org/namespaces/inkscape"
   id="svg2817"
   height="48"
   width="48"
   version="1.0"
   inkscape:version="0.91 r"
   sodipodi:docname="nootka.svg">
  <metadata
     id="metadata57">
    <rdf:RDF>
      <cc:Work
         rdf:about="">
        <dc:format>image/svg+xml</dc:format>
        <dc:type
           rdf:resource="http://purl.org/dc/dcmitype/StillImage" />
        <dc:title />
      </cc:Work>
    </rdf:RDF>
  </metadata>
  <sodipodi:namedview
     pagecolor="#ffffff"
     bordercolor="#666666"
     borderopacity="1"
     objecttolerance="10"
     gridtolerance="10"
     guidetolerance="10"
     inkscape:pageopacity="0"
     inkscape:pageshadow="2"
     inkscape:window-width="1600"
     inkscape:window-height="840"
     id="namedview55"
     showgrid="false"
     inkscape:zoom="11.42"
     inkscape:cx="16.179867"
     inkscape:cy="24.778257"
     inkscape:window-x="-4"
     inkscape:window-y="34"
     inkscape:window-maximized="1"
     inkscape:current-layer="svg2817" />
  <defs
     id="defs2819">
    <linearGradient
       inkscape:collect="always"
       id="linearGradient4185">
      <stop
         style="stop-color:#000000;stop-opacity:1;"
         offset="0"
         id="stop4187" />
      <stop
         style="stop-color:#000000;stop-opacity:0;"
         offset="1"
         id="stop4189" />
    </linearGradient>
    <linearGradient
       id="linearGradient2815"
       y2="17.5"
       spreadMethod="reflect"
       gradientUnits="userSpaceOnUse"
       x2="3.0052"
       y1="17.5"
       x1="44.995">
      <stop
         id="stop3277"
         style="stop-color:#fff;stop-opacity:0"
         offset="0" />
      <stop
         id="stop3283"
         style="stop-color:#fff"
         offset=".245" />
      <stop
         id="stop3285"
         style="stop-color:#fff"
         offset=".77350" />
      <stop
         id="stop3279"
         style="stop-color:#fff;stop-opacity:0"
         offset="1" />
    </linearGradient>
    <linearGradient
       id="linearGradient2813"
       y2="8"
       gradientUnits="userSpaceOnUse"
       x2="26"
       y1="22"
       x1="26">
      <stop
         id="stop3829"
         style="stop-color:#fff"
         offset="0" />
      <stop
         id="stop4295"
         style="stop-color:#fff"
         offset=".30213" />
      <stop
         id="stop4293"
         style="stop-color:#fff;stop-opacity:.69020"
         offset=".34361" />
      <stop
         id="stop3832"
         style="stop-color:#fff;stop-opacity:0"
         offset="1" />
    </linearGradient>
    <linearGradient
       id="linearGradient2811"
       y2="45.934"
       gradientUnits="userSpaceOnUse"
       x2="43.007"
       gradientTransform="matrix(1.2822 0 0 1.1747 -6.0702 -5.3032)"
       y1="30.555"
       x1="23.452">
      <stop
         id="stop4561"
         style="stop-color:#fff;stop-opacity:0"
         offset="0" />
      <stop
         id="stop4563"
         style="stop-color:#fff;stop-opacity:0"
         offset="1" />
    </linearGradient>
    <linearGradient
       id="linearGradient2809"
       y2="45.042"
       gradientUnits="userSpaceOnUse"
       x2="15.464"
       y1="7.9757"
       x1="15.464">
      <stop
         id="stop3297"
         style="stop-color:#c9af8b"
         offset="0" />
      <stop
         id="stop3299"
         style="stop-color:#ad8757"
         offset=".23942" />
      <stop
         id="stop3301"
         style="stop-color:#c2a57f"
         offset=".27582" />
      <stop
         id="stop3303"
         style="stop-color:#9d7d53"
         offset="1" />
    </linearGradient>
    <linearGradient
       id="linearGradient2807"
       y2="37.277"
       gradientUnits="userSpaceOnUse"
       x2="24.997"
       gradientTransform="matrix(1.2822 0 0 1.5573 -6.0702 -15.291)"
       y1="15.378"
       x1="24.823">
      <stop
         id="stop3201"
         style="stop-color:#dac197"
         offset="0" />
      <stop
         id="stop3203"
         style="stop-color:#c1a581"
         offset=".23942" />
      <stop
         id="stop3205"
         style="stop-color:#dbc298"
         offset=".27582" />
      <stop
         id="stop3207"
         style="stop-color:#a68b60"
         offset="1" />
    </linearGradient>
    <radialGradient
       id="radialGradient2805"
       xlink:href="#linearGradient3681"
       gradientUnits="userSpaceOnUse"
       cy="41.5"
       cx="5"
       gradientTransform="matrix(.59382 0 0 1.5367 41.141 -103.94)"
       r="5" />
    <linearGradient
       id="linearGradient2803"
       y2="35"
       gradientUnits="userSpaceOnUse"
       x2="17.554"
       gradientTransform="matrix(1.757 0 0 1.397 -17.394 -16.412)"
       y1="46"
       x1="17.554">
      <stop
         id="stop3705"
         style="stop-opacity:0"
         offset="0" />
      <stop
         id="stop3711"
         offset=".5" />
      <stop
         id="stop3707"
         style="stop-opacity:0"
         offset="1" />
    </linearGradient>
    <linearGradient
       id="linearGradient3681">
      <stop
         id="stop3683"
         offset="0" />
      <stop
         id="stop3685"
         style="stop-opacity:0"
         offset="1" />
    </linearGradient>
    <radialGradient
       id="radialGradient2801"
       xlink:href="#linearGradient3681"
       gradientUnits="userSpaceOnUse"
       cy="41.5"
       cx="5"
       gradientTransform="matrix(.59382 0 0 1.5367 -6.6595 -103.94)"
       r="5" />
    <linearGradient
       id="linearGradient2789"
       y2="25.411"
       gradientUnits="userSpaceOnUse"
       x2="57.726"
       gradientTransform="matrix(0 .71282 -.67402 0 50.746 15.046)"
       y1="25.411"
       x1="13.472">
      <stop
         id="stop4224"
         style="stop-color:#fff"
         offset="0" />
      <stop
         id="stop4226"
         style="stop-color:#fff;stop-opacity:0"
         offset="1" />
    </linearGradient>
    <linearGradient
       id="linearGradient2787"
       y2="20.71"
       gradientUnits="userSpaceOnUse"
       x2=".81572"
       gradientTransform="matrix(0 -.61460 -.58384 0 46.949 46.633)"
       y1="20.71"
       x1="28.315">
      <stop
         id="stop2266"
         style="stop-color:#d7e866"
         offset="0" />
      <stop
         id="stop2268"
         style="stop-color:#8cab2a"
         offset="1" />
    </linearGradient>
    <linearGradient
       inkscape:collect="always"
       xlink:href="#linearGradient4185"
       id="linearGradient4191"
       x1="24.291777"
       y1="22.120689"
       x2="24.238728"
       y2="3.9509284"
       gradientUnits="userSpaceOnUse" />
  </defs>
  <g
     id="g4227"
     style="font-style:normal;font-variant:normal;font-weight:normal;font-stretch:normal;font-size:29.80191803px;line-height:125%;font-family:'Droid Naskh Shift Alt';-inkscape-font-specification:'Droid Naskh Shift Alt';letter-spacing:0px;word-spacing:0px;fill:#ffffff;fill-opacity:1;stroke:none;stroke-width:1px;stroke-linecap:butt;stroke-linejoin:miter;stroke-opacity:1"
     transform="matrix(0.99414699,0,0,1.0058875,12.585072,-0.41623521)" />
  <g
     id="g4199"
     transform="translate(0,1)">
    <rect
       ry="2"
       rx="2"
       y="-44"
       x="-43"
       height="40"
       width="40"
       id="rect4203-6"
       style="fill:#dcdcbe;fill-opacity:1;stroke:none"
       transform="matrix(0,-1,-1,0,0,0)" />
    <path
       id="path4245"
       d="m 7,15 0,1 34,0 0,-1 -34,0 z m 0,4 0,1 34,0 0,-1 -34,0 z m 0,4 0,1 34,0 0,-1 -34,0 z m 0,4 0,1 34,0 0,-1 -34,0 z m 0,4 0,1 34,0 0,-1 -34,0 z"
       style="color:#000000;font-style:normal;font-variant:normal;font-weight:normal;font-stretch:normal;font-size:medium;line-height:normal;font-family:sans-serif;text-indent:0;text-align:start;text-decoration:none;text-decoration-line:none;text-decoration-style:solid;text-decoration-color:#000000;letter-spacing:normal;word-spacing:normal;text-transform:none;direction:ltr;block-progression:tb;writing-mode:lr-tb;baseline-shift:baseline;text-anchor:start;white-space:normal;clip-rule:nonzero;display:inline;overflow:visible;visibility:visible;opacity:0.5;isolation:auto;mix-blend-mode:normal;color-interpolation:sRGB;color-interpolation-filters:linearRGB;solid-color:#000000;solid-opacity:1;fill:#2a2a2a;fill-opacity:1;fill-rule:evenodd;stroke:none;stroke-width:1px;stroke-linecap:butt;stroke-linejoin:miter;stroke-miterlimit:4;stroke-dasharray:none;stroke-dashoffset:0;stroke-opacity:1;color-rendering:auto;image-rendering:auto;shape-rendering:auto;text-rendering:auto;enable-background:accumulate"
       inkscape:connector-curvature="0" />
    <path
       inkscape:connector-curvature="0"
       id="rect4592"
       d="M 6,3 C 4.892,3 4,3.892 4,5 L 4,6 C 4,4.892 4.892,4 6,4 l 36,0 c 1.108,0 2,0.892 2,2 L 44,5 C 44,3.892 43.108,3 42,3 L 6,3 Z"
       style="opacity:0.2;fill:#ffffff;fill-opacity:1;stroke:none" />
    <path
       inkscape:connector-curvature="0"
       style="opacity:0.3;fill:#000000;fill-opacity:1;stroke:none"
       d="M 6,43 C 4.892,43 4,42.108 4,41 l 0,-1 c 0,1.108 0.892,2 2,2 l 36,0 c 1.108,0 2,-0.892 2,-2 l 0,1 c 0,1.108 -0.892,2 -2,2 L 6,43 Z"
       id="path4597" />
    <path
       inkscape:connector-curvature="0"
       style="opacity:0.15;fill:url(#linearGradient4191);fill-opacity:1;stroke:none"
       d="m 6,3.9999995 c -1.108,0 -2,0.892 -2,2 L 4,23 l 39.999999,0 0,-17.0000005 c 0,-1.108 -0.892,-2 -2,-2 L 6,3.9999995 Z"
       id="path4026" />
    <g
       style="fill:#2a2a2a;fill-opacity:1"
       transform="matrix(1.0566005,0,0,1.0077519,1.3695093,10.000001)"
       id="g4224">
      <g
         style="fill:#2a2a2a;fill-opacity:1"
         id="g4184">
        <path
           inkscape:connector-curvature="0"
           style="fill:#2a2a2a;fill-opacity:1"
           d="m 16.681,13.4 c -0.7,-0.8 -1.7,-1.3 -2.9,-1.2 -0.1,-0.2 -0.5,-2.2 -0.5,-2.2 0,0 1.4,-2.1 1.7,-2.5 1.5,-2.4 1.6,-4.3 0.7,-6.2 -0.3,-0.7 -1.1,-1.3 -1.9,-1.3 -0.6,0 -1.1,0.5 -1.4,1.1 -1,1.7 -1,4.9 -0.5,7.1 0,0 -0.5,0.5 -1,1.1 -1,1.1 -2.1,2.3 -2.5,3.9 -0.5,1.8 -0.1,3.5 1,4.8 1.2,1.5 3,2.2 5.2,2 0.4,1.9 0.7,3.1 0.1,4.2 -0.2,0.4 -0.6,0.8 -1.3,0.8 -0.2,0 -0.3,0 -0.5,-0.1 0.6,-0.3 1.1,-0.9 1.1,-1.6 0,-1 -0.8,-1.8 -1.8,-1.8 -1.7,0.1 -1.8,1.8 -1.8,1.8 0,0.6 0.2,1.2 0.6,1.6 0.5,0.5 1.3,0.9 2.2,0.9 1.1,0 2.2,-0.4 2.6,-2 0.4,-1.3 -0.3,-3.4 -0.4,-4.1 1.1,-0.5 2.1,-2 2.2,-3 0.2,-1.1 -0.2,-2.4 -0.9,-3.3 z m -3.2,-11.1 c 0.1,-0.2 0.3,-0.3 0.5,-0.3 0.1,0 0.3,0.1 0.4,0.2 0.4,0.2 0.5,0.6 0.5,1.2 -0.1,1.5 -1.4,3.3 -2.1,3.9 -0.3,-1.4 -0.1,-4 0.7,-5 z m -2.9,15.7 c -0.7,-0.7 -1,-1.7 -0.9,-2.7 0.2,-1.6 1.3,-2.9 2.2,-3.9 0.2,-0.2 0.4,-0.4 0.5,-0.6 0.1,0.5 0.4,1.3 0.5,1.7 -1.2,0.5 -1.9,2.1 -1.8,3.4 0,0.6 0.2,1 0.5,1.4 0.1,0.1 0.2,0.2 0.3,0.2 0.1,0 0.3,-0.1 0.3,-0.2 l 0,0 c 0.1,-0.1 0.1,-0.3 0,-0.4 -0.1,-0.1 -0.1,-0.2 -0.1,-0.4 -0.1,-0.9 0.5,-1.6 1.2,-1.9 0.1,0.6 0.8,3.7 0.9,4.4 -1.3,0.4 -2.7,0 -3.6,-1 z m 4.5,0.6 c -0.2,-0.7 -0.3,-1.5 -0.5,-2.4 -0.1,-0.6 -0.2,-1.3 -0.4,-1.9 1.3,0 1.7,1.1 1.8,1.5 0.3,1.1 0,2.2 -0.9,2.8 z"
           id="path4186" />
      </g>
      <g
         style="fill:#2a2a2a;fill-opacity:1"
         id="g4188" />
      <g
         style="fill:#2a2a2a;fill-opacity:1"
         id="g4190" />
      <g
         style="fill:#2a2a2a;fill-opacity:1"
         id="g4192" />
      <g
         style="fill:#2a2a2a;fill-opacity:1"
         id="g4194" />
      <g
         style="fill:#2a2a2a;fill-opacity:1"
         id="g4196" />
      <g
         style="fill:#2a2a2a;fill-opacity:1"
         id="g4198" />
      <g
         style="fill:#2a2a2a;fill-opacity:1"
         id="g4200" />
      <g
         style="fill:#2a2a2a;fill-opacity:1"
         id="g4202" />
      <g
         style="fill:#2a2a2a;fill-opacity:1"
         id="g4204" />
      <g
         style="fill:#2a2a2a;fill-opacity:1"
         id="g4206" />
      <g
         style="fill:#2a2a2a;fill-opacity:1"
         id="g4208" />
      <g
         style="fill:#2a2a2a;fill-opacity:1"
         id="g4210" />
      <g
         style="fill:#2a2a2a;fill-opacity:1"
         id="g4212" />
      <g
         style="fill:#2a2a2a;fill-opacity:1"
         id="g4214" />
      <g
         style="fill:#2a2a2a;fill-opacity:1"
         id="g4216" />
    </g>
  </g>
</svg>
