<?xml version="1.0" encoding="UTF-8" standalone="no"?>
<!-- Created with Inkscape (http://www.inkscape.org/) -->

<svg
   xmlns:dc="http://purl.org/dc/elements/1.1/"
   xmlns:cc="http://creativecommons.org/ns#"
   xmlns:rdf="http://www.w3.org/1999/02/22-rdf-syntax-ns#"
   xmlns:svg="http://www.w3.org/2000/svg"
   xmlns="http://www.w3.org/2000/svg"
   xmlns:sodipodi="http://sodipodi.sourceforge.net/DTD/sodipodi-0.dtd"
   xmlns:inkscape="http://www.inkscape.org/namespaces/inkscape"
   width="48"
   height="48"
   viewBox="0 0 48 48.000001"
   id="svg4152"
   version="1.1"
   inkscape:version="0.91 r"
   sodipodi:docname="popcorntime.svg">
  <defs
     id="defs4154" />
  <sodipodi:namedview
     id="base"
     pagecolor="#b2b2b2"
     bordercolor="#666666"
     borderopacity="1.0"
     inkscape:pageopacity="0"
     inkscape:pageshadow="2"
     inkscape:zoom="11.420324"
     inkscape:cx="25.453299"
     inkscape:cy="25.67783"
     inkscape:document-units="px"
     inkscape:current-layer="layer1"
     showgrid="false"
     units="px"
     inkscape:window-width="1600"
     inkscape:window-height="840"
     inkscape:window-x="-4"
     inkscape:window-y="34"
     inkscape:window-maximized="1" />
  <metadata
     id="metadata4157">
    <rdf:RDF>
      <cc:Work
         rdf:about="">
        <dc:format>image/svg+xml</dc:format>
        <dc:type
           rdf:resource="http://purl.org/dc/dcmitype/StillImage" />
        <dc:title />
      </cc:Work>
    </rdf:RDF>
  </metadata>
  <g
     inkscape:label="Layer 1"
     inkscape:groupmode="layer"
     id="layer1"
     transform="translate(0,-1004.3622)">
    <g
       id="g4155"
       transform="translate(0,3.2062756e-4)">
      <path
         id="path4722"
         d="m 26.708422,1029.3149 c 5.535845,-0.189 8.89196,-0.7776 9.186838,-1.611 0.0607,-0.1717 0.0448,-0.2148 -0.136094,-0.3694 l -0.204818,-0.1753 0.171562,-0.1104 c 0.09436,-0.061 0.32288,-0.2495 0.507825,-0.4194 1.223383,-1.1242 0.943766,-3.1561 -0.566902,-4.1194 -0.203122,-0.1296 -0.35346,-0.2718 -0.334085,-0.3162 0.677055,-1.5505 0.814383,-2.1206 0.858104,-3.5615 0.03784,-1.2473 -0.04259,-1.8788 -0.363894,-2.8574 -0.899412,-2.739 -3.338223,-5.0764 -6.24769,-5.9878 -1.100455,-0.3447 -1.646015,-0.4254 -2.868733,-0.4245 -1.021618,8e-4 -1.21937,0.021 -1.848085,0.1872 -2.686549,0.7108 -4.549328,2.3047 -6.123986,5.2398 -0.198292,0.3697 -0.370553,0.6721 -0.382798,0.6721 -0.01225,0 -0.313882,-0.2869 -0.670303,-0.6376 -0.996842,-0.9807 -1.866436,-1.4142 -2.969847,-1.4807 -0.755603,-0.046 -1.247138,0.058 -1.959446,0.4124 -1.045699,0.5203 -1.894066,1.6072 -2.172006,2.7828 -0.302334,1.2788 0.08474,2.7273 1.034181,3.8702 l 0.265494,0.3195 -0.196159,0.1353 c -0.487602,0.3361 -1.182969,1.1222 -1.410582,1.5946 -0.4585993,0.9518 -0.341052,2.1071 0.30285,2.9767 0.345565,0.4667 0.85197,0.8317 1.239159,0.8932 0.145661,0.023 0.276016,0.062 0.289676,0.084 0.01366,0.024 -0.0038,0.2513 -0.03887,0.5062 -0.08147,0.5929 0.01751,0.8019 0.515138,1.0878 1.694451,0.9737 7.680406,1.5281 14.123471,1.3082 z"
         style="fill:#ffe9b5;fill-opacity:1"
         inkscape:connector-curvature="0" />
      <path
         id="path4730"
         d="m 26.780871,1047.2173 c 2.265312,-0.3056 4.277303,-0.9649 5.745448,-1.8827 0.518699,-0.3242 1.465922,-1.0913 1.552123,-1.257 0.03671,-0.071 0.498891,-3.7132 1.027065,-8.095 0.993393,-8.2413 1.021283,-8.5652 0.741937,-8.6194 -0.05874,-0.011 -0.144585,0.052 -0.190782,0.1406 -0.348756,0.6701 -2.355707,1.1746 -5.981976,1.5036 -1.645913,0.1493 -7.079391,0.2108 -9.14457,0.1034 -4.340717,-0.2256 -7.137236,-0.6906 -8.159256,-1.3568 -0.180123,-0.1174 -0.346593,-0.1939 -0.36993,-0.1699 -0.02333,0.024 0.39525,3.7234 0.930192,8.2209 l 0.972622,8.1772 0.252303,0.2694 c 0.323654,0.3456 1.320497,1.0339 2.027047,1.3996 1.629201,0.8431 3.965053,1.4592 6.330611,1.6695 0.97362,0.086 3.272177,0.03 4.267166,-0.1034 z"
         style="fill:#ff3939;fill-opacity:1"
         inkscape:connector-curvature="0" />
      <path
         id="rect4788"
         d="m 14.244141,1029.5106 1.841797,15.0801 c 0.03088,0.017 0.06774,0.045 0.09766,0.061 0.894919,0.4631 2.011545,0.848 3.220703,1.1445 l -1.19727,-15.6992 a 13,2.5000017 0 0 1 -3.96289,-0.586 z m 19.158203,0.074 a 13,2.5000017 0 0 1 -3.957032,0.5449 l -1.208984,15.8262 c 1.224339,-0.2618 2.336979,-0.632 3.298828,-1.0938 l 1.867188,-15.2773 z m -11.333985,0.7461 0.363282,15.9785 c 0.02763,0 0.05439,0.01 0.08203,0.012 0.67643,0.06 1.980667,0.048 3.054687,-0.01 l 0.363283,-15.9824 A 13,2.5000017 0 0 1 24,1030.3622 a 13,2.5000017 0 0 1 -1.931641,-0.031 z"
         style="opacity:1;fill:#ffffff;fill-opacity:1;fill-rule:nonzero;stroke:none;stroke-width:1;stroke-linecap:round;stroke-linejoin:round;stroke-miterlimit:4;stroke-dasharray:none;stroke-dashoffset:0;stroke-opacity:1"
         inkscape:connector-curvature="0" />
      <path
         inkscape:connector-curvature="0"
         id="path4800"
         d="m 32,1020.3622 a 2,2 0 0 1 -2,2 2,2 0 0 1 -2,-2 2,2 0 0 1 2,-2 2,2 0 0 1 2,2 z"
         style="opacity:1;fill:#1b1b1b;fill-opacity:1;fill-rule:nonzero;stroke:none;stroke-width:1;stroke-linecap:round;stroke-linejoin:round;stroke-miterlimit:4;stroke-dasharray:none;stroke-dashoffset:0;stroke-opacity:1" />
      <path
         style="opacity:1;fill:#1b1b1b;fill-opacity:1;fill-rule:nonzero;stroke:none;stroke-width:1;stroke-linecap:round;stroke-linejoin:round;stroke-miterlimit:4;stroke-dasharray:none;stroke-dashoffset:0;stroke-opacity:1"
         d="m 19,1020.3622 a 2,2 0 0 1 -2,2 2,2 0 0 1 -2,-2 2,2 0 0 1 2,-2 2,2 0 0 1 2,2 z"
         id="path4803"
         inkscape:connector-curvature="0" />
      <path
         sodipodi:nodetypes="cscc"
         inkscape:connector-curvature="0"
         id="path4805"
         d="m 28,1024.3622 c 0,1.6569 -1.790861,3 -4,3 -2.209139,0 -4,-1.3431 -4,-3 4.107382,0.476 8,0 8,0 z"
         style="opacity:1;fill:#952525;fill-opacity:1;fill-rule:nonzero;stroke:none;stroke-width:1;stroke-linecap:round;stroke-linejoin:round;stroke-miterlimit:4;stroke-dasharray:none;stroke-dashoffset:0;stroke-opacity:1" />
      <path
         id="path4810"
         d="m 26.710938,1009.3622 c -1.021619,8e-4 -1.218942,0.021 -1.847657,0.1875 -2.686549,0.7108 -4.550342,2.3051 -6.125,5.2402 -0.198292,0.3697 -0.370567,0.6719 -0.382812,0.6719 -0.01225,0 -0.313501,-0.288 -0.669922,-0.6387 -0.996842,-0.9807 -1.867292,-1.4139 -2.970703,-1.4804 -0.755603,-0.046 -1.246677,0.06 -1.958985,0.414 -1.045699,0.5203 -1.893935,1.6057 -2.171875,2.7813 -0.10588,0.4478 -0.122223,0.9176 -0.06445,1.3867 0.01655,-0.13 0.03441,-0.2597 0.06445,-0.3867 0.27794,-1.1756 1.126176,-2.261 2.171875,-2.7813 0.712308,-0.3544 1.203382,-0.46 1.958985,-0.414 1.103411,0.067 1.973861,0.4997 2.970703,1.4804 0.356421,0.3507 0.657672,0.6387 0.669922,0.6387 0.01225,0 0.18452,-0.3022 0.382812,-0.6719 1.574658,-2.9351 3.438451,-4.5294 6.125,-5.2402 0.628715,-0.1662 0.826038,-0.1867 1.847657,-0.1875 1.222718,-9e-4 1.768685,0.081 2.86914,0.4258 2.909467,0.9114 5.346682,3.2473 6.246094,5.9863 0.228793,0.6968 0.332539,1.2255 0.361328,1.918 7.48e-4,-0.023 0.0032,-0.038 0.0039,-0.061 0.03784,-1.2473 -0.04393,-1.8788 -0.365234,-2.8574 -0.899406,-2.739 -3.336621,-5.0749 -6.246088,-5.9863 -1.100455,-0.3447 -1.646422,-0.4267 -2.86914,-0.4258 z m -15.31836,11.7441 c -0.44046,0.3884 -0.930146,0.9675 -1.115234,1.3516 -0.258411,0.5363 -0.3270583,1.1368 -0.228516,1.7148 0.04436,-0.2454 0.118323,-0.4861 0.228516,-0.7148 0.227613,-0.4724 0.922554,-1.2576 1.410156,-1.5937 l 0.195312,-0.1368 -0.263671,-0.3183 c -0.08142,-0.098 -0.153495,-0.2006 -0.226563,-0.3028 z m 24.232422,1.3731 c -0.08858,0.2235 -0.172952,0.44 -0.292969,0.7148 -0.01938,0.044 0.130863,0.1868 0.333985,0.3164 0.702821,0.4482 1.127009,1.1281 1.269531,1.8399 0.205144,-1.0261 -0.236569,-2.1812 -1.269531,-2.8399 -0.01663,-0.011 -0.02516,-0.02 -0.04102,-0.031 z m -23.554688,4.9219 c 0.0081,0.046 0.01367,0.093 0.0293,0.1328 1.13e-4,-0.027 0.01304,-0.1154 0.0098,-0.1211 -0.0018,0 -0.03324,-0.01 -0.03906,-0.012 z"
         style="opacity:0.2;fill:#ffffff;fill-opacity:1"
         inkscape:connector-curvature="0" />
      <path
         id="path4813"
         d="m 35.847656,1027.3642 c -0.05874,-0.011 -0.145209,0.05 -0.191406,0.1386 -0.348756,0.6701 -2.356153,1.1749 -5.982422,1.5039 -1.645913,0.1493 -7.079352,0.2109 -9.144531,0.1035 -4.340717,-0.2256 -7.136183,-0.6892 -8.158203,-1.3554 -0.180123,-0.1174 -0.347757,-0.1939 -0.371094,-0.1699 -0.003,0 0.108275,0.9367 0.119141,1.0546 0.06919,0.023 0.129683,0.036 0.251953,0.1153 1.02202,0.6662 3.817486,1.1298 8.158203,1.3554 2.065179,0.1074 7.498618,0.048 9.144531,-0.1015 3.626269,-0.329 5.633666,-0.8338 5.982422,-1.5039 0.0462,-0.089 0.132666,-0.1516 0.191406,-0.1406 0.04944,0.01 0.08283,0.046 0.109375,0.1152 0.07287,-0.9393 0.02195,-1.0898 -0.109375,-1.1152 z"
         style="opacity:0.2;fill:#ffffff;fill-opacity:1"
         inkscape:connector-curvature="0" />
      <path
         inkscape:connector-curvature="0"
         id="path4818"
         d="m 35.957031,1027.4794 c -0.08211,1.0585 -0.325123,3.1365 -0.851562,7.5039 -0.528174,4.3818 -0.990634,8.0227 -1.027344,8.0937 -0.0862,0.1657 -1.034035,0.9336 -1.552734,1.2578 -1.468145,0.9178 -3.478829,1.5772 -5.744141,1.8828 -0.994989,0.1334 -3.293958,0.1896 -4.267578,0.1036 -2.365558,-0.2103 -4.700877,-0.8269 -6.330078,-1.67 -0.70655,-0.3657 -1.70369,-1.0528 -2.027344,-1.3984 l -0.251953,-0.2695 -0.972656,-8.1778 c -0.466314,-3.9205 -0.738668,-6.3643 -0.8125,-7.166 -0.03274,-0.011 -0.111645,-0.062 -0.119141,-0.055 -0.02333,0.024 0.396699,3.7232 0.931641,8.2207 l 0.972656,8.1778 0.251953,0.2695 c 0.323654,0.3456 1.320794,1.0327 2.027344,1.3984 1.629201,0.8431 3.96452,1.4597 6.330078,1.67 0.97362,0.086 3.272589,0.03 4.267578,-0.1036 2.265312,-0.3056 4.275996,-0.965 5.744141,-1.8828 0.518699,-0.3242 1.466533,-1.0921 1.552734,-1.2578 0.03671,-0.071 0.49917,-3.7119 1.027344,-8.0937 0.817587,-6.7828 0.975002,-8.1836 0.851562,-8.5039 z"
         style="opacity:0.3;fill:#000000;fill-opacity:1" />
    </g>
  </g>
</svg>
