<?xml version="1.0" encoding="UTF-8" standalone="no"?>
<!-- Created with Inkscape (http://www.inkscape.org/) -->

<svg
   xmlns:dc="http://purl.org/dc/elements/1.1/"
   xmlns:cc="http://creativecommons.org/ns#"
   xmlns:rdf="http://www.w3.org/1999/02/22-rdf-syntax-ns#"
   xmlns:svg="http://www.w3.org/2000/svg"
   xmlns="http://www.w3.org/2000/svg"
   xmlns:sodipodi="http://sodipodi.sourceforge.net/DTD/sodipodi-0.dtd"
   xmlns:inkscape="http://www.inkscape.org/namespaces/inkscape"
   width="48"
   height="48"
   viewBox="0 0 48 48.000001"
   id="svg4152"
   version="1.1"
   inkscape:version="0.91 r"
   sodipodi:docname="popcorntime.svg">
  <defs
     id="defs4154" />
  <sodipodi:namedview
     id="base"
     pagecolor="#b2b2b2"
     bordercolor="#666666"
     borderopacity="1.0"
     inkscape:pageopacity="0"
     inkscape:pageshadow="2"
     inkscape:zoom="6.56"
     inkscape:cx="25.919242"
     inkscape:cy="25.67783"
     inkscape:document-units="px"
     inkscape:current-layer="layer1"
     showgrid="false"
     units="px"
     inkscape:window-width="1600"
     inkscape:window-height="842"
     inkscape:window-x="-4"
     inkscape:window-y="32"
     inkscape:window-maximized="1" />
  <metadata
     id="metadata4157">
    <rdf:RDF>
      <cc:Work
         rdf:about="">
        <dc:format>image/svg+xml</dc:format>
        <dc:type
           rdf:resource="http://purl.org/dc/dcmitype/StillImage" />
        <dc:title></dc:title>
      </cc:Work>
    </rdf:RDF>
  </metadata>
  <g
     inkscape:label="Layer 1"
     inkscape:groupmode="layer"
     id="layer1"
     transform="translate(0,-1004.3622)">
    <g
       id="g4820">
      <path
         inkscape:connector-curvature="0"
         style="opacity:0.5;fill:#000000;fill-opacity:1"
         d="m 26.780871,1048.2177 c 2.265312,-0.3056 4.277303,-0.9649 5.745448,-1.8827 0.518699,-0.3242 1.465922,-1.0913 1.552123,-1.257 0.03671,-0.071 0.498891,-3.7132 1.027065,-8.095 0.993393,-8.2413 1.021283,-8.5652 0.741937,-8.6194 -0.05874,-0.011 -0.144585,0.052 -0.190782,0.1406 -0.348756,0.6701 -2.355707,1.1746 -5.981976,1.5036 -1.645913,0.1493 -7.079391,0.2108 -9.14457,0.1034 -4.340717,-0.2256 -7.137236,-0.6906 -8.159256,-1.3568 -0.180123,-0.1174 -0.346593,-0.1939 -0.36993,-0.1699 -0.02333,0.024 0.39525,3.7234 0.930192,8.2209 l 0.972622,8.1772 0.252303,0.2694 c 0.323654,0.3456 1.320497,1.0339 2.027047,1.3996 1.629201,0.8431 3.965053,1.4592 6.330611,1.6695 0.97362,0.086 3.272177,0.03 4.267166,-0.1034 z"
         id="path4818" />
      <path
         id="path4722"
         d="m 26.708422,1029.3149 c 5.535845,-0.189 8.89196,-0.7776 9.186838,-1.611 0.0607,-0.1717 0.0448,-0.2148 -0.136094,-0.3694 l -0.204818,-0.1753 0.171562,-0.1104 c 0.09436,-0.061 0.32288,-0.2495 0.507825,-0.4194 1.223383,-1.1242 0.943766,-3.1561 -0.566902,-4.1194 -0.203122,-0.1296 -0.35346,-0.2718 -0.334085,-0.3162 0.677055,-1.5505 0.814383,-2.1206 0.858104,-3.5615 0.03784,-1.2473 -0.04259,-1.8788 -0.363894,-2.8574 -0.899412,-2.739 -3.338223,-5.0764 -6.24769,-5.9878 -1.100455,-0.3447 -1.646015,-0.4254 -2.868733,-0.4245 -1.021618,8e-4 -1.21937,0.021 -1.848085,0.1872 -2.686549,0.7108 -4.549328,2.3047 -6.123986,5.2398 -0.198292,0.3697 -0.370553,0.6721 -0.382798,0.6721 -0.01225,0 -0.313882,-0.2869 -0.670303,-0.6376 -0.996842,-0.9807 -1.866436,-1.4142 -2.969847,-1.4807 -0.755603,-0.046 -1.247138,0.058 -1.959446,0.4124 -1.045699,0.5203 -1.894066,1.6072 -2.172006,2.7828 -0.302334,1.2788 0.08474,2.7273 1.034181,3.8702 l 0.265494,0.3195 -0.196159,0.1353 c -0.487602,0.3361 -1.182969,1.1222 -1.410582,1.5946 -0.4585993,0.9518 -0.341052,2.1071 0.30285,2.9767 0.345565,0.4667 0.85197,0.8317 1.239159,0.8932 0.145661,0.023 0.276016,0.062 0.289676,0.084 0.01366,0.024 -0.0038,0.2513 -0.03887,0.5062 -0.08147,0.5929 0.01751,0.8019 0.515138,1.0878 1.694451,0.9737 7.680406,1.5281 14.123471,1.3082 z"
         style="fill:#ffe9b5;fill-opacity:1"
         inkscape:connector-curvature="0" />
      <path
         id="path4730"
         d="m 26.780871,1047.2173 c 2.265312,-0.3056 4.277303,-0.9649 5.745448,-1.8827 0.518699,-0.3242 1.465922,-1.0913 1.552123,-1.257 0.03671,-0.071 0.498891,-3.7132 1.027065,-8.095 0.993393,-8.2413 1.021283,-8.5652 0.741937,-8.6194 -0.05874,-0.011 -0.144585,0.052 -0.190782,0.1406 -0.348756,0.6701 -2.355707,1.1746 -5.981976,1.5036 -1.645913,0.1493 -7.079391,0.2108 -9.14457,0.1034 -4.340717,-0.2256 -7.137236,-0.6906 -8.159256,-1.3568 -0.180123,-0.1174 -0.346593,-0.1939 -0.36993,-0.1699 -0.02333,0.024 0.39525,3.7234 0.930192,8.2209 l 0.972622,8.1772 0.252303,0.2694 c 0.323654,0.3456 1.320497,1.0339 2.027047,1.3996 1.629201,0.8431 3.965053,1.4592 6.330611,1.6695 0.97362,0.086 3.272177,0.03 4.267166,-0.1034 z"
         style="fill:#ff3939;fill-opacity:1"
         inkscape:connector-curvature="0" />
      <path
         id="rect4788"
         transform="translate(0,1004.3622)"
         d="M 14.244141 25.148438 L 16.085938 40.228516 C 16.116819 40.245104 16.15368 40.27358 16.183594 40.289062 C 17.078513 40.752177 18.195139 41.137099 19.404297 41.433594 L 18.207031 25.734375 A 13 2.5000017 0 0 1 14.244141 25.148438 z M 33.402344 25.222656 A 13 2.5000017 0 0 1 29.445312 25.767578 L 28.236328 41.59375 C 29.460667 41.332039 30.573307 40.961807 31.535156 40.5 L 33.402344 25.222656 z M 22.068359 25.96875 L 22.431641 41.947266 C 22.459271 41.949833 22.486032 41.956527 22.513672 41.958984 C 23.190102 42.018734 24.494339 42.006843 25.568359 41.951172 L 25.931641 25.96875 A 13 2.5000017 0 0 1 24 26 A 13 2.5000017 0 0 1 22.068359 25.96875 z "
         style="opacity:1;fill:#ffffff;fill-opacity:1;fill-rule:nonzero;stroke:none;stroke-width:1;stroke-linecap:round;stroke-linejoin:round;stroke-miterlimit:4;stroke-dasharray:none;stroke-dashoffset:0;stroke-opacity:1" />
      <path
         inkscape:connector-curvature="0"
         id="path4800"
         d="m 32,1020.3622 a 2,2 0 0 1 -2,2 2,2 0 0 1 -2,-2 2,2 0 0 1 2,-2 2,2 0 0 1 2,2 z"
         style="opacity:1;fill:#1b1b1b;fill-opacity:1;fill-rule:nonzero;stroke:none;stroke-width:1;stroke-linecap:round;stroke-linejoin:round;stroke-miterlimit:4;stroke-dasharray:none;stroke-dashoffset:0;stroke-opacity:1" />
      <path
         style="opacity:1;fill:#1b1b1b;fill-opacity:1;fill-rule:nonzero;stroke:none;stroke-width:1;stroke-linecap:round;stroke-linejoin:round;stroke-miterlimit:4;stroke-dasharray:none;stroke-dashoffset:0;stroke-opacity:1"
         d="m 19,1020.3622 a 2,2 0 0 1 -2,2 2,2 0 0 1 -2,-2 2,2 0 0 1 2,-2 2,2 0 0 1 2,2 z"
         id="path4803"
         inkscape:connector-curvature="0" />
      <path
         sodipodi:nodetypes="cscc"
         inkscape:connector-curvature="0"
         id="path4805"
         d="m 28,1024.3622 c 0,1.6569 -1.790861,3 -4,3 -2.209139,0 -4,-1.3431 -4,-3 4.107382,0.476 8,0 8,0 z"
         style="opacity:1;fill:#952525;fill-opacity:1;fill-rule:nonzero;stroke:none;stroke-width:1;stroke-linecap:round;stroke-linejoin:round;stroke-miterlimit:4;stroke-dasharray:none;stroke-dashoffset:0;stroke-opacity:1" />
      <path
         id="path4810"
         transform="translate(0,1004.3622)"
         d="M 26.710938 5 C 25.689319 5.0008 25.491996 5.0213 24.863281 5.1875 C 22.176732 5.8983 20.312939 7.4926344 18.738281 10.427734 C 18.539989 10.797434 18.367714 11.099609 18.355469 11.099609 C 18.343219 11.099609 18.041968 10.811638 17.685547 10.460938 C 16.688705 9.4802375 15.818255 9.0469687 14.714844 8.9804688 C 13.959241 8.9344687 13.468167 9.0401312 12.755859 9.3945312 C 11.71016 9.9148313 10.861924 11.000181 10.583984 12.175781 C 10.478104 12.623629 10.461761 13.093441 10.519531 13.5625 C 10.536084 13.432548 10.553943 13.302849 10.583984 13.175781 C 10.861924 12.000181 11.71016 10.914831 12.755859 10.394531 C 13.468167 10.040131 13.959241 9.9344687 14.714844 9.9804688 C 15.818255 10.046969 16.688705 10.480238 17.685547 11.460938 C 18.041968 11.811638 18.343219 12.099609 18.355469 12.099609 C 18.367714 12.099609 18.539989 11.797434 18.738281 11.427734 C 20.312939 8.4926344 22.176732 6.8983 24.863281 6.1875 C 25.491996 6.0213 25.689319 6.0008 26.710938 6 C 27.933656 5.9991 28.479623 6.0810813 29.580078 6.4257812 C 32.489545 7.3371812 34.92676 9.6731094 35.826172 12.412109 C 36.054965 13.108947 36.158711 13.637572 36.1875 14.330078 C 36.188248 14.307487 36.190708 14.29256 36.191406 14.269531 C 36.229246 13.022231 36.147476 12.390709 35.826172 11.412109 C 34.92676 8.6731094 32.489545 6.3371812 29.580078 5.4257812 C 28.479623 5.0810813 27.933656 4.9991 26.710938 5 z M 11.392578 16.744141 C 10.952118 17.132502 10.462432 17.71156 10.277344 18.095703 C 10.018933 18.632021 9.9502857 19.232525 10.048828 19.810547 C 10.093184 19.565136 10.167151 19.324403 10.277344 19.095703 C 10.504957 18.623303 11.199898 17.838053 11.6875 17.501953 L 11.882812 17.365234 L 11.619141 17.046875 C 11.537722 16.948866 11.465646 16.846345 11.392578 16.744141 z M 35.625 18.117188 C 35.536417 18.340732 35.452048 18.557186 35.332031 18.832031 C 35.312656 18.876431 35.462894 19.018838 35.666016 19.148438 C 36.368837 19.596602 36.793025 20.276539 36.935547 20.988281 C 37.140691 19.962172 36.698978 18.807121 35.666016 18.148438 C 35.649383 18.137825 35.64086 18.127908 35.625 18.117188 z M 12.070312 23.039062 C 12.078372 23.084669 12.08398 23.131875 12.099609 23.171875 C 12.099722 23.145228 12.112646 23.056528 12.109375 23.050781 C 12.107536 23.047819 12.076135 23.04256 12.070312 23.039062 z "
         style="fill:#ffffff;fill-opacity:1;opacity:0.2" />
      <path
         id="path4813"
         transform="translate(0,1004.3622)"
         d="M 35.847656 23.001953 C 35.788916 22.990953 35.702447 23.052025 35.65625 23.140625 C 35.307494 23.810725 33.300097 24.315531 29.673828 24.644531 C 28.027915 24.793831 22.594476 24.855447 20.529297 24.748047 C 16.18858 24.522447 13.393114 24.058778 12.371094 23.392578 C 12.190971 23.275178 12.023337 23.198656 12 23.222656 C 11.997007 23.225735 12.108275 24.159356 12.119141 24.277344 C 12.188328 24.300702 12.248824 24.312886 12.371094 24.392578 C 13.393114 25.058778 16.18858 25.522447 20.529297 25.748047 C 22.594476 25.855447 28.027915 25.795784 29.673828 25.646484 C 33.300097 25.317484 35.307494 24.812678 35.65625 24.142578 C 35.702447 24.053978 35.788916 23.990953 35.847656 24.001953 C 35.897093 24.011545 35.930488 24.048311 35.957031 24.117188 C 36.029904 23.177898 35.978981 23.027433 35.847656 23.001953 z "
         style="fill:#ffffff;fill-opacity:1;opacity:0.2" />
    </g>
  </g>
</svg>
