<?xml version="1.0" encoding="UTF-8" standalone="no"?>
<!-- Created with Inkscape (http://www.inkscape.org/) -->

<svg
   xmlns:dc="http://purl.org/dc/elements/1.1/"
   xmlns:cc="http://creativecommons.org/ns#"
   xmlns:rdf="http://www.w3.org/1999/02/22-rdf-syntax-ns#"
   xmlns:svg="http://www.w3.org/2000/svg"
   xmlns="http://www.w3.org/2000/svg"
   xmlns:xlink="http://www.w3.org/1999/xlink"
   xmlns:sodipodi="http://sodipodi.sourceforge.net/DTD/sodipodi-0.dtd"
   xmlns:inkscape="http://www.inkscape.org/namespaces/inkscape"
   id="svg2817"
   height="48"
   width="48"
   version="1.0"
   inkscape:version="0.91 r"
   sodipodi:docname="smartgit.svg">
  <metadata
     id="metadata57">
    <rdf:RDF>
      <cc:Work
         rdf:about="">
        <dc:format>image/svg+xml</dc:format>
        <dc:type
           rdf:resource="http://purl.org/dc/dcmitype/StillImage" />
        <dc:title />
      </cc:Work>
    </rdf:RDF>
  </metadata>
  <sodipodi:namedview
     pagecolor="#adadad"
     bordercolor="#666666"
     borderopacity="1"
     objecttolerance="10"
     gridtolerance="10"
     guidetolerance="10"
     inkscape:pageopacity="0"
     inkscape:pageshadow="2"
     inkscape:window-width="1600"
     inkscape:window-height="841"
     id="namedview55"
     showgrid="false"
     inkscape:zoom="9.28"
     inkscape:cx="-13.632211"
     inkscape:cy="20.060707"
     inkscape:window-x="-4"
     inkscape:window-y="33"
     inkscape:window-maximized="1"
     inkscape:current-layer="svg2817" />
  <defs
     id="defs2819">
    <linearGradient
       id="linearGradient2815"
       y2="17.5"
       spreadMethod="reflect"
       gradientUnits="userSpaceOnUse"
       x2="3.0052"
       y1="17.5"
       x1="44.995">
      <stop
         id="stop3277"
         style="stop-color:#fff;stop-opacity:0"
         offset="0" />
      <stop
         id="stop3283"
         style="stop-color:#fff"
         offset=".245" />
      <stop
         id="stop3285"
         style="stop-color:#fff"
         offset=".77350" />
      <stop
         id="stop3279"
         style="stop-color:#fff;stop-opacity:0"
         offset="1" />
    </linearGradient>
    <linearGradient
       id="linearGradient2813"
       y2="8"
       gradientUnits="userSpaceOnUse"
       x2="26"
       y1="22"
       x1="26">
      <stop
         id="stop3829"
         style="stop-color:#fff"
         offset="0" />
      <stop
         id="stop4295"
         style="stop-color:#fff"
         offset=".30213" />
      <stop
         id="stop4293"
         style="stop-color:#fff;stop-opacity:.69020"
         offset=".34361" />
      <stop
         id="stop3832"
         style="stop-color:#fff;stop-opacity:0"
         offset="1" />
    </linearGradient>
    <linearGradient
       id="linearGradient2811"
       y2="45.934"
       gradientUnits="userSpaceOnUse"
       x2="43.007"
       gradientTransform="matrix(1.2822 0 0 1.1747 -6.0702 -5.3032)"
       y1="30.555"
       x1="23.452">
      <stop
         id="stop4561"
         style="stop-color:#fff;stop-opacity:0"
         offset="0" />
      <stop
         id="stop4563"
         style="stop-color:#fff;stop-opacity:0"
         offset="1" />
    </linearGradient>
    <linearGradient
       id="linearGradient2809"
       y2="45.042"
       gradientUnits="userSpaceOnUse"
       x2="15.464"
       y1="7.9757"
       x1="15.464">
      <stop
         id="stop3297"
         style="stop-color:#c9af8b"
         offset="0" />
      <stop
         id="stop3299"
         style="stop-color:#ad8757"
         offset=".23942" />
      <stop
         id="stop3301"
         style="stop-color:#c2a57f"
         offset=".27582" />
      <stop
         id="stop3303"
         style="stop-color:#9d7d53"
         offset="1" />
    </linearGradient>
    <linearGradient
       id="linearGradient2807"
       y2="37.277"
       gradientUnits="userSpaceOnUse"
       x2="24.997"
       gradientTransform="matrix(1.2822 0 0 1.5573 -6.0702 -15.291)"
       y1="15.378"
       x1="24.823">
      <stop
         id="stop3201"
         style="stop-color:#dac197"
         offset="0" />
      <stop
         id="stop3203"
         style="stop-color:#c1a581"
         offset=".23942" />
      <stop
         id="stop3205"
         style="stop-color:#dbc298"
         offset=".27582" />
      <stop
         id="stop3207"
         style="stop-color:#a68b60"
         offset="1" />
    </linearGradient>
    <radialGradient
       id="radialGradient2805"
       xlink:href="#linearGradient3681"
       gradientUnits="userSpaceOnUse"
       cy="41.5"
       cx="5"
       gradientTransform="matrix(.59382 0 0 1.5367 41.141 -103.94)"
       r="5" />
    <linearGradient
       id="linearGradient2803"
       y2="35"
       gradientUnits="userSpaceOnUse"
       x2="17.554"
       gradientTransform="matrix(1.757 0 0 1.397 -17.394 -16.412)"
       y1="46"
       x1="17.554">
      <stop
         id="stop3705"
         style="stop-opacity:0"
         offset="0" />
      <stop
         id="stop3711"
         offset=".5" />
      <stop
         id="stop3707"
         style="stop-opacity:0"
         offset="1" />
    </linearGradient>
    <linearGradient
       id="linearGradient3681">
      <stop
         id="stop3683"
         offset="0" />
      <stop
         id="stop3685"
         style="stop-opacity:0"
         offset="1" />
    </linearGradient>
    <radialGradient
       id="radialGradient2801"
       xlink:href="#linearGradient3681"
       gradientUnits="userSpaceOnUse"
       cy="41.5"
       cx="5"
       gradientTransform="matrix(.59382 0 0 1.5367 -6.6595 -103.94)"
       r="5" />
    <linearGradient
       id="linearGradient2789"
       y2="25.411"
       gradientUnits="userSpaceOnUse"
       x2="57.726"
       gradientTransform="matrix(0 .71282 -.67402 0 50.746 15.046)"
       y1="25.411"
       x1="13.472">
      <stop
         id="stop4224"
         style="stop-color:#fff"
         offset="0" />
      <stop
         id="stop4226"
         style="stop-color:#fff;stop-opacity:0"
         offset="1" />
    </linearGradient>
    <linearGradient
       id="linearGradient2787"
       y2="20.71"
       gradientUnits="userSpaceOnUse"
       x2=".81572"
       gradientTransform="matrix(0 -.61460 -.58384 0 46.949 46.633)"
       y1="20.71"
       x1="28.315">
      <stop
         id="stop2266"
         style="stop-color:#d7e866"
         offset="0" />
      <stop
         id="stop2268"
         style="stop-color:#8cab2a"
         offset="1" />
    </linearGradient>
    <radialGradient
       r="5"
       gradientTransform="matrix(.59382 0 0 1.5367 41.141 -103.94)"
       cx="5"
       cy="41.5"
       gradientUnits="userSpaceOnUse"
       xlink:href="#linearGradient3681"
       id="radialGradient2805-9" />
    <radialGradient
       r="5"
       gradientTransform="matrix(.59382 0 0 1.5367 -6.6595 -103.94)"
       cx="5"
       cy="41.5"
       gradientUnits="userSpaceOnUse"
       xlink:href="#linearGradient3681"
       id="radialGradient2801-3" />
    <linearGradient
       gradientTransform="translate(-57.231704,-4.0914534)"
       gradientUnits="userSpaceOnUse"
       xlink:href="#linearGradient3924-9-5"
       id="linearGradient5313"
       y2="43"
       x2="23.99999"
       y1="4.999989"
       x1="23.99999" />
    <linearGradient
       id="linearGradient3924-9-5">
      <stop
         offset="0"
         style="stop-color:#ffffff;stop-opacity:1"
         id="stop3926-2-0" />
      <stop
         offset="0.06316455"
         style="stop-color:#ffffff;stop-opacity:0.23529412"
         id="stop3928-2-0" />
      <stop
         offset="0.95056331"
         style="stop-color:#ffffff;stop-opacity:0.15686275"
         id="stop3930-6-1" />
      <stop
         offset="1"
         style="stop-color:#ffffff;stop-opacity:0.39215687"
         id="stop3932-1-6" />
    </linearGradient>
    <radialGradient
       gradientTransform="matrix(1.942847e-8,2.3369903,-2.4722571,-4.3056281e-8,44.890112,-11.434803)"
       gradientUnits="userSpaceOnUse"
       xlink:href="#linearGradient2867-449-88-871-390-598-476-591-434-148-57-177-7-4-9-9-2-2-0-8-0"
       id="radialGradient5232"
       fy="8.4497671"
       fx="11.546201"
       r="19.99999"
       cy="8.4497671"
       cx="11.546201" />
    <linearGradient
       id="linearGradient2867-449-88-871-390-598-476-591-434-148-57-177-7-4-9-9-2-2-0-8-0">
      <stop
         offset="0"
         style="stop-color:#54bfec;stop-opacity:1"
         id="stop3750-6-3-7-0-5-3-5-7" />
      <stop
         offset="0.26238"
         style="stop-color:#55c1ec;stop-opacity:1"
         id="stop3752-3-7-7-6-4-4-3-4" />
      <stop
         offset="0.704952"
         style="stop-color:#3689e6;stop-opacity:1"
         id="stop3754-1-7-4-6-36-7-7-2-4" />
      <stop
         offset="1"
         style="stop-color:#2b63a0;stop-opacity:1"
         id="stop3756-7-5-7-1-4-3-1-7" />
    </linearGradient>
    <linearGradient
       gradientTransform="translate(-57.231706,-4.0914641)"
       gradientUnits="userSpaceOnUse"
       xlink:href="#linearGradient3707-319-631-407-324-3-2-9"
       id="linearGradient5234"
       y2="3.8990016"
       x2="24"
       y1="44"
       x1="24" />
    <linearGradient
       id="linearGradient3707-319-631-407-324-3-2-9">
      <stop
         offset="0"
         style="stop-color:#1e74bc;stop-opacity:1"
         id="stop3760-3-9-5" />
      <stop
         offset="1"
         style="stop-color:#3fa8ea;stop-opacity:1"
         id="stop3762-0-8-9" />
    </linearGradient>
    <radialGradient
       gradientTransform="matrix(2.003784,0,0,1.4,27.98813,-17.4)"
       gradientUnits="userSpaceOnUse"
       xlink:href="#linearGradient3688-166-749"
       id="radialGradient3013"
       fy="43.5"
       fx="4.9929786"
       r="2.5"
       cy="43.5"
       cx="4.9929786" />
    <linearGradient
       id="linearGradient3688-166-749">
      <stop
         offset="0"
         style="stop-color:#181818;stop-opacity:1"
         id="stop2883" />
      <stop
         offset="1"
         style="stop-color:#181818;stop-opacity:0"
         id="stop2885" />
    </linearGradient>
    <radialGradient
       gradientTransform="matrix(2.003784,0,0,1.4,-20.01187,-104.4)"
       gradientUnits="userSpaceOnUse"
       xlink:href="#linearGradient3688-166-749"
       id="radialGradient3015"
       fy="43.5"
       fx="4.9929786"
       r="2.5"
       cy="43.5"
       cx="4.9929786" />
    <linearGradient
       id="linearGradient3702-501-757">
      <stop
         offset="0"
         style="stop-color:#181818;stop-opacity:0"
         id="stop2895" />
      <stop
         offset="0.5"
         style="stop-color:#181818;stop-opacity:1"
         id="stop2897" />
      <stop
         offset="1"
         style="stop-color:#181818;stop-opacity:0"
         id="stop2899" />
    </linearGradient>
    <linearGradient
       gradientUnits="userSpaceOnUse"
       xlink:href="#linearGradient3702-501-757"
       id="linearGradient5388"
       y2="39.999443"
       x2="25.058096"
       y1="47.027729"
       x1="25.058096" />
  </defs>
  <path
     inkscape:connector-curvature="0"
     style="opacity:1;fill:#3e3e3e;fill-opacity:1;fill-rule:nonzero;stroke:none;stroke-width:1;stroke-linecap:round;stroke-linejoin:round;stroke-miterlimit:4;stroke-dasharray:none;stroke-dashoffset:0;stroke-opacity:1"
     d="M 44,24 A 20,20 0 0 1 24,44 20,20 0 0 1 4,24 20,20 0 0 1 24,4 20,20 0 0 1 44,24 Z"
     id="path4207" />
  <path
     sodipodi:nodetypes="scccccsccccccccccscsccs"
     inkscape:connector-curvature="0"
     id="path4217"
     d="m 34.560486,15.003125 c -0.615454,-0.02886 -2.350279,0.10517 -5.060675,1.997966 -2.903323,-0.878837 -6.01791,-1.014577 -9.500239,0 -2.712142,-1.892796 -4.096743,-2.025196 -4.71301,-1.996013 -0.205422,0.0097 -0.304695,0.04102 -0.304695,0.04102 -1.030708,2.684155 -0.378815,4.668646 -0.183598,5.1619 -1.21082,1.362431 -1.951221,3.10356 -1.951221,5.23221 0,7.473012 4.42026,9.146226 8.623264,9.638282 -0.540335,0.487267 -1.029223,1.3498 -1.201202,2.60927 -1.078348,0.499237 -3.821497,1.35884 -5.509904,-1.621029 0,0 -0.998616,-1.873956 -2.898511,-2.011636 0,-1e-6 -1.847529,-0.02369 -0.12891,1.185498 0,0 1.240562,0.60024 2.101615,2.8534 0,0 1.110075,3.793187 6.375161,2.615128 0.0082,1.434413 0.01832,2.360644 0.02148,2.92371 1.242099,0.241349 2.504301,0.36429 3.769631,0.367169 1.903793,-0.0038 3.797295,-0.27933 5.623188,-0.818326 0.005,-0.907209 0.01758,-2.309411 0.01758,-4.505677 0,-1.818572 -0.602665,-3.008981 -1.281282,-3.611182 4.215786,-0.482477 8.64084,-2.132445 8.64084,-9.624611 0,-2.12865 -0.734172,-3.869779 -1.947315,-5.23221 0.194057,-0.493254 0.845523,-2.477745 -0.187504,-5.1619 0,0 -0.09954,-0.03335 -0.304695,-0.04297 z"
     style="opacity:0.2;fill:#000000;fill-opacity:1;stroke:none" />
  <path
     style="opacity:1;fill:#ffffff;fill-opacity:1;stroke:none"
     d="m 34.560486,14.003127 c -0.615454,-0.02886 -2.350279,0.10517 -5.060675,1.997966 -2.903323,-0.878837 -6.01791,-1.014577 -9.500239,0 -2.712142,-1.892796 -4.096743,-2.025196 -4.71301,-1.996013 -0.205422,0.0097 -0.304695,0.04102 -0.304695,0.04102 -1.030708,2.684155 -0.378815,4.668646 -0.183598,5.1619 -1.21082,1.362431 -1.951221,3.10356 -1.951221,5.23221 0,7.473012 4.42026,9.146226 8.623264,9.638282 -0.540335,0.487267 -1.029223,1.3498 -1.201202,2.60927 -1.078348,0.499237 -3.821497,1.35884 -5.509904,-1.621029 0,0 -0.998616,-1.873956 -2.898511,-2.011636 0,-1e-6 -1.847529,-0.02369 -0.12891,1.185498 0,0 1.240562,0.60024 2.101615,2.8534 0,0 1.110075,3.793187 6.375161,2.615128 0.0082,1.434413 0.01832,2.360644 0.02148,2.92371 1.242099,0.241349 2.504301,0.36429 3.769631,0.367169 1.903793,-0.0038 3.797295,-0.27933 5.623188,-0.818326 0.005,-0.907209 0.01758,-2.309411 0.01758,-4.505677 0,-1.818572 -0.602665,-3.008981 -1.281282,-3.611182 4.215786,-0.482477 8.64084,-2.132445 8.64084,-9.624611 0,-2.12865 -0.734172,-3.869779 -1.947315,-5.23221 0.194057,-0.493254 0.845523,-2.477745 -0.187504,-5.1619 0,0 -0.09954,-0.03335 -0.304695,-0.04297 z"
     id="rect4203"
     inkscape:connector-curvature="0"
     sodipodi:nodetypes="scccccsccccccccccscsccs" />
  <path
     style="opacity:0.2;fill:#ffffff;fill-opacity:1;stroke:none"
     d="M 24,4 C 12.920985,4 4.0017776,12.92 4.0017776,24 c 0,0.16772 -0.004,0.33329 0,0.5 C 4.2661941,13.65365 13.08869,5 24,5 c 10.91131,0 19.733806,8.65365 19.998222,19.5 0.004,-0.16671 0,-0.33228 0,-0.5 C 43.998222,12.92 35.079015,4 24,4 Z"
     id="rect4063"
     inkscape:connector-curvature="0" />
</svg>
