<?xml version="1.0" encoding="UTF-8" standalone="no"?>
<!-- Created with Inkscape (http://www.inkscape.org/) -->

<svg
   xmlns:dc="http://purl.org/dc/elements/1.1/"
   xmlns:cc="http://creativecommons.org/ns#"
   xmlns:rdf="http://www.w3.org/1999/02/22-rdf-syntax-ns#"
   xmlns:svg="http://www.w3.org/2000/svg"
   xmlns="http://www.w3.org/2000/svg"
   xmlns:xlink="http://www.w3.org/1999/xlink"
   xmlns:sodipodi="http://sodipodi.sourceforge.net/DTD/sodipodi-0.dtd"
   xmlns:inkscape="http://www.inkscape.org/namespaces/inkscape"
   id="svg2817"
   height="48"
   width="48"
   version="1.0"
   inkscape:version="0.91 r"
   sodipodi:docname="spotify-client.svg">
  <metadata
     id="metadata57">
    <rdf:RDF>
      <cc:Work
         rdf:about="">
        <dc:format>image/svg+xml</dc:format>
        <dc:type
           rdf:resource="http://purl.org/dc/dcmitype/StillImage" />
        <dc:title />
      </cc:Work>
    </rdf:RDF>
  </metadata>
  <sodipodi:namedview
     pagecolor="#ffffff"
     bordercolor="#666666"
     borderopacity="1"
     objecttolerance="10"
     gridtolerance="10"
     guidetolerance="10"
     inkscape:pageopacity="0"
     inkscape:pageshadow="2"
     inkscape:window-width="1600"
     inkscape:window-height="840"
     id="namedview55"
     showgrid="false"
     inkscape:zoom="11.42"
     inkscape:cx="9.0101764"
     inkscape:cy="24.489728"
     inkscape:window-x="-4"
     inkscape:window-y="34"
     inkscape:window-maximized="1"
     inkscape:current-layer="svg2817" />
  <defs
     id="defs2819">
    <linearGradient
       id="linearGradient2815"
       y2="17.5"
       spreadMethod="reflect"
       gradientUnits="userSpaceOnUse"
       x2="3.0052"
       y1="17.5"
       x1="44.995">
      <stop
         id="stop3277"
         style="stop-color:#fff;stop-opacity:0"
         offset="0" />
      <stop
         id="stop3283"
         style="stop-color:#fff"
         offset=".245" />
      <stop
         id="stop3285"
         style="stop-color:#fff"
         offset=".77350" />
      <stop
         id="stop3279"
         style="stop-color:#fff;stop-opacity:0"
         offset="1" />
    </linearGradient>
    <linearGradient
       id="linearGradient2813"
       y2="8"
       gradientUnits="userSpaceOnUse"
       x2="26"
       y1="22"
       x1="26">
      <stop
         id="stop3829"
         style="stop-color:#fff"
         offset="0" />
      <stop
         id="stop4295"
         style="stop-color:#fff"
         offset=".30213" />
      <stop
         id="stop4293"
         style="stop-color:#fff;stop-opacity:.69020"
         offset=".34361" />
      <stop
         id="stop3832"
         style="stop-color:#fff;stop-opacity:0"
         offset="1" />
    </linearGradient>
    <linearGradient
       id="linearGradient2811"
       y2="45.934"
       gradientUnits="userSpaceOnUse"
       x2="43.007"
       gradientTransform="matrix(1.2822 0 0 1.1747 -6.0702 -5.3032)"
       y1="30.555"
       x1="23.452">
      <stop
         id="stop4561"
         style="stop-color:#fff;stop-opacity:0"
         offset="0" />
      <stop
         id="stop4563"
         style="stop-color:#fff;stop-opacity:0"
         offset="1" />
    </linearGradient>
    <linearGradient
       id="linearGradient2809"
       y2="45.042"
       gradientUnits="userSpaceOnUse"
       x2="15.464"
       y1="7.9757"
       x1="15.464">
      <stop
         id="stop3297"
         style="stop-color:#c9af8b"
         offset="0" />
      <stop
         id="stop3299"
         style="stop-color:#ad8757"
         offset=".23942" />
      <stop
         id="stop3301"
         style="stop-color:#c2a57f"
         offset=".27582" />
      <stop
         id="stop3303"
         style="stop-color:#9d7d53"
         offset="1" />
    </linearGradient>
    <linearGradient
       id="linearGradient2807"
       y2="37.277"
       gradientUnits="userSpaceOnUse"
       x2="24.997"
       gradientTransform="matrix(1.2822 0 0 1.5573 -6.0702 -15.291)"
       y1="15.378"
       x1="24.823">
      <stop
         id="stop3201"
         style="stop-color:#dac197"
         offset="0" />
      <stop
         id="stop3203"
         style="stop-color:#c1a581"
         offset=".23942" />
      <stop
         id="stop3205"
         style="stop-color:#dbc298"
         offset=".27582" />
      <stop
         id="stop3207"
         style="stop-color:#a68b60"
         offset="1" />
    </linearGradient>
    <radialGradient
       id="radialGradient2805"
       xlink:href="#linearGradient3681"
       gradientUnits="userSpaceOnUse"
       cy="41.5"
       cx="5"
       gradientTransform="matrix(.59382 0 0 1.5367 41.141 -103.94)"
       r="5" />
    <linearGradient
       id="linearGradient2803"
       y2="35"
       gradientUnits="userSpaceOnUse"
       x2="17.554"
       gradientTransform="matrix(1.757 0 0 1.397 -17.394 -16.412)"
       y1="46"
       x1="17.554">
      <stop
         id="stop3705"
         style="stop-opacity:0"
         offset="0" />
      <stop
         id="stop3711"
         offset=".5" />
      <stop
         id="stop3707"
         style="stop-opacity:0"
         offset="1" />
    </linearGradient>
    <linearGradient
       id="linearGradient3681">
      <stop
         id="stop3683"
         offset="0" />
      <stop
         id="stop3685"
         style="stop-opacity:0"
         offset="1" />
    </linearGradient>
    <radialGradient
       id="radialGradient2801"
       xlink:href="#linearGradient3681"
       gradientUnits="userSpaceOnUse"
       cy="41.5"
       cx="5"
       gradientTransform="matrix(.59382 0 0 1.5367 -6.6595 -103.94)"
       r="5" />
    <linearGradient
       id="linearGradient2789"
       y2="25.411"
       gradientUnits="userSpaceOnUse"
       x2="57.726"
       gradientTransform="matrix(0 .71282 -.67402 0 50.746 15.046)"
       y1="25.411"
       x1="13.472">
      <stop
         id="stop4224"
         style="stop-color:#fff"
         offset="0" />
      <stop
         id="stop4226"
         style="stop-color:#fff;stop-opacity:0"
         offset="1" />
    </linearGradient>
    <linearGradient
       id="linearGradient2787"
       y2="20.71"
       gradientUnits="userSpaceOnUse"
       x2=".81572"
       gradientTransform="matrix(0 -.61460 -.58384 0 46.949 46.633)"
       y1="20.71"
       x1="28.315">
      <stop
         id="stop2266"
         style="stop-color:#d7e866"
         offset="0" />
      <stop
         id="stop2268"
         style="stop-color:#8cab2a"
         offset="1" />
    </linearGradient>
    <radialGradient
       r="5"
       gradientTransform="matrix(.59382 0 0 1.5367 41.141 -103.94)"
       cx="5"
       cy="41.5"
       gradientUnits="userSpaceOnUse"
       xlink:href="#linearGradient3681"
       id="radialGradient2805-9" />
    <radialGradient
       r="5"
       gradientTransform="matrix(.59382 0 0 1.5367 -6.6595 -103.94)"
       cx="5"
       cy="41.5"
       gradientUnits="userSpaceOnUse"
       xlink:href="#linearGradient3681"
       id="radialGradient2801-3" />
    <linearGradient
       gradientTransform="matrix(0,0.7805424,-0.7617909,0,28.873684,-37.749634)"
       gradientUnits="userSpaceOnUse"
       xlink:href="#linearGradient3678"
       id="linearGradient2390"
       y2="11.648451"
       x2="73.986542"
       y1="11.648451"
       x1="50.925655" />
    <linearGradient
       gradientTransform="translate(-2,-1)"
       gradientUnits="userSpaceOnUse"
       xlink:href="#linearGradient3678"
       id="linearGradient2393"
       y2="21"
       x2="9"
       y1="3"
       x1="9" />
    <linearGradient
       gradientUnits="userSpaceOnUse"
       xlink:href="#linearGradient3678"
       id="linearGradient3692"
       y2="20"
       x2="15"
       y1="8"
       x1="15" />
    <linearGradient
       gradientUnits="userSpaceOnUse"
       xlink:href="#linearGradient3678"
       id="linearGradient3684"
       y2="15"
       x2="9.311203"
       y1="3"
       x1="9.1701241" />
    <linearGradient
       id="linearGradient3678">
      <stop
         offset="0"
         style="stop-color:#ffffff;stop-opacity:1"
         id="stop3680" />
      <stop
         offset="1"
         style="stop-color:#e6e6e6;stop-opacity:1"
         id="stop3682" />
    </linearGradient>
    <linearGradient
       gradientTransform="translate(-22.566265,-7.7349402)"
       gradientUnits="userSpaceOnUse"
       xlink:href="#linearGradient3678"
       id="linearGradient3640"
       y2="15"
       x2="9.311203"
       y1="3"
       x1="9.1701241" />
    <linearGradient
       gradientTransform="translate(-22.566265,-7.7349402)"
       gradientUnits="userSpaceOnUse"
       xlink:href="#linearGradient3678"
       id="linearGradient3643"
       y2="20"
       x2="15"
       y1="8"
       x1="15" />
  </defs>
  <g
     id="g4189"
     transform="translate(0,1)">
    <rect
       ry="20"
       rx="20"
       y="-44"
       x="-43"
       height="40"
       width="40"
       id="rect4203-2"
       style="fill:#64a53a;fill-opacity:1;stroke:none"
       transform="matrix(0,-1,-1,0,0,0)" />
    <path
       inkscape:connector-curvature="0"
       id="rect3436"
       d="M 24,3 C 12.92,3 4,11.92 4,23 4,23.16772 3.996,23.33329 4,23.5 4.26444,12.65365 13.08772,4 24,4 34.91228,4 43.73556,12.65365 44,23.5 44.004,23.33329 44,23.16772 44,23 44,11.92 35.08,3 24,3 Z"
       style="opacity:0.2;fill:#ffffff;fill-opacity:1;stroke:none" />
    <path
       style="opacity:0.2;fill:#000000;fill-opacity:1;stroke:none;stroke-width:2;stroke-linecap:round;stroke-linejoin:round;stroke-miterlimit:4;stroke-dasharray:none;stroke-opacity:1"
       d="m 21.085924,16 c -2.544103,-3.18e-4 -5.004137,0.260509 -7.101563,0.78125 -1.077396,0.267493 -1.157395,0.298677 -1.457031,0.550781 -0.368655,0.310235 -0.527108,0.65073 -0.527344,1.140625 -3e-4,0.60666 0.289582,1.074481 0.835938,1.34375 0.44729,0.22041 0.737124,0.212651 1.714843,-0.03516 0.988744,-0.250577 2.390115,-0.490987 3.617188,-0.621094 1.247837,-0.132183 5.185936,-0.110242 6.445312,0.03516 3.413802,0.394397 5.846997,1.043141 8.203125,2.1875 0.602853,0.292778 1.200251,0.556898 1.328125,0.585938 0.674457,0.154328 1.477624,-0.258665 1.757813,-0.902344 0.139525,-0.320452 0.126962,-0.910281 -0.02344,-1.226562 -0.185781,-0.39087 -0.565298,-0.670696 -1.574218,-1.160156 C 32.590637,17.848111 30.746256,17.22305 28.687486,16.78125 26.258216,16.259955 23.630042,16.000317 21.085924,16 Z m -0.56836,6.005859 c -0.452928,0.0067 -0.843389,0.02215 -1.107422,0.04883 -1.710844,0.172545 -3.931476,0.643335 -4.636718,0.984374 -0.741878,0.358752 -1.003943,1.362644 -0.546876,2.101563 0.17518,0.283215 0.698425,0.597656 0.996094,0.597656 0.112167,0 0.651176,-0.125519 1.199219,-0.277343 1.59872,-0.44296 2.669338,-0.587701 4.621094,-0.625 1.265176,-0.02382 1.926098,-0.0033 2.664062,0.08203 3.133397,0.36192 5.437088,1.127616 8.09375,2.691406 0.36529,0.214939 0.742554,0.390848 0.839844,0.390625 0.790797,-0.0018 1.478931,-0.82893 1.34375,-1.617188 -0.118128,-0.688446 -0.414428,-0.976169 -1.773437,-1.734374 -2.250513,-1.255569 -4.720425,-2.059825 -7.65625,-2.492188 -0.502958,-0.07399 -1.526528,-0.123951 -2.554688,-0.144531 -0.51408,-0.0105 -1.029494,-0.01253 -1.482422,-0.0059 z m 0.697266,6 c -0.362931,0.0067 -0.675466,0.02215 -0.886719,0.04883 -1.36864,0.172537 -3.146748,0.643336 -3.710937,0.984374 -0.593527,0.358751 -0.80313,1.362678 -0.4375,2.101563 0.14016,0.283219 0.558754,0.597656 0.796874,0.597656 0.08973,0 0.522505,-0.125519 0.960938,-0.277343 1.278956,-0.442955 2.133851,-0.587711 3.695312,-0.625 1.012078,-0.02381 1.542435,-0.0033 2.132813,0.08203 2.506699,0.36192 4.347323,1.127617 6.472656,2.691406 0.292201,0.21494 0.598031,0.390848 0.675781,0.390625 0.632692,-0.0018 1.178686,-0.82893 1.070313,-1.617188 -0.09449,-0.688446 -0.326835,-0.976171 -1.414063,-1.734374 -1.800396,-1.25557 -3.776403,-2.059824 -6.125,-2.492188 -0.402432,-0.07399 -1.22041,-0.123961 -2.042968,-0.144531 -0.411253,-0.0105 -0.824569,-0.01253 -1.1875,-0.0059 z"
       id="path4282"
       inkscape:connector-curvature="0"
       sodipodi:nodetypes="sscccccccccccssscscsccccccsccsscccsccccccsccs" />
    <path
       sodipodi:nodetypes="sscccccccccccssscscsccccccsccsscccsccccccsccs"
       inkscape:connector-curvature="0"
       id="rect4210"
       d="m 21.085938,15 c -2.544103,-3.18e-4 -5.004137,0.260509 -7.101563,0.78125 -1.077396,0.267493 -1.157395,0.298677 -1.457031,0.550781 -0.368655,0.310235 -0.527108,0.65073 -0.527344,1.140625 -3e-4,0.60666 0.289582,1.074481 0.835938,1.34375 0.44729,0.22041 0.737124,0.212651 1.714843,-0.03516 0.988744,-0.250577 2.390115,-0.490987 3.617188,-0.621094 1.247837,-0.132183 5.185936,-0.110242 6.445312,0.03516 3.413802,0.394397 5.846997,1.043141 8.203125,2.1875 0.602853,0.292778 1.200251,0.556898 1.328125,0.585938 0.674457,0.154328 1.477624,-0.258665 1.757813,-0.902344 0.139525,-0.320452 0.126962,-0.910281 -0.02344,-1.226562 -0.185781,-0.39087 -0.565298,-0.670696 -1.574218,-1.160156 C 32.590651,16.848111 30.74627,16.22305 28.6875,15.78125 26.25823,15.259955 23.630056,15.000317 21.085938,15 Z m -0.56836,6.005859 c -0.452928,0.0067 -0.843389,0.02215 -1.107422,0.04883 -1.710844,0.172545 -3.931476,0.643335 -4.636718,0.984374 -0.741878,0.358752 -1.003943,1.362644 -0.546876,2.101563 0.17518,0.283215 0.698425,0.597656 0.996094,0.597656 0.112167,0 0.651176,-0.125519 1.199219,-0.277343 1.59872,-0.44296 2.669338,-0.587701 4.621094,-0.625 1.265176,-0.02382 1.926098,-0.0033 2.664062,0.08203 3.133397,0.36192 5.437088,1.127616 8.09375,2.691406 0.36529,0.214939 0.742554,0.390848 0.839844,0.390625 0.790797,-0.0018 1.478931,-0.82893 1.34375,-1.617188 C 33.866247,24.694366 33.569947,24.406643 32.210938,23.648438 29.960425,22.392869 27.490513,21.588613 24.554688,21.15625 24.05173,21.082257 23.02816,21.032299 22,21.011719 c -0.51408,-0.0105 -1.029494,-0.01253 -1.482422,-0.0059 z m 0.697266,6 c -0.362931,0.0067 -0.675466,0.02215 -0.886719,0.04883 -1.36864,0.172537 -3.146748,0.643336 -3.710937,0.984374 -0.593527,0.358751 -0.80313,1.362678 -0.4375,2.101563 0.14016,0.283219 0.558754,0.597656 0.796874,0.597656 0.08973,0 0.522505,-0.125519 0.960938,-0.277343 1.278956,-0.442955 2.133851,-0.587711 3.695312,-0.625 1.012078,-0.02381 1.542435,-0.0033 2.132813,0.08203 2.506699,0.36192 4.347323,1.127617 6.472656,2.691406 0.292201,0.21494 0.598031,0.390848 0.675781,0.390625 0.632692,-0.0018 1.178686,-0.82893 1.070313,-1.617188 -0.09449,-0.688446 -0.326835,-0.976171 -1.414063,-1.734374 -1.800396,-1.25557 -3.776403,-2.059824 -6.125,-2.492188 -0.402432,-0.07399 -1.22041,-0.123961 -2.042968,-0.144531 -0.411253,-0.0105 -0.824569,-0.01253 -1.1875,-0.0059 z"
       style="opacity:1;fill:#ffffff;fill-opacity:1;stroke:none;stroke-width:2;stroke-linecap:round;stroke-linejoin:round;stroke-miterlimit:4;stroke-dasharray:none;stroke-opacity:1" />
    <path
       inkscape:connector-curvature="0"
       id="rect4209"
       d="M 4.0117188,22.5 C 4.007647,22.666859 4,22.832126 4,23 4,34.08 12.92,43 24,43 35.08,43 44,34.08 44,23 44,22.832126 43.9924,22.666859 43.98828,22.5 43.72361,33.346137 34.912126,42 24,42 13.087874,42 4.2763904,33.346137 4.0117188,22.5 Z"
       style="opacity:0.3;fill:#000000;fill-opacity:1;stroke:none" />
  </g>
</svg>
