<?xml version="1.0" encoding="UTF-8" standalone="no"?>
<!-- Created with Inkscape (http://www.inkscape.org/) -->

<svg
   xmlns:dc="http://purl.org/dc/elements/1.1/"
   xmlns:cc="http://creativecommons.org/ns#"
   xmlns:rdf="http://www.w3.org/1999/02/22-rdf-syntax-ns#"
   xmlns:svg="http://www.w3.org/2000/svg"
   xmlns="http://www.w3.org/2000/svg"
   xmlns:xlink="http://www.w3.org/1999/xlink"
   xmlns:sodipodi="http://sodipodi.sourceforge.net/DTD/sodipodi-0.dtd"
   xmlns:inkscape="http://www.inkscape.org/namespaces/inkscape"
   id="svg2817"
   height="48"
   width="48"
   version="1.0"
   inkscape:version="0.91 r"
   sodipodi:docname="tor.svg">
  <metadata
     id="metadata57">
    <rdf:RDF>
      <cc:Work
         rdf:about="">
        <dc:format>image/svg+xml</dc:format>
        <dc:type
           rdf:resource="http://purl.org/dc/dcmitype/StillImage" />
        <dc:title></dc:title>
      </cc:Work>
    </rdf:RDF>
  </metadata>
  <sodipodi:namedview
     pagecolor="#ffffff"
     bordercolor="#666666"
     borderopacity="1"
     objecttolerance="10"
     gridtolerance="10"
     guidetolerance="10"
     inkscape:pageopacity="0"
     inkscape:pageshadow="2"
     inkscape:window-width="1600"
     inkscape:window-height="842"
     id="namedview55"
     showgrid="false"
     inkscape:zoom="1.32"
     inkscape:cx="30.266691"
     inkscape:cy="37.538218"
     inkscape:window-x="-4"
     inkscape:window-y="32"
     inkscape:window-maximized="1"
     inkscape:current-layer="svg2817" />
  <defs
     id="defs2819">
    <linearGradient
       id="linearGradient2815"
       y2="17.5"
       spreadMethod="reflect"
       gradientUnits="userSpaceOnUse"
       x2="3.0052"
       y1="17.5"
       x1="44.995">
      <stop
         id="stop3277"
         style="stop-color:#fff;stop-opacity:0"
         offset="0" />
      <stop
         id="stop3283"
         style="stop-color:#fff"
         offset=".245" />
      <stop
         id="stop3285"
         style="stop-color:#fff"
         offset=".77350" />
      <stop
         id="stop3279"
         style="stop-color:#fff;stop-opacity:0"
         offset="1" />
    </linearGradient>
    <linearGradient
       id="linearGradient2813"
       y2="8"
       gradientUnits="userSpaceOnUse"
       x2="26"
       y1="22"
       x1="26">
      <stop
         id="stop3829"
         style="stop-color:#fff"
         offset="0" />
      <stop
         id="stop4295"
         style="stop-color:#fff"
         offset=".30213" />
      <stop
         id="stop4293"
         style="stop-color:#fff;stop-opacity:.69020"
         offset=".34361" />
      <stop
         id="stop3832"
         style="stop-color:#fff;stop-opacity:0"
         offset="1" />
    </linearGradient>
    <linearGradient
       id="linearGradient2811"
       y2="45.934"
       gradientUnits="userSpaceOnUse"
       x2="43.007"
       gradientTransform="matrix(1.2822 0 0 1.1747 -6.0702 -5.3032)"
       y1="30.555"
       x1="23.452">
      <stop
         id="stop4561"
         style="stop-color:#fff;stop-opacity:0"
         offset="0" />
      <stop
         id="stop4563"
         style="stop-color:#fff;stop-opacity:0"
         offset="1" />
    </linearGradient>
    <linearGradient
       id="linearGradient2809"
       y2="45.042"
       gradientUnits="userSpaceOnUse"
       x2="15.464"
       y1="7.9757"
       x1="15.464">
      <stop
         id="stop3297"
         style="stop-color:#c9af8b"
         offset="0" />
      <stop
         id="stop3299"
         style="stop-color:#ad8757"
         offset=".23942" />
      <stop
         id="stop3301"
         style="stop-color:#c2a57f"
         offset=".27582" />
      <stop
         id="stop3303"
         style="stop-color:#9d7d53"
         offset="1" />
    </linearGradient>
    <linearGradient
       id="linearGradient2807"
       y2="37.277"
       gradientUnits="userSpaceOnUse"
       x2="24.997"
       gradientTransform="matrix(1.2822 0 0 1.5573 -6.0702 -15.291)"
       y1="15.378"
       x1="24.823">
      <stop
         id="stop3201"
         style="stop-color:#dac197"
         offset="0" />
      <stop
         id="stop3203"
         style="stop-color:#c1a581"
         offset=".23942" />
      <stop
         id="stop3205"
         style="stop-color:#dbc298"
         offset=".27582" />
      <stop
         id="stop3207"
         style="stop-color:#a68b60"
         offset="1" />
    </linearGradient>
    <radialGradient
       id="radialGradient2805"
       xlink:href="#linearGradient3681"
       gradientUnits="userSpaceOnUse"
       cy="41.5"
       cx="5"
       gradientTransform="matrix(.59382 0 0 1.5367 41.141 -103.94)"
       r="5" />
    <linearGradient
       id="linearGradient2803"
       y2="35"
       gradientUnits="userSpaceOnUse"
       x2="17.554"
       gradientTransform="matrix(1.757 0 0 1.397 -17.394 -16.412)"
       y1="46"
       x1="17.554">
      <stop
         id="stop3705"
         style="stop-opacity:0"
         offset="0" />
      <stop
         id="stop3711"
         offset=".5" />
      <stop
         id="stop3707"
         style="stop-opacity:0"
         offset="1" />
    </linearGradient>
    <linearGradient
       id="linearGradient3681">
      <stop
         id="stop3683"
         offset="0" />
      <stop
         id="stop3685"
         style="stop-opacity:0"
         offset="1" />
    </linearGradient>
    <radialGradient
       id="radialGradient2801"
       xlink:href="#linearGradient3681"
       gradientUnits="userSpaceOnUse"
       cy="41.5"
       cx="5"
       gradientTransform="matrix(.59382 0 0 1.5367 -6.6595 -103.94)"
       r="5" />
    <linearGradient
       id="linearGradient2789"
       y2="25.411"
       gradientUnits="userSpaceOnUse"
       x2="57.726"
       gradientTransform="matrix(0 .71282 -.67402 0 50.746 15.046)"
       y1="25.411"
       x1="13.472">
      <stop
         id="stop4224"
         style="stop-color:#fff"
         offset="0" />
      <stop
         id="stop4226"
         style="stop-color:#fff;stop-opacity:0"
         offset="1" />
    </linearGradient>
    <linearGradient
       id="linearGradient2787"
       y2="20.71"
       gradientUnits="userSpaceOnUse"
       x2=".81572"
       gradientTransform="matrix(0 -.61460 -.58384 0 46.949 46.633)"
       y1="20.71"
       x1="28.315">
      <stop
         id="stop2266"
         style="stop-color:#d7e866"
         offset="0" />
      <stop
         id="stop2268"
         style="stop-color:#8cab2a"
         offset="1" />
    </linearGradient>
    <radialGradient
       r="5"
       gradientTransform="matrix(.59382 0 0 1.5367 41.141 -103.94)"
       cx="5"
       cy="41.5"
       gradientUnits="userSpaceOnUse"
       xlink:href="#linearGradient3681"
       id="radialGradient2805-9" />
    <radialGradient
       r="5"
       gradientTransform="matrix(.59382 0 0 1.5367 -6.6595 -103.94)"
       cx="5"
       cy="41.5"
       gradientUnits="userSpaceOnUse"
       xlink:href="#linearGradient3681"
       id="radialGradient2801-3" />
  </defs>
  <path
     style="opacity:0.1;fill:#ffffff;fill-opacity:1;stroke:none"
     d="m 75.530253,5.4393019 c -11.08,0 -20,8.9200001 -20,20.0000001 0,0.16772 -0.004,0.33329 0,0.5 0.26444,-10.84635 9.08772,-19.5000001 20,-19.5000001 10.91228,0 19.73556,8.6536501 20,19.5000001 0.004,-0.16671 0,-0.33228 0,-0.5 0,-11.08 -8.92,-20.0000001 -20,-20.0000001 z"
     id="rect3436"
     inkscape:connector-curvature="0" />
  <g
     id="g4197"
     transform="matrix(1.351216,0,0,1.3050632,-49.31748,4.6083806)" />
  <g
     id="g4201"
     transform="matrix(1.1860054,0,0,1.1443836,-39.007906,5.6969499)" />
  <path
     inkscape:connector-curvature="0"
     id="path4214"
     d="m 20.763673,15 -0.382531,0.297504 c 1.915525,3.481899 0.913436,5.327185 -0.02965,5.98203 -1.915525,1.339327 -4.714986,3.006248 -6.099741,4.46456 -2.681692,2.76778 -3.44731,5.416052 -3.211483,8.898169 0.265171,4.464493 3.477065,8.184618 7.779123,9.642928 C 20.705139,44.9104 22.44346,45 24.38833,45 c 3.123572,0 6.334954,-0.83402 8.662798,-2.798336 2.475211,-2.083298 3.94887,-5.20798 3.94887,-8.451914 0,-3.273787 -1.355317,-6.368433 -3.742281,-8.570716 -1.267166,-1.160632 -2.858191,-2.113273 -4.508334,-3.03594 -0.736607,-0.416878 -3.006001,-2.202612 -2.239834,-4.762063 l -2.59271,-0.357405 0.212516,0.106822 L 23.564949,16.893843 20.763675,15 Z m 3.755131,2.32812 9.91e-4,0 c 0.01325,0.462794 0.01134,0.912343 0.0079,1.347753 -0.0095,-0.550764 -0.0089,-1.047225 -0.0088,-1.347753 z"
     style="opacity:0.5;fill:#000000;fill-opacity:1;fill-rule:evenodd;stroke:none" />
  <path
     style="fill:#abcd03;fill-rule:evenodd;stroke:none"
     id="path2554"
     d="M 24.13288,7.5859195 24.0695,12.566974 C 25.635525,9.5589082 27.229428,5.995708 30.085364,4 27.997262,6.3529338 26.986822,10.005767 25.819894,12.358701 27.785233,9.6779835 31.021525,6.1671621 34,5.1842473 30.038744,8.6095116 26.298968,14.306707 23.903732,18 L 22,17.195916 c 0.337488,-2.948746 0.443867,-6.690911 2.132875,-9.6099965 z"
     inkscape:connector-curvature="0"
     sodipodi:nodetypes="cccccccc" />
  <path
     style="fill:#ffffff;fill-rule:evenodd;stroke:none;fill-opacity:1;opacity:0.2"
     d="M 30.085938 4 C 27.23787 5.9902094 25.645857 9.5382031 24.083984 12.541016 L 24.070312 13.566406 C 25.303535 11.197597 26.5631 8.4973093 28.433594 6.4765625 C 28.90855 5.5805447 29.442381 4.7251779 30.085938 4 z M 34 5.1835938 C 31.478729 6.0156285 28.779862 8.6562508 26.816406 11.074219 C 26.479736 11.898142 26.153744 12.687061 25.820312 13.359375 C 27.324815 11.307238 29.574526 8.778387 31.882812 7.2597656 C 32.578635 6.5162779 33.283006 5.8035724 34 5.1835938 z M 24.132812 7.5859375 C 22.443805 10.505023 22.337488 14.246567 22 17.195312 L 22.097656 17.236328 C 22.374167 14.468347 22.616503 11.226435 24.119141 8.6113281 L 24.132812 7.5859375 z "
     id="path4209" />
  <path
     style="fill:#7d529d;fill-opacity:1;fill-rule:evenodd;stroke:none"
     d="m 20.763673,14 -0.382531,0.297504 c 1.915525,3.481899 0.913436,5.327185 -0.02965,5.98203 -1.915525,1.339327 -4.714986,3.006248 -6.099741,4.46456 -2.681692,2.76778 -3.44731,5.416052 -3.211483,8.898169 0.265171,4.464493 3.477065,8.184618 7.779123,9.642928 C 20.705139,43.9104 22.44346,44 24.38833,44 c 3.123572,0 6.334954,-0.83402 8.662798,-2.798336 2.475211,-2.083298 3.94887,-5.20798 3.94887,-8.451914 0,-3.273787 -1.355317,-6.368433 -3.742281,-8.570716 -1.267166,-1.160632 -2.858191,-2.113273 -4.508334,-3.03594 -0.736607,-0.416878 -3.006001,-2.202612 -2.239834,-4.762063 l -2.59271,-0.357405 0.212516,0.106822 L 23.564949,15.893843 20.763675,14 Z m 3.755131,2.32812 9.91e-4,0 c 0.01325,0.462794 0.01134,0.912343 0.0079,1.347753 -0.0095,-0.550764 -0.0089,-1.047225 -0.0088,-1.347753 z"
     id="path2534"
     inkscape:connector-curvature="0" />
  <path
     style="fill:#ffffff;fill-opacity:1;fill-rule:evenodd;stroke:none;opacity:0.2"
     d="M 20.763672 14 L 20.380859 14.296875 C 20.522902 14.555069 20.617346 14.786966 20.728516 15.027344 L 20.763672 15 L 23.564453 16.894531 L 24.128906 17.130859 L 23.916016 17.023438 L 24.523438 17.107422 L 26.357422 17.359375 C 26.362555 17.047313 26.407711 16.721784 26.509766 16.380859 L 23.916016 16.023438 L 24.128906 16.130859 L 23.564453 15.894531 L 20.763672 14 z M 24.519531 17.328125 C 24.532781 17.790919 24.530784 18.240371 24.527344 18.675781 C 24.517844 18.125017 24.519431 17.628653 24.519531 17.328125 z M 26.394531 17.902344 C 26.053945 20.180985 28.064621 21.754692 28.75 22.142578 C 30.400143 23.065245 31.990647 24.019056 33.257812 25.179688 C 35.516624 27.263733 36.835822 30.148689 36.972656 33.226562 C 36.979756 33.067406 37 32.909846 37 32.75 C 37 29.476213 35.644776 26.38197 33.257812 24.179688 C 31.990647 23.019056 30.400143 22.065245 28.75 21.142578 C 28.170256 20.814476 26.646015 19.636152 26.394531 17.902344 z M 21.433594 18.363281 C 21.301624 19.332994 20.820665 19.953569 20.351562 20.279297 C 18.436038 21.618624 15.636708 23.285829 14.251953 24.744141 C 11.738906 27.337862 10.91996 29.835518 11.019531 33.003906 C 11.116482 30.297488 12.008475 28.059639 14.251953 25.744141 C 15.636708 24.285829 18.436038 22.618624 20.351562 21.279297 C 20.964089 20.853981 21.586825 19.91519 21.433594 18.363281 z "
     id="path4199" />
</svg>
