<?xml version="1.0" encoding="UTF-8" standalone="no"?>
<!-- Created with Inkscape (http://www.inkscape.org/) -->

<svg
   xmlns:dc="http://purl.org/dc/elements/1.1/"
   xmlns:cc="http://creativecommons.org/ns#"
   xmlns:rdf="http://www.w3.org/1999/02/22-rdf-syntax-ns#"
   xmlns:svg="http://www.w3.org/2000/svg"
   xmlns="http://www.w3.org/2000/svg"
   xmlns:xlink="http://www.w3.org/1999/xlink"
   xmlns:sodipodi="http://sodipodi.sourceforge.net/DTD/sodipodi-0.dtd"
   xmlns:inkscape="http://www.inkscape.org/namespaces/inkscape"
   id="svg2817"
   height="48"
   width="48"
   version="1.0"
   inkscape:version="0.91 r13725"
   sodipodi:docname="my-weather-indicator.svg">
  <metadata
     id="metadata57">
    <rdf:RDF>
      <cc:Work
         rdf:about="">
        <dc:format>image/svg+xml</dc:format>
        <dc:type
           rdf:resource="http://purl.org/dc/dcmitype/StillImage" />
        <dc:title />
      </cc:Work>
    </rdf:RDF>
  </metadata>
  <sodipodi:namedview
     pagecolor="#ffffff"
     bordercolor="#666666"
     borderopacity="1"
     objecttolerance="10"
     gridtolerance="10"
     guidetolerance="10"
     inkscape:pageopacity="0"
     inkscape:pageshadow="2"
     inkscape:window-width="1600"
     inkscape:window-height="844"
     id="namedview55"
     showgrid="false"
     inkscape:zoom="1.42"
     inkscape:cx="-14.506566"
     inkscape:cy="27.401437"
     inkscape:window-x="-4"
     inkscape:window-y="32"
     inkscape:window-maximized="1"
     inkscape:current-layer="svg2817" />
  <defs
     id="defs2819">
    <linearGradient
       id="linearGradient2815"
       y2="17.5"
       spreadMethod="reflect"
       gradientUnits="userSpaceOnUse"
       x2="3.0052"
       y1="17.5"
       x1="44.995">
      <stop
         id="stop3277"
         style="stop-color:#fff;stop-opacity:0"
         offset="0" />
      <stop
         id="stop3283"
         style="stop-color:#fff"
         offset=".245" />
      <stop
         id="stop3285"
         style="stop-color:#fff"
         offset=".77350" />
      <stop
         id="stop3279"
         style="stop-color:#fff;stop-opacity:0"
         offset="1" />
    </linearGradient>
    <linearGradient
       id="linearGradient2813"
       y2="8"
       gradientUnits="userSpaceOnUse"
       x2="26"
       y1="22"
       x1="26">
      <stop
         id="stop3829"
         style="stop-color:#fff"
         offset="0" />
      <stop
         id="stop4295"
         style="stop-color:#fff"
         offset=".30213" />
      <stop
         id="stop4293"
         style="stop-color:#fff;stop-opacity:.69020"
         offset=".34361" />
      <stop
         id="stop3832"
         style="stop-color:#fff;stop-opacity:0"
         offset="1" />
    </linearGradient>
    <linearGradient
       id="linearGradient2811"
       y2="45.934"
       gradientUnits="userSpaceOnUse"
       x2="43.007"
       gradientTransform="matrix(1.2822 0 0 1.1747 -6.0702 -5.3032)"
       y1="30.555"
       x1="23.452">
      <stop
         id="stop4561"
         style="stop-color:#fff;stop-opacity:0"
         offset="0" />
      <stop
         id="stop4563"
         style="stop-color:#fff;stop-opacity:0"
         offset="1" />
    </linearGradient>
    <linearGradient
       id="linearGradient2809"
       y2="45.042"
       gradientUnits="userSpaceOnUse"
       x2="15.464"
       y1="7.9757"
       x1="15.464">
      <stop
         id="stop3297"
         style="stop-color:#c9af8b"
         offset="0" />
      <stop
         id="stop3299"
         style="stop-color:#ad8757"
         offset=".23942" />
      <stop
         id="stop3301"
         style="stop-color:#c2a57f"
         offset=".27582" />
      <stop
         id="stop3303"
         style="stop-color:#9d7d53"
         offset="1" />
    </linearGradient>
    <linearGradient
       id="linearGradient2807"
       y2="37.277"
       gradientUnits="userSpaceOnUse"
       x2="24.997"
       gradientTransform="matrix(1.2822 0 0 1.5573 -6.0702 -15.291)"
       y1="15.378"
       x1="24.823">
      <stop
         id="stop3201"
         style="stop-color:#dac197"
         offset="0" />
      <stop
         id="stop3203"
         style="stop-color:#c1a581"
         offset=".23942" />
      <stop
         id="stop3205"
         style="stop-color:#dbc298"
         offset=".27582" />
      <stop
         id="stop3207"
         style="stop-color:#a68b60"
         offset="1" />
    </linearGradient>
    <radialGradient
       id="radialGradient2805"
       xlink:href="#linearGradient3681"
       gradientUnits="userSpaceOnUse"
       cy="41.5"
       cx="5"
       gradientTransform="matrix(.59382 0 0 1.5367 41.141 -103.94)"
       r="5" />
    <linearGradient
       id="linearGradient2803"
       y2="35"
       gradientUnits="userSpaceOnUse"
       x2="17.554"
       gradientTransform="matrix(1.757 0 0 1.397 -17.394 -16.412)"
       y1="46"
       x1="17.554">
      <stop
         id="stop3705"
         style="stop-opacity:0"
         offset="0" />
      <stop
         id="stop3711"
         offset=".5" />
      <stop
         id="stop3707"
         style="stop-opacity:0"
         offset="1" />
    </linearGradient>
    <linearGradient
       id="linearGradient3681">
      <stop
         id="stop3683"
         offset="0" />
      <stop
         id="stop3685"
         style="stop-opacity:0"
         offset="1" />
    </linearGradient>
    <radialGradient
       id="radialGradient2801"
       xlink:href="#linearGradient3681"
       gradientUnits="userSpaceOnUse"
       cy="41.5"
       cx="5"
       gradientTransform="matrix(.59382 0 0 1.5367 -6.6595 -103.94)"
       r="5" />
    <linearGradient
       id="linearGradient2789"
       y2="25.411"
       gradientUnits="userSpaceOnUse"
       x2="57.726"
       gradientTransform="matrix(0 .71282 -.67402 0 50.746 15.046)"
       y1="25.411"
       x1="13.472">
      <stop
         id="stop4224"
         style="stop-color:#fff"
         offset="0" />
      <stop
         id="stop4226"
         style="stop-color:#fff;stop-opacity:0"
         offset="1" />
    </linearGradient>
    <linearGradient
       id="linearGradient2787"
       y2="20.71"
       gradientUnits="userSpaceOnUse"
       x2=".81572"
       gradientTransform="matrix(0 -.61460 -.58384 0 46.949 46.633)"
       y1="20.71"
       x1="28.315">
      <stop
         id="stop2266"
         style="stop-color:#d7e866"
         offset="0" />
      <stop
         id="stop2268"
         style="stop-color:#8cab2a"
         offset="1" />
    </linearGradient>
    <clipPath
       clipPathUnits="userSpaceOnUse"
       id="clipPath4286">
      <path
         style="display:inline;fill:#d8d8d8;fill-opacity:1;stroke:none;enable-background:new"
         d="m 160,242.75 c -5.69545,0 -10.54546,3.48678 -12.63282,8.42188 C 142.06566,251.96003 138,256.47916 138,262 c 0,6.07514 4.92486,11 11,11 l 23.375,0 c 5.31575,0 9.625,-4.30925 9.625,-9.625 0,-4.94048 -3.71468,-8.98892 -8.50782,-9.53907 C 172.24212,247.52912 166.6739,242.75 160,242.75 Z"
         id="path4288"
         inkscape:connector-curvature="0" />
    </clipPath>
  </defs>
  <g
     id="g4227"
     style="font-style:normal;font-variant:normal;font-weight:normal;font-stretch:normal;font-size:29.80191803px;line-height:125%;font-family:'Droid Naskh Shift Alt';-inkscape-font-specification:'Droid Naskh Shift Alt';letter-spacing:0px;word-spacing:0px;fill:#ffffff;fill-opacity:1;stroke:none;stroke-width:1px;stroke-linecap:butt;stroke-linejoin:miter;stroke-opacity:1"
     transform="matrix(0.99414699,0,0,1.0058875,12.585072,-0.41623521)" />
  <g
     id="g4246"
     transform="translate(65.429135,10.674915)">
    <g
       transform="translate(-201.0917,-246.69432)"
       id="g4778">
      <path
         inkscape:connector-curvature="0"
         style="opacity:1;fill:#fec006;fill-opacity:1;stroke:none;stroke-width:0.70599997;stroke-linecap:round;stroke-linejoin:round;stroke-miterlimit:4;stroke-dasharray:none;stroke-opacity:1"
         d="M 156,165.0293 151.0293,170 144,170 144,177.0293 139.0293,182 144,186.9707 144,194 151.0293,194 156,198.9707 160.9707,194 168,194 168,186.9707 172.9707,182 168,177.0293 168,170 160.9707,170 156,165.0293 Z"
         transform="translate(0,76)"
         id="rect4772" />
      <path
         inkscape:connector-curvature="0"
         style="opacity:1;fill:#fecd38;fill-opacity:1;stroke:none;stroke-width:0.70599997;stroke-linecap:round;stroke-linejoin:round;stroke-miterlimit:4;stroke-dasharray:none;stroke-opacity:1"
         d="m 149.50586,166.32031 -2.69141,6.49414 -6.49414,2.69141 2.68946,6.49414 -2.68946,6.49414 6.49414,2.69141 2.69141,6.49414 6.49414,-2.68946 6.49414,2.68946 2.69141,-6.49414 6.49414,-2.69141 -2.68946,-6.49414 2.68946,-6.49414 -6.49414,-2.69141 -2.69141,-6.49414 -6.49414,2.68946 -6.49414,-2.68946 z"
         id="rect4774"
         transform="translate(0,76)" />
      <g
         id="g4758"
         transform="matrix(1.1666667,0,0,1.1666667,-26.000005,-40.666675)"
         style="fill:#fed96a;fill-opacity:1">
        <rect
           ry="12"
           rx="12"
           y="-168"
           x="-268"
           height="24"
           width="24"
           id="rect4203"
           style="fill:#fed96a;fill-opacity:1;stroke:none"
           transform="matrix(0,-1,-1,0,0,0)" />
      </g>
    </g>
    <path
       style="opacity:0.5;fill:#000000;fill-opacity:1;stroke:none"
       id="path4736"
       d="m -36.79587,10.31519 c -4.14214,0 -7.66942,2.53584 -9.1875,6.125 -3.85566,0.5732 -6.8125,3.85984 -6.8125,7.875 0,4.41828 3.58172,8 8,8 l 17,0 c 3.866,0 7,-3.134 7,-7 0,-3.59308 -2.70158,-6.5374 -6.1875,-6.9375 -0.90914,-4.58678 -4.95876,-8.0625 -9.8125,-8.0625 z"
       inkscape:connector-curvature="0" />
    <path
       inkscape:connector-curvature="0"
       d="m -36.79587,9.31519 c -4.14214,0 -7.66942,2.53584 -9.1875,6.125 -3.85566,0.5732 -6.8125,3.85984 -6.8125,7.875 0,4.41828 3.58172,8 8,8 l 17,0 c 3.866,0 7,-3.134 7,-7 0,-3.59308 -2.70158,-6.5374 -6.1875,-6.9375 -0.90914,-4.58678 -4.95876,-8.0625 -9.8125,-8.0625 z"
       id="path5884-5"
       style="fill:#ebebeb;fill-opacity:1;stroke:none" />
    <path
       inkscape:connector-curvature="0"
       id="path4744"
       d="m -36.79587,9.32496 c -4.14214,0 -7.66942,2.53584 -9.1875,6.125 -3.85566,0.5732 -6.8125,3.85984 -6.8125,7.875 0,0.15818 0.0163,0.31283 0.0254,0.46875 0.24391,-3.77462 3.10034,-6.80543 6.78711,-7.35352 1.51808,-3.58916 5.04536,-6.125 9.1875,-6.125 4.85374,0 8.90336,3.47572 9.8125,8.0625 3.32045,0.38111 5.92387,3.07186 6.16406,6.43164 0.0111,-0.16091 0.0234,-0.32066 0.0234,-0.48437 0,-3.59308 -2.70158,-6.5374 -6.1875,-6.9375 -0.90914,-4.58678 -4.95876,-8.0625 -9.8125,-8.0625 z"
       style="opacity:0.1;fill:#ffffff;fill-opacity:1;stroke:none" />
    <path
       inkscape:connector-curvature="0"
       id="path4786"
       d="m -45.0917,-5.66502 -2.81445,2.81445 -3.67969,-1.52344 -1.52539,3.67969 -3.98047,0 0,1 3.98047,0 1.52539,-3.67969 3.67969,1.52344 2.81445,-2.81445 2.81445,2.81445 3.67969,-1.52344 1.52539,3.67969 3.98047,0 0,-1 -3.98047,0 -1.52539,-3.67969 -3.67969,1.52344 -2.81445,-2.81445 z m -12,8.95117 -3.67969,1.52539 0.35352,0.85352 3.32617,-1.37891 0,-1 z m 24,0 0,1 3.32617,1.37891 0.35352,-0.85352 -3.67969,-1.52539 z m -26.44922,5.49805 -2.52148,2.52148 0.5,0.5 2.31445,-2.31445 -0.29297,-0.70703 z m 28.89844,0 -0.29297,0.70703 2.31445,2.31445 0.5,-0.5 -2.52148,-2.52148 z m -28.89844,6.04296 -1.23047,2.97266 0.35352,0.14648 1.16992,-2.82617 -0.29297,-0.29297 z m 28.89844,0 -0.29297,0.29297 1.16992,2.82617 0.35352,-0.14648 -1.23047,-2.97266 z"
       style="opacity:0.1;fill:#ffffff;fill-opacity:1;stroke:none;stroke-width:0.70599997;stroke-linecap:round;stroke-linejoin:round;stroke-miterlimit:4;stroke-dasharray:none;stroke-opacity:1" />
  </g>
</svg>
