<?xml version="1.0" encoding="UTF-8" standalone="no"?>
<!-- Created with Inkscape (http://www.inkscape.org/) -->

<svg
   xmlns:dc="http://purl.org/dc/elements/1.1/"
   xmlns:cc="http://creativecommons.org/ns#"
   xmlns:rdf="http://www.w3.org/1999/02/22-rdf-syntax-ns#"
   xmlns:svg="http://www.w3.org/2000/svg"
   xmlns="http://www.w3.org/2000/svg"
   xmlns:xlink="http://www.w3.org/1999/xlink"
   xmlns:sodipodi="http://sodipodi.sourceforge.net/DTD/sodipodi-0.dtd"
   xmlns:inkscape="http://www.inkscape.org/namespaces/inkscape"
   id="svg2817"
   height="32"
   width="32"
   version="1.0"
   inkscape:version="0.91 r"
   sodipodi:docname="tor.svg">
  <metadata
     id="metadata57">
    <rdf:RDF>
      <cc:Work
         rdf:about="">
        <dc:format>image/svg+xml</dc:format>
        <dc:type
           rdf:resource="http://purl.org/dc/dcmitype/StillImage" />
        <dc:title></dc:title>
      </cc:Work>
    </rdf:RDF>
  </metadata>
  <sodipodi:namedview
     pagecolor="#ffffff"
     bordercolor="#666666"
     borderopacity="1"
     objecttolerance="10"
     gridtolerance="10"
     guidetolerance="10"
     inkscape:pageopacity="0"
     inkscape:pageshadow="2"
     inkscape:window-width="1600"
     inkscape:window-height="842"
     id="namedview55"
     showgrid="false"
     inkscape:zoom="15.07"
     inkscape:cx="14.750425"
     inkscape:cy="16.692249"
     inkscape:window-x="-4"
     inkscape:window-y="32"
     inkscape:window-maximized="1"
     inkscape:current-layer="svg2817" />
  <defs
     id="defs2819">
    <linearGradient
       id="linearGradient2815"
       y2="17.5"
       spreadMethod="reflect"
       gradientUnits="userSpaceOnUse"
       x2="3.0051999"
       y1="17.5"
       x1="44.994999">
      <stop
         id="stop3277"
         style="stop-color:#fff;stop-opacity:0"
         offset="0" />
      <stop
         id="stop3283"
         style="stop-color:#fff"
         offset=".245" />
      <stop
         id="stop3285"
         style="stop-color:#fff"
         offset=".77350" />
      <stop
         id="stop3279"
         style="stop-color:#fff;stop-opacity:0"
         offset="1" />
    </linearGradient>
    <linearGradient
       id="linearGradient2813"
       y2="8"
       gradientUnits="userSpaceOnUse"
       x2="26"
       y1="22"
       x1="26">
      <stop
         id="stop3829"
         style="stop-color:#fff"
         offset="0" />
      <stop
         id="stop4295"
         style="stop-color:#fff"
         offset=".30213" />
      <stop
         id="stop4293"
         style="stop-color:#fff;stop-opacity:.69020"
         offset=".34361" />
      <stop
         id="stop3832"
         style="stop-color:#fff;stop-opacity:0"
         offset="1" />
    </linearGradient>
    <linearGradient
       id="linearGradient2811"
       y2="45.933998"
       gradientUnits="userSpaceOnUse"
       x2="43.007"
       gradientTransform="matrix(1.2822,0,0,1.1747,-6.0702,-5.3032)"
       y1="30.555"
       x1="23.452">
      <stop
         id="stop4561"
         style="stop-color:#fff;stop-opacity:0"
         offset="0" />
      <stop
         id="stop4563"
         style="stop-color:#fff;stop-opacity:0"
         offset="1" />
    </linearGradient>
    <linearGradient
       id="linearGradient2809"
       y2="45.042"
       gradientUnits="userSpaceOnUse"
       x2="15.464"
       y1="7.9756999"
       x1="15.464">
      <stop
         id="stop3297"
         style="stop-color:#c9af8b"
         offset="0" />
      <stop
         id="stop3299"
         style="stop-color:#ad8757"
         offset=".23942" />
      <stop
         id="stop3301"
         style="stop-color:#c2a57f"
         offset=".27582" />
      <stop
         id="stop3303"
         style="stop-color:#9d7d53"
         offset="1" />
    </linearGradient>
    <linearGradient
       id="linearGradient2807"
       y2="37.277"
       gradientUnits="userSpaceOnUse"
       x2="24.997"
       gradientTransform="matrix(1.2822,0,0,1.5573,-6.0702,-15.291)"
       y1="15.378"
       x1="24.823">
      <stop
         id="stop3201"
         style="stop-color:#dac197"
         offset="0" />
      <stop
         id="stop3203"
         style="stop-color:#c1a581"
         offset=".23942" />
      <stop
         id="stop3205"
         style="stop-color:#dbc298"
         offset=".27582" />
      <stop
         id="stop3207"
         style="stop-color:#a68b60"
         offset="1" />
    </linearGradient>
    <radialGradient
       id="radialGradient2805"
       xlink:href="#linearGradient3681"
       gradientUnits="userSpaceOnUse"
       cy="41.5"
       cx="5"
       gradientTransform="matrix(0.59382,0,0,1.5367,41.141,-103.94)"
       r="5" />
    <linearGradient
       id="linearGradient2803"
       y2="35"
       gradientUnits="userSpaceOnUse"
       x2="17.554001"
       gradientTransform="matrix(1.757,0,0,1.397,-17.394,-16.412)"
       y1="46"
       x1="17.554001">
      <stop
         id="stop3705"
         style="stop-opacity:0"
         offset="0" />
      <stop
         id="stop3711"
         offset=".5" />
      <stop
         id="stop3707"
         style="stop-opacity:0"
         offset="1" />
    </linearGradient>
    <linearGradient
       id="linearGradient3681">
      <stop
         id="stop3683"
         offset="0" />
      <stop
         id="stop3685"
         style="stop-opacity:0"
         offset="1" />
    </linearGradient>
    <radialGradient
       id="radialGradient2801"
       xlink:href="#linearGradient3681"
       gradientUnits="userSpaceOnUse"
       cy="41.5"
       cx="5"
       gradientTransform="matrix(0.59382,0,0,1.5367,-6.6595,-103.94)"
       r="5" />
    <linearGradient
       id="linearGradient2789"
       y2="25.410999"
       gradientUnits="userSpaceOnUse"
       x2="57.726002"
       gradientTransform="matrix(0,0.71282,-0.67402,0,50.746,15.046)"
       y1="25.410999"
       x1="13.472">
      <stop
         id="stop4224"
         style="stop-color:#fff"
         offset="0" />
      <stop
         id="stop4226"
         style="stop-color:#fff;stop-opacity:0"
         offset="1" />
    </linearGradient>
    <linearGradient
       id="linearGradient2787"
       y2="20.709999"
       gradientUnits="userSpaceOnUse"
       x2="0.81572002"
       gradientTransform="matrix(0,-0.6146,-0.58384,0,46.949,46.633)"
       y1="20.709999"
       x1="28.315001">
      <stop
         id="stop2266"
         style="stop-color:#d7e866"
         offset="0" />
      <stop
         id="stop2268"
         style="stop-color:#8cab2a"
         offset="1" />
    </linearGradient>
    <radialGradient
       r="5"
       gradientTransform="matrix(0.59382,0,0,1.5367,41.141,-103.94)"
       cx="5"
       cy="41.5"
       gradientUnits="userSpaceOnUse"
       xlink:href="#linearGradient3681"
       id="radialGradient2805-9" />
    <radialGradient
       r="5"
       gradientTransform="matrix(0.59382,0,0,1.5367,-6.6595,-103.94)"
       cx="5"
       cy="41.5"
       gradientUnits="userSpaceOnUse"
       xlink:href="#linearGradient3681"
       id="radialGradient2801-3" />
  </defs>
  <path
     style="opacity:0.1;fill:#ffffff;fill-opacity:1;stroke:none"
     d="m 75.530253,-10.560698 c -11.08,0 -20,8.92 -20,20 0,0.16772 -0.004,0.33329 0,0.5 0.26444,-10.84635 9.08772,-19.5000001 20,-19.5000001 10.91228,0 19.73556,8.6536501 20,19.5000001 0.004,-0.16671 0,-0.33228 0,-0.5 0,-11.08 -8.92,-20 -20,-20 z"
     id="rect3436"
     inkscape:connector-curvature="0" />
  <g
     id="g4197"
     transform="matrix(1.351216,0,0,1.3050632,-49.31748,-11.391619)" />
  <g
     id="g4201"
     transform="matrix(1.1860054,0,0,1.1443836,-39.007906,-10.30305)" />
  <path
     inkscape:connector-curvature="0"
     id="path4276"
     d="m 13.47411,14.186356 c -1.326132,0.892885 -3.264222,2.004166 -4.2228982,2.976374 -1.8565564,1.845186 -2.3865997,3.610701 -2.2233348,5.932112 0.18358,2.976329 2.4071993,5.456412 5.385548,6.428619 C 13.718943,29.940267 14.922396,30 16.268845,30 18.431318,30 20.654582,29.443987 22.266167,28.134443 23.979775,26.745578 25,24.662456 25,22.499834 25,20.317309 24.061705,18.254212 22.40919,16.786023 21.531922,16.012268 20.430443,15.377174 19.288036,14.762063 18.937359,14.57095 18.08489,13.948309 17.759055,13.023154 17.611056,12.602935 17.243146,12.331524 17.40882,11.798572 l -0.339124,-0.299849 -1.127268,-0.149639 0.147126,0.07122 -0.390743,-0.157737 c -0.52139,-0.289827 -1.071445,1.599698 -2.224701,2.923789 z m 2.885065,-2.634276 6.88e-4,0 c 0.0091,0.30853 0.0079,0.608229 0.0055,0.898502 -0.0066,-0.367176 -0.0061,-0.69815 -0.0061,-0.898502 z"
     style="opacity:0.5;fill:#000000;fill-opacity:1;fill-rule:evenodd;stroke:none"
     sodipodi:nodetypes="ccccscsccsccccccccccc" />
  <path
     style="fill:#abcd03;fill-rule:evenodd;stroke:none"
     id="path2554"
     d="M 16.42192,5.305234 16.37967,8.5073404 C 17.423683,6.5735839 18.486285,4.2829551 20.390242,3 18.998174,4.5126003 18.324548,6.8608503 17.546596,8.3734506 18.856822,6.6501322 21.01435,4.3931756 23,3.7613018 20.359162,5.9632574 17.865978,9.6257402 16.269154,12 L 15,11.483089 c 0.224992,-1.8956225 0.295911,-4.3013001 1.421916,-6.177855 z"
     inkscape:connector-curvature="0"
     sodipodi:nodetypes="cccccccc" />
  <path
     style="fill:#ffffff;fill-rule:evenodd;stroke:none;fill-opacity:1;opacity:0.2"
     d="M 20.390625 3 C 18.494757 4.2775045 17.432328 6.553886 16.392578 8.4824219 L 16.378906 9.5078125 C 17.109254 8.1550372 17.856502 6.6333527 18.886719 5.3984375 C 19.296664 4.5332671 19.765335 3.6794304 20.390625 3 z M 23 3.7617188 C 21.441675 4.2576091 19.793044 5.7488837 18.515625 7.203125 C 18.175677 7.9877625 17.865345 8.7538344 17.546875 9.3730469 C 18.334583 8.3369882 19.430634 7.112886 20.609375 6.1601562 C 21.378561 5.2769854 22.179914 4.4455141 23 3.7617188 z M 16.421875 5.3046875 C 15.29587 7.1812424 15.224992 9.5867994 15 11.482422 L 15.101562 11.523438 C 15.2742 9.8256198 15.475656 7.9039845 16.408203 6.3320312 L 16.421875 5.3046875 z "
     id="path4271" />
  <path
     style="fill:#7d529d;fill-opacity:1;fill-rule:evenodd;stroke:none"
     d="m 13.75947,9.0000004 -0.26483,0.198336 c 1.326134,2.3212656 0.632379,3.5514566 -0.02053,3.9880196 -1.326132,0.892885 -3.264222,2.004166 -4.2228982,2.976374 -1.8565564,1.845186 -2.3865997,3.610701 -2.2233348,5.932112 0.18358,2.976329 2.4071993,5.456412 5.385548,6.428619 C 13.718943,28.940267 14.922396,29 16.268845,29 18.431318,29 20.654582,28.443987 22.266167,27.134443 23.979775,25.745578 25,23.662456 25,21.499834 c 0,-2.182525 -0.938295,-4.245622 -2.59081,-5.713811 -0.877268,-0.773755 -1.978747,-1.408849 -3.121154,-2.02396 -0.509959,-0.277919 -2.081078,-1.468408 -1.550655,-3.174709 l -1.794953,-0.23827 0.147126,0.07122 -0.390743,-0.157737 -1.939343,-1.2625616 z m 2.599705,1.5520796 6.88e-4,0 c 0.0091,0.30853 0.0079,0.608229 0.0055,0.898502 -0.0066,-0.367176 -0.0061,-0.69815 -0.0061,-0.898502 z"
     id="path2534"
     inkscape:connector-curvature="0" />
  <path
     style="fill:#ffffff;fill-opacity:1;fill-rule:evenodd;stroke:none;opacity:0.2"
     d="M 13.759766 9 L 13.494141 9.1992188 C 13.681401 9.5269987 13.81913 9.8262218 13.931641 10.111328 L 15.699219 11.261719 L 16.089844 11.419922 L 15.943359 11.349609 L 16.365234 11.40625 L 17.666016 11.578125 C 17.62246 11.270656 17.627624 10.943861 17.738281 10.587891 L 15.943359 10.349609 L 16.089844 10.419922 L 15.699219 10.261719 L 13.759766 9 z M 16.359375 11.552734 C 16.368475 11.861264 16.367634 12.160899 16.365234 12.451172 C 16.358634 12.083996 16.359375 11.753086 16.359375 11.552734 z M 17.699219 11.808594 C 17.366601 13.393386 18.800027 14.496267 19.287109 14.761719 C 20.429516 15.37683 21.532888 16.011401 22.410156 16.785156 C 23.929601 18.135118 24.835046 19.990308 24.972656 21.976562 C 24.983652 21.817975 25 21.659703 25 21.5 C 25 19.317475 24.062671 17.253345 22.410156 15.785156 C 21.532888 15.011401 20.429516 14.37683 19.287109 13.761719 C 18.910314 13.556372 17.958902 12.850304 17.699219 11.808594 z M 14.191406 12.042969 C 14.074049 12.607461 13.77459 12.984967 13.474609 13.185547 C 12.148477 14.078432 10.210629 15.189901 9.2519531 16.162109 C 7.4532889 17.949758 6.9038438 19.668731 7.0195312 21.884766 C 7.1094084 20.133765 7.7330405 18.67172 9.2519531 17.162109 C 10.210629 16.189901 12.148477 15.078432 13.474609 14.185547 C 13.924748 13.884565 14.377747 13.195881 14.191406 12.042969 z "
     id="path4266" />
</svg>
