<?xml version="1.0" encoding="UTF-8" standalone="no"?>
<!-- Created with Inkscape (http://www.inkscape.org/) -->

<svg
   xmlns:i="http://ns.adobe.com/AdobeIllustrator/10.0/"
   xmlns:dc="http://purl.org/dc/elements/1.1/"
   xmlns:cc="http://creativecommons.org/ns#"
   xmlns:rdf="http://www.w3.org/1999/02/22-rdf-syntax-ns#"
   xmlns:svg="http://www.w3.org/2000/svg"
   xmlns="http://www.w3.org/2000/svg"
   xmlns:xlink="http://www.w3.org/1999/xlink"
   xmlns:sodipodi="http://sodipodi.sourceforge.net/DTD/sodipodi-0.dtd"
   xmlns:inkscape="http://www.inkscape.org/namespaces/inkscape"
   width="48"
   height="48"
   id="svg5048"
   version="1.1"
   inkscape:version="0.91 r"
   sodipodi:docname="distributor-logo-debian.svg">
  <defs
     id="defs5050">
    <style
       id="current-color-scheme"
       type="text/css">      .ColorScheme-Text {
        color:#31363b;
      }
      .ColorScheme-Background{
        color:#eff0f1;
      }
      .ColorScheme-ViewText {
        color:#31363b;
      }
      .ColorScheme-ViewBackground{
        color:#fcfcfc;
      }
      .ColorScheme-ViewHover {
        color:#3daee9;
      }
      .ColorScheme-ViewFocus{
        color:#3daee9;
      }
      .ColorScheme-ButtonText {
        color:#31363b;
      }
      .ColorScheme-ButtonBackground{
        color:#eff0f1;
      }
      .ColorScheme-ButtonHover {
        color:#3daee9;
      }
      .ColorScheme-ButtonFocus{
        color:#3daee9;
      }</style>
    <linearGradient
       x1="44.995"
       y1="17.5"
       x2="3.0052"
       gradientUnits="userSpaceOnUse"
       spreadMethod="reflect"
       y2="17.5"
       id="linearGradient2815">
      <stop
         offset="0"
         style="stop-color:#fff;stop-opacity:0"
         id="stop3277" />
      <stop
         offset=".245"
         style="stop-color:#fff"
         id="stop3283" />
      <stop
         offset=".77350"
         style="stop-color:#fff"
         id="stop3285" />
      <stop
         offset="1"
         style="stop-color:#fff;stop-opacity:0"
         id="stop3279" />
    </linearGradient>
    <linearGradient
       x1="26"
       y1="22"
       x2="26"
       gradientUnits="userSpaceOnUse"
       y2="8"
       id="linearGradient2813">
      <stop
         offset="0"
         style="stop-color:#fff"
         id="stop3829" />
      <stop
         offset=".30213"
         style="stop-color:#fff"
         id="stop4295" />
      <stop
         offset=".34361"
         style="stop-color:#fff;stop-opacity:.69020"
         id="stop4293" />
      <stop
         offset="1"
         style="stop-color:#fff;stop-opacity:0"
         id="stop3832" />
    </linearGradient>
    <linearGradient
       x1="23.452"
       y1="30.555"
       gradientTransform="matrix(1.2822 0 0 1.1747 -6.0702 -5.3032)"
       x2="43.007"
       gradientUnits="userSpaceOnUse"
       y2="45.934"
       id="linearGradient2811">
      <stop
         offset="0"
         style="stop-color:#fff;stop-opacity:0"
         id="stop4561" />
      <stop
         offset="1"
         style="stop-color:#fff;stop-opacity:0"
         id="stop4563" />
    </linearGradient>
    <linearGradient
       x1="15.464"
       y1="7.9757"
       x2="15.464"
       gradientUnits="userSpaceOnUse"
       y2="45.042"
       id="linearGradient2809">
      <stop
         offset="0"
         style="stop-color:#c9af8b"
         id="stop3297" />
      <stop
         offset=".23942"
         style="stop-color:#ad8757"
         id="stop3299" />
      <stop
         offset=".27582"
         style="stop-color:#c2a57f"
         id="stop3301" />
      <stop
         offset="1"
         style="stop-color:#9d7d53"
         id="stop3303" />
    </linearGradient>
    <linearGradient
       x1="24.823"
       y1="15.378"
       gradientTransform="matrix(1.2822 0 0 1.5573 -6.0702 -15.291)"
       x2="24.997"
       gradientUnits="userSpaceOnUse"
       y2="37.277"
       id="linearGradient2807">
      <stop
         offset="0"
         style="stop-color:#dac197"
         id="stop3201" />
      <stop
         offset=".23942"
         style="stop-color:#c1a581"
         id="stop3203" />
      <stop
         offset=".27582"
         style="stop-color:#dbc298"
         id="stop3205" />
      <stop
         offset="1"
         style="stop-color:#a68b60"
         id="stop3207" />
    </linearGradient>
    <radialGradient
       r="5"
       gradientTransform="matrix(.59382 0 0 1.5367 41.141 -103.94)"
       cx="5"
       cy="41.5"
       gradientUnits="userSpaceOnUse"
       xlink:href="#linearGradient3681"
       id="radialGradient2805" />
    <linearGradient
       x1="17.554"
       y1="46"
       gradientTransform="matrix(1.757 0 0 1.397 -17.394 -16.412)"
       x2="17.554"
       gradientUnits="userSpaceOnUse"
       y2="35"
       id="linearGradient2803">
      <stop
         offset="0"
         style="stop-opacity:0"
         id="stop3705" />
      <stop
         offset=".5"
         id="stop3711" />
      <stop
         offset="1"
         style="stop-opacity:0"
         id="stop3707" />
    </linearGradient>
    <linearGradient
       id="linearGradient3681">
      <stop
         offset="0"
         id="stop3683" />
      <stop
         offset="1"
         style="stop-opacity:0"
         id="stop3685" />
    </linearGradient>
    <radialGradient
       r="5"
       gradientTransform="matrix(.59382 0 0 1.5367 -6.6595 -103.94)"
       cx="5"
       cy="41.5"
       gradientUnits="userSpaceOnUse"
       xlink:href="#linearGradient3681"
       id="radialGradient2801" />
    <linearGradient
       x1="13.472"
       y1="25.411"
       gradientTransform="matrix(0 .71282 -.67402 0 50.746 15.046)"
       x2="57.726"
       gradientUnits="userSpaceOnUse"
       y2="25.411"
       id="linearGradient2789">
      <stop
         offset="0"
         style="stop-color:#fff"
         id="stop4224" />
      <stop
         offset="1"
         style="stop-color:#fff;stop-opacity:0"
         id="stop4226" />
    </linearGradient>
    <linearGradient
       x1="28.315"
       y1="20.71"
       gradientTransform="matrix(0 -.61460 -.58384 0 46.949 46.633)"
       x2=".81572"
       gradientUnits="userSpaceOnUse"
       y2="20.71"
       id="linearGradient2787">
      <stop
         offset="0"
         style="stop-color:#d7e866"
         id="stop2266" />
      <stop
         offset="1"
         style="stop-color:#8cab2a"
         id="stop2268" />
    </linearGradient>
    <radialGradient
       id="radialGradient2805-9"
       xlink:href="#linearGradient3681"
       gradientUnits="userSpaceOnUse"
       cy="41.5"
       cx="5"
       gradientTransform="matrix(.59382 0 0 1.5367 41.141 -103.94)"
       r="5" />
    <radialGradient
       id="radialGradient2801-3"
       xlink:href="#linearGradient3681"
       gradientUnits="userSpaceOnUse"
       cy="41.5"
       cx="5"
       gradientTransform="matrix(.59382 0 0 1.5367 -6.6595 -103.94)"
       r="5" />
    <clipPath
       clipPathUnits="userSpaceOnUse"
       id="clipPath6332">
      <rect
         style="opacity:1;fill:#002737;fill-opacity:1;stroke:none;stroke-width:0;stroke-linecap:butt;stroke-linejoin:miter;stroke-miterlimit:4;stroke-dasharray:none;stroke-dashoffset:0;stroke-opacity:1"
         id="rect6334"
         width="262.55066"
         height="36.242378"
         x="126.22997"
         y="674.26868"
         ry="9.1197138"
         rx="9.1197138" />
    </clipPath>
    <linearGradient
       id="linearGradient3924-1">
      <stop
         id="stop3926-3"
         style="stop-color:#ffffff;stop-opacity:1"
         offset="0" />
      <stop
         id="stop3928-91"
         style="stop-color:#ffffff;stop-opacity:0.23529412"
         offset="0.06316455" />
      <stop
         id="stop3930-6"
         style="stop-color:#ffffff;stop-opacity:0.15686275"
         offset="0.95056331" />
      <stop
         id="stop3932-6"
         style="stop-color:#ffffff;stop-opacity:0.39215687"
         offset="1" />
    </linearGradient>
    <linearGradient
       id="linearGradient27416-1-2-2">
      <stop
         id="stop27420-2-0-2"
         style="stop-color:#55c1ec;stop-opacity:1"
         offset="0" />
      <stop
         id="stop27422-3-5-1"
         style="stop-color:#3689e6;stop-opacity:1"
         offset="1" />
    </linearGradient>
    <linearGradient
       id="linearGradient4632-92-3-0-8-1-6">
      <stop
         id="stop4634-68-8-0-2-9-1"
         style="stop-color:#fafafa;stop-opacity:1"
         offset="0" />
      <stop
         id="stop4636-8-21-7-1-4-9"
         style="stop-color:#e1e1e1;stop-opacity:1"
         offset="1" />
    </linearGradient>
    <radialGradient
       cx="4.9929786"
       cy="43.5"
       r="2.5"
       fx="4.9929786"
       fy="43.5"
       id="radialGradient3013"
       xlink:href="#linearGradient3688-166-749"
       gradientUnits="userSpaceOnUse"
       gradientTransform="matrix(2.003784,0,0,1.4,27.98813,-17.4)" />
    <linearGradient
       id="linearGradient3688-166-749">
      <stop
         id="stop2883"
         style="stop-color:#181818;stop-opacity:1"
         offset="0" />
      <stop
         id="stop2885"
         style="stop-color:#181818;stop-opacity:0"
         offset="1" />
    </linearGradient>
    <radialGradient
       cx="4.9929786"
       cy="43.5"
       r="2.5"
       fx="4.9929786"
       fy="43.5"
       id="radialGradient3015"
       xlink:href="#linearGradient3688-166-749"
       gradientUnits="userSpaceOnUse"
       gradientTransform="matrix(2.003784,0,0,1.4,-20.01187,-104.4)" />
    <linearGradient
       id="linearGradient3702-501-757">
      <stop
         id="stop2895"
         style="stop-color:#181818;stop-opacity:0"
         offset="0" />
      <stop
         id="stop2897"
         style="stop-color:#181818;stop-opacity:1"
         offset="0.5" />
      <stop
         id="stop2899"
         style="stop-color:#181818;stop-opacity:0"
         offset="1" />
    </linearGradient>
    <linearGradient
       x1="25.058096"
       y1="47.027729"
       x2="25.058096"
       y2="39.999443"
       id="linearGradient4387"
       xlink:href="#linearGradient3702-501-757"
       gradientUnits="userSpaceOnUse" />
    <linearGradient
       id="linearGradient4011-9-9-70-61-7">
      <stop
         id="stop4013-5-4-3-8-3"
         style="stop-color:#ffffff;stop-opacity:1;"
         offset="0" />
      <stop
         offset="0.507761"
         style="stop-color:#ffffff;stop-opacity:0.23529412;"
         id="stop4015-1-5-70-9-5" />
      <stop
         id="stop4017-7-0-13-0-1"
         style="stop-color:#ffffff;stop-opacity:0.15686275;"
         offset="0.83456558" />
      <stop
         id="stop4019-1-12-7-0-7"
         style="stop-color:#ffffff;stop-opacity:0.39215687;"
         offset="1" />
    </linearGradient>
    <linearGradient
       id="linearGradient4215-8-4-07-7">
      <stop
         style="stop-color:#e9e9e9;stop-opacity:1;"
         offset="0"
         id="stop4217-1-2-1-2" />
      <stop
         style="stop-color:#ffffff;stop-opacity:1;"
         offset="1"
         id="stop4219-3-4-0-96" />
    </linearGradient>
    <radialGradient
       gradientTransform="matrix(2.003784,0,0,1.4,-20.01187,-104.4)"
       gradientUnits="userSpaceOnUse"
       xlink:href="#linearGradient3688-166-749"
       id="radialGradient3339-1-4"
       fy="43.5"
       fx="4.9929786"
       r="2.5"
       cy="43.5"
       cx="4.9929786" />
    <radialGradient
       gradientTransform="matrix(2.003784,0,0,1.4,27.98813,-17.4)"
       gradientUnits="userSpaceOnUse"
       xlink:href="#linearGradient3688-166-749"
       id="radialGradient3337-2-2"
       fy="43.5"
       fx="4.9929786"
       r="2.5"
       cy="43.5"
       cx="4.9929786" />
    <linearGradient
       inkscape:collect="always"
       xlink:href="#linearGradient4011-9-9-70-61-7"
       id="linearGradient3590"
       gradientUnits="userSpaceOnUse"
       gradientTransform="matrix(-0.29729724,0,0,0.29729724,52.326181,17.461356)"
       x1="71.204407"
       y1="6.2375584"
       x2="71.204407"
       y2="44.340794" />
    <linearGradient
       inkscape:collect="always"
       xlink:href="#linearGradient4215-8-4-07-7"
       id="linearGradient3593"
       gradientUnits="userSpaceOnUse"
       gradientTransform="matrix(-0.25490196,0,0,0.25490196,39.156863,16.333328)"
       x1="38.976662"
       y1="59.967686"
       x2="38.976662"
       y2="8.0928917" />
    <linearGradient
       inkscape:collect="always"
       xlink:href="#linearGradient27416-1-2-2"
       id="linearGradient3818"
       gradientUnits="userSpaceOnUse"
       gradientTransform="matrix(1.111111,0,0,1.25,-96.572559,-8.817797)"
       x1="30.271185"
       y1="10.028973"
       x2="30.271185"
       y2="55.052982" />
    <linearGradient
       inkscape:collect="always"
       xlink:href="#linearGradient3924-1"
       id="linearGradient3822"
       gradientUnits="userSpaceOnUse"
       gradientTransform="matrix(1.4324324,0,0,1.4362832,-95.395384,-3.2885759)"
       x1="23.99999"
       y1="4.999989"
       x2="23.99999"
       y2="43" />
    <radialGradient
       inkscape:collect="always"
       xlink:href="#linearGradient4632-92-3-0-8-1-6"
       id="radialGradient3826"
       gradientUnits="userSpaceOnUse"
       gradientTransform="matrix(1.0056172e-8,2.3103361,-2.310336,1.0056172e-8,-50.985718,-69.903761)"
       cx="31.999998"
       cy="4.3419166"
       fx="31.999998"
       fy="4.3419166"
       r="27.5" />
    <linearGradient
       inkscape:collect="always"
       xlink:href="#linearGradient27416-1-2-2"
       id="linearGradient3853"
       gradientUnits="userSpaceOnUse"
       gradientTransform="matrix(0.78787871,0,0,0.88636364,-1.212111,-3.363642)"
       x1="30.271185"
       y1="10.028973"
       x2="30.271185"
       y2="55.052982" />
    <linearGradient
       x1="8.9254236"
       y1="5.9997859"
       x2="8.9254236"
       y2="19"
       id="linearGradient2868"
       xlink:href="#linearGradient3678"
       gradientUnits="userSpaceOnUse"
       gradientTransform="translate(-1,-2)" />
    <linearGradient
       id="linearGradient3678">
      <stop
         id="stop3680"
         style="stop-color:#ffffff;stop-opacity:1"
         offset="0" />
      <stop
         id="stop3682"
         style="stop-color:#e6e6e6;stop-opacity:1"
         offset="1" />
    </linearGradient>
    <linearGradient
       x1="9"
       y1="3"
       x2="9"
       y2="21"
       id="linearGradient2393"
       xlink:href="#linearGradient3678"
       gradientUnits="userSpaceOnUse"
       gradientTransform="translate(-2,-1)" />
    <clipPath
       id="clipPath4473"
       clipPathUnits="userSpaceOnUse">
      <path
         style="fill:#fecd38;fill-opacity:1;stroke:none"
         d="m 142,240 c -1.108,0 -2,0.892 -2,2 l 0,36 c 0,1.108 0.892,2 2,2 l 22,0 16,-16 0,-22 c 0,-1.108 -0.892,-2 -2,-2 z"
         id="path4475"
         inkscape:connector-curvature="0"
         sodipodi:nodetypes="ssssccsss" />
    </clipPath>
    <radialGradient
       gradientTransform="matrix(1.1256295,0,0,1.1256295,-41.873391,-39.54673)"
       id="radialGradient29545"
       cx="375.21439"
       cy="783.16357"
       r="300.5752"
       fx="375.21439"
       fy="783.16357"
       gradientUnits="userSpaceOnUse">
      <stop
         offset="0.0112"
         style="stop-color:#eeeeef;stop-opacity:0.94117647;"
         id="stop29547" />
      <stop
         offset="0.29210001"
         style="stop-color:#6193cf;stop-opacity:1;"
         id="stop29549" />
      <stop
         offset="0.45750001"
         style="stop-color:#2c72c7;stop-opacity:1;"
         id="stop29551" />
      <stop
         offset="0.6767"
         style="stop-color:#0057ae;stop-opacity:1;"
         id="stop29553" />
      <stop
         offset="0.8653"
         style="stop-color:#004d9a;stop-opacity:1;"
         id="stop29555" />
      <stop
         offset="1"
         style="stop-color:#00438a;stop-opacity:1;"
         id="stop29557" />
    </radialGradient>
  </defs>
  <sodipodi:namedview
     id="base"
     pagecolor="#ffffff"
     bordercolor="#666666"
     borderopacity="1.0"
     inkscape:pageopacity="0.0"
     inkscape:pageshadow="2"
     inkscape:zoom="9.95"
     inkscape:cx="27.973346"
     inkscape:cy="23.310133"
     inkscape:document-units="px"
     inkscape:current-layer="layer1"
     showgrid="false"
     inkscape:window-width="1600"
     inkscape:window-height="840"
     inkscape:window-x="-4"
     inkscape:window-y="34"
     inkscape:window-maximized="1">
    <inkscape:grid
       type="xygrid"
       id="grid3011"
       empspacing="5"
       visible="true"
       enabled="true"
       snapvisiblegridlinesonly="true" />
  </sodipodi:namedview>
  <metadata
     id="metadata5053">
    <rdf:RDF>
      <cc:Work
         rdf:about="">
        <dc:format>image/svg+xml</dc:format>
        <dc:type
           rdf:resource="http://purl.org/dc/dcmitype/StillImage" />
        <dc:title></dc:title>
      </cc:Work>
    </rdf:RDF>
  </metadata>
  <g
     inkscape:label="Layer 1"
     inkscape:groupmode="layer"
     id="layer1"
     transform="translate(0,-1004.3622)">
    <rect
       style="fill:#8b9299;fill-opacity:0;stroke:none"
       id="rect3024"
       width="20"
       height="60"
       x="864"
       y="543"
       transform="translate(0,52.36218)"
       ry="10" />
    <path
       i:knockout="Off"
       d="m 36.281409,1025.4832 c 0.04003,1.0794 -0.313614,1.6039 -0.633462,2.5313 l -0.575199,0.2873 c -0.470206,0.9176 0.0467,0.5825 -0.290044,1.3122 -0.734899,0.6554 -2.226932,2.05 -2.704696,2.1778 -0.349213,-0.01 0.236213,-0.4137 0.312727,-0.5723 -0.982683,0.6773 -0.788719,1.0169 -2.291875,1.4291 l -0.04361,-0.099 c -3.705622,1.7512 -8.853449,-1.7186 -8.785837,-6.4523 -0.03913,0.3002 -0.112541,0.2251 -0.194402,0.3457 -0.191285,-2.4352 1.120148,-4.8811 3.331954,-5.8814 2.163313,-1.0749 4.699418,-0.6344 6.24795,0.8171 -0.850566,-1.1195 -2.545007,-2.3065 -4.551737,-2.1966 -1.966691,0.032 -3.807039,1.287 -4.420934,2.65 -1.007149,0.6367 -1.124588,2.4554 -1.56322,2.7886 -0.591201,4.3603 1.110798,6.2434 3.990329,8.4597 0.451974,0.3064 0.127228,0.3533 0.18773,0.5866 -0.956435,-0.4495 -1.831905,-1.1285 -2.552564,-1.9599 0.38257,0.5615 0.794952,1.1075 1.32833,1.5363 -0.902604,-0.306 -2.10771,-2.1948 -2.458704,-2.2717 1.554766,2.7958 6.307117,4.9031 8.796959,3.8572 -1.152171,0.043 -2.615287,0.024 -3.908915,-0.4565 -0.544949,-0.281 -1.282954,-0.8623 -1.150837,-0.9708 3.396897,1.2737 6.905,0.9641 9.84369,-1.4015 0.748241,-0.5852 1.564991,-1.5801 1.801214,-1.5935 -0.355445,0.537 0.06094,0.2582 -0.212195,0.7322 0.743792,-1.2066 -0.324299,-0.4914 0.769591,-2.0836 l 0.403929,0.5584 c -0.151256,-1.0025 1.238911,-2.2185 1.097444,-3.8027 0.318961,-0.4843 0.355446,0.5218 0.01743,1.636 0.46932,-1.2362 0.124111,-1.435 0.244219,-2.4554 0.129458,0.3432 0.301615,0.7073 0.389252,1.0696 -0.306056,-1.1951 0.312727,-2.0117 0.466651,-2.7064 -0.152141,-0.067 -0.471989,0.528 -0.545834,-0.8828 0.01115,-0.6129 0.170374,-0.3212 0.231324,-0.4722 -0.119222,-0.069 -0.433732,-0.5392 -0.624579,-1.4403 0.137465,-0.2122 0.370123,0.549 0.55874,0.5799 -0.121443,-0.7162 -0.330084,-1.2625 -0.338976,-1.8125 -0.55162,-1.1571 -0.195298,0.1546 -0.641925,-0.4968 -0.587208,-1.8379 0.486667,-0.4266 0.559626,-1.2611 0.888813,1.2933 1.395505,3.2992 1.629049,4.1297 -0.177942,-1.0128 -0.464869,-1.9943 -0.815863,-2.9436 0.270916,0.1147 -0.435504,-2.0832 0.351881,-0.6277 -0.840331,-3.1027 -3.59352,-6.0022 -6.126956,-7.362 0.309172,0.2845 0.700206,0.642 0.560521,0.6983 -1.260717,-0.7528 -1.039181,-0.8122 -1.219793,-1.1303 -1.025381,-0.4195 -1.093889,0.034 -1.772289,8e-4 -1.935105,-1.0311 -2.307896,-0.9217 -4.088639,-1.5668 l 0.08095,0.3806 c -1.28162,-0.4288 -1.493368,0.1618 -2.878197,8e-4 -0.08404,-0.066 0.443958,-0.2395 0.879024,-0.3025 -1.239349,0.1643 -1.181526,-0.2457 -2.394189,0.045 0.298498,-0.2105 0.615229,-0.3503 0.933742,-0.529 -1.010256,0.062 -2.41288,0.5906 -1.980034,0.109 -1.648178,0.7389 -4.575754,1.7757 -6.218595,3.3228 l -0.05158,-0.3467 c -0.752683,0.9074 -3.282564,2.71 -3.484086,3.8863 l -0.201511,0.047 c -0.391024,0.6661 -0.645042,1.4206 -0.955549,2.1055 -0.512018,0.877 -0.7509101,0.3378 -0.6779509,0.4754 -1.0075871,2.0514 -1.508941,3.775 -1.9408906,5.1894 0.3078384,0.4624 0.00697,2.7841 0.1236731,4.6421 -0.5053569,9.178 6.4138724,18.0884 13.9772574,20.1452 1.108567,0.399 2.756745,0.3847 4.158921,0.424 -1.653963,-0.4753 -1.867484,-0.2516 -3.479635,-0.8159 -1.162397,-0.5504 -1.416853,-1.1779 -2.240723,-1.8959 l 0.326081,0.5786 c -1.61481,-0.5741 -0.939079,-0.7104 -2.25318,-1.1281 l 0.348325,-0.4561 c -0.523599,-0.04 -1.386612,-0.8854 -1.622377,-1.355 l -0.572969,0.023 c -0.68775,-0.8514 -1.054746,-1.4667 -1.027612,-1.9433 l -0.185061,0.3315 c -0.209528,-0.3614 -2.531654,-3.1978 -1.326996,-2.5375 -0.223757,-0.2046 -0.521359,-0.3337 -0.843885,-0.923 l 0.245116,-0.281 c -0.578754,-0.7492 -1.066755,-1.7092 -1.029384,-2.0291 0.309172,0.4192 0.523589,0.4977 0.736223,0.5696 -1.464003,-3.6472 -1.546302,-0.2005 -2.654431,-3.7125 l 0.233993,-0.019 c -0.179276,-0.2729 -0.289158,-0.5673 -0.433284,-0.8573 l 0.102315,-1.0208 c -1.0534118,-1.2222 -0.294496,-5.2023 -0.141906,-7.3847 0.104535,-0.8873 0.879473,-1.8322 1.468015,-3.314 l -0.358552,-0.062 c 0.685957,-1.2009 3.915587,-4.8244 5.412071,-4.6386 0.724663,-0.914 -0.144136,0 -0.286041,-0.2332 1.592127,-1.6542 2.092584,-1.1687 3.166907,-1.4667 1.157946,-0.6902 -0.994244,0.2699 -0.445303,-0.263 2.003175,-0.5133 1.419084,-1.1678 4.031703,-1.4283 0.275805,0.1573 -0.639257,0.243 -0.868799,0.4472 1.668193,-0.8202 5.279954,-0.633 7.626995,0.4548 2.721156,1.2782 5.780411,5.0545 5.901406,8.6075 l 0.137465,0.037 c -0.0694,1.4126 0.215302,3.0464 -0.278921,4.5466 l 0.334076,-0.7108"
       id="path4077"
       inkscape:connector-curvature="0"
       style="display:inline;overflow:visible;fill:#d70751;fill-opacity:1;enable-background:new" />
    <path
       style="display:inline;overflow:visible;fill:#000000;fill-opacity:1;enable-background:new;opacity:0.3"
       d="M 25.087891 6.6816406 C 24.084877 6.7115164 23.186119 6.8779719 22.560547 7.1855469 C 22.790089 6.9813469 23.705492 6.8955812 23.429688 6.7382812 C 20.817069 6.9987812 21.401612 7.6527156 19.398438 8.1660156 C 18.849496 8.6989156 21.001696 7.7394875 19.84375 8.4296875 C 18.769427 8.7276875 18.267908 8.2422844 16.675781 9.8964844 C 16.817686 10.129684 17.687554 9.2149063 16.962891 10.128906 C 15.466407 9.9431063 12.236738 13.566678 11.550781 14.767578 L 11.908203 14.830078 C 11.319661 16.311878 10.545941 17.255278 10.441406 18.142578 C 10.340621 19.58405 9.9856192 21.798786 10.052734 23.496094 C 10.110261 21.994232 10.359569 20.313039 10.441406 19.142578 C 10.545941 18.255278 11.319661 17.311878 11.908203 15.830078 L 11.550781 15.767578 C 12.236738 14.566678 15.466407 10.943106 16.962891 11.128906 C 17.687554 10.214906 16.817686 11.129684 16.675781 10.896484 C 18.267908 9.2422844 18.769427 9.7276875 19.84375 9.4296875 C 21.001696 8.7394875 18.849496 9.6989156 19.398438 9.1660156 C 21.401612 8.6527156 20.817069 7.9987812 23.429688 7.7382812 C 23.705492 7.8955812 22.790089 7.9813469 22.560547 8.1855469 C 24.22874 7.3653469 27.840459 7.552825 30.1875 8.640625 C 32.908656 9.918825 35.966896 13.695047 36.087891 17.248047 L 36.222656 17.285156 C 36.215049 16.9434 36.2107 16.608037 36.226562 16.285156 L 36.087891 16.248047 C 35.966896 12.695047 32.908656 8.918825 30.1875 7.640625 C 28.720599 6.96075 26.75958 6.6318477 25.087891 6.6816406 z M 38.371094 12.207031 C 38.298165 13.041185 37.224961 11.632357 37.810547 13.466797 C 37.902193 13.466951 38.010665 13.489746 38.113281 13.492188 C 38.128769 13.46847 38.148347 13.45583 38.183594 13.490234 C 38.277881 13.471591 38.353804 13.404795 38.371094 13.207031 C 39.259907 14.500331 39.766456 16.505438 40 17.335938 C 39.822058 16.323138 39.534588 15.341878 39.183594 14.392578 C 39.281907 14.434202 39.248036 14.167126 39.207031 13.884766 C 38.973817 13.291801 38.708449 12.697913 38.371094 12.207031 z M 39.193359 12.785156 C 39.224351 12.994694 39.256988 13.207872 39.244141 13.318359 C 39.302745 13.371261 39.384639 13.48739 39.535156 13.765625 C 39.44575 13.435517 39.323503 13.109054 39.193359 12.785156 z M 26.103516 14.820312 C 25.691697 14.827013 25.289076 14.89824 24.898438 15.001953 C 24.733831 15.065382 24.567287 15.119203 24.40625 15.199219 C 22.194444 16.199519 20.882934 18.644878 21.074219 21.080078 C 21.078977 21.073069 21.083195 21.074159 21.087891 21.068359 C 21.273324 18.993886 22.502344 17.060269 24.40625 16.199219 C 26.569563 15.124319 29.105765 15.564125 30.654297 17.015625 C 29.803731 15.896125 28.110246 14.710412 26.103516 14.820312 z M 38.289062 15.160156 C 38.269177 15.15959 38.251558 15.170741 38.234375 15.197266 C 38.37648 15.868227 38.584864 16.298494 38.732422 16.503906 C 38.648723 16.103327 38.552138 15.734371 38.496094 15.400391 C 38.421086 15.273068 38.349317 15.161872 38.289062 15.160156 z M 38.775391 16.693359 C 38.75568 16.694468 38.737962 16.69956 38.71875 16.710938 C 38.743431 16.734294 38.769392 16.773481 38.792969 16.777344 C 38.787716 16.746367 38.780946 16.723715 38.775391 16.693359 z M 38.664062 17.384766 C 38.677766 17.508304 38.690265 17.64495 38.708984 17.724609 C 38.761473 17.681262 38.823313 17.721223 38.857422 17.636719 C 38.8144 17.611819 38.742958 17.515549 38.664062 17.384766 z M 36.226562 17.527344 C 36.216768 17.945075 36.220792 18.377202 36.232422 18.820312 C 36.240892 18.38471 36.237876 17.951699 36.226562 17.527344 z M 8.1269531 18.392578 C 8.089354 18.516014 8.0363553 18.670019 8 18.789062 C 8.0769596 18.904663 8.1159057 19.13555 8.1328125 19.447266 C 8.1416896 19.046013 8.1458507 18.677081 8.1269531 18.392578 z M 39.171875 18.992188 C 39.08381 18.953406 38.940523 19.128191 38.820312 19.015625 C 38.666625 19.462379 38.55721 19.969145 38.685547 20.582031 C 38.797156 19.958343 39.071979 19.443045 39.171875 18.992188 z M 38.316406 19.628906 C 38.265048 20.065231 38.297668 20.347686 38.316406 20.628906 C 38.445864 20.972106 38.617441 21.336919 38.705078 21.699219 C 38.601454 21.294584 38.623258 20.945003 38.677734 20.617188 C 38.585579 20.282172 38.436068 19.946135 38.316406 19.628906 z M 36.28125 20.121094 L 36.208984 20.273438 C 36.176297 20.798576 36.114708 21.321813 35.947266 21.830078 L 35.986328 21.748047 C 36.164927 21.272323 36.306307 20.796747 36.28125 20.121094 z M 38.162109 20.333984 C 38.131246 20.350647 38.094558 20.388681 38.054688 20.449219 C 38.196155 22.033419 36.805775 23.249453 36.957031 24.251953 L 36.552734 23.693359 C 35.458844 25.285559 36.526995 24.570744 35.783203 25.777344 C 36.056338 25.303344 35.640649 25.581922 35.996094 25.044922 C 35.759871 25.058322 34.943554 26.053472 34.195312 26.638672 C 31.256623 29.004272 27.748459 29.312762 24.351562 28.039062 C 24.219446 28.147563 24.957004 28.728766 25.501953 29.009766 C 26.795581 29.490266 28.257985 29.509797 29.410156 29.466797 C 28.001244 30.058634 25.878279 29.619576 24.009766 28.638672 C 24.044456 28.665548 24.074334 28.69178 24.109375 28.71875 C 24.561349 29.02515 24.236373 29.071387 24.296875 29.304688 C 23.34044 28.855188 22.4648 28.177103 21.744141 27.345703 C 22.126711 27.907203 22.538888 28.452059 23.072266 28.880859 C 22.169662 28.574859 20.964275 26.686275 20.613281 26.609375 C 22.168047 29.405175 26.920314 31.512697 29.410156 30.466797 C 28.257985 30.509797 26.795581 30.490266 25.501953 30.009766 C 24.957004 29.728766 24.219446 29.147563 24.351562 29.039062 C 27.748459 30.312762 31.256623 30.004272 34.195312 27.638672 C 34.943554 27.053472 35.759871 26.058322 35.996094 26.044922 C 35.640649 26.581922 36.056338 26.303344 35.783203 26.777344 C 36.526995 25.570744 35.458844 26.285559 36.552734 24.693359 L 36.957031 25.251953 C 36.805775 24.249453 38.196155 23.033419 38.054688 21.449219 C 38.13728 21.323813 38.199073 21.305009 38.242188 21.355469 C 38.352458 20.715496 38.321451 20.247959 38.162109 20.333984 z M 38.292969 21.28125 C 38.286198 21.325645 38.269552 21.383735 38.259766 21.431641 C 38.348511 21.652309 38.302845 22.323929 38.072266 23.083984 C 38.421549 22.163963 38.318417 21.818388 38.292969 21.28125 z M 20.023438 21.494141 C 19.924422 24.283747 20.94934 25.95731 22.683594 27.527344 C 22.329331 27.169147 22.028203 26.762624 21.744141 26.345703 C 22.4648 27.177103 23.34044 27.855188 24.296875 28.304688 C 24.236373 28.071387 24.561349 28.02515 24.109375 27.71875 C 21.776891 25.923498 20.217719 24.345828 20.023438 21.494141 z M 8.1074219 21.574219 C 8.094148 22.125881 8.0936821 22.682648 8.1191406 23.226562 C 8.1214826 22.961266 8.1084056 22.697547 8.1230469 22.431641 C 8.1057383 22.156076 8.1097082 21.862605 8.1074219 21.574219 z M 8.1191406 24.193359 C 8.0235311 33.097179 14.748152 41.576473 22.101562 43.576172 C 23.21013 43.975172 24.85759 43.9607 26.259766 44 C 24.605803 43.5247 24.391448 43.747894 22.779297 43.183594 C 22.289729 42.951781 21.975096 42.703526 21.697266 42.443359 C 14.77827 40.332063 8.5049264 32.561054 8.1191406 24.193359 z M 10.496094 26.398438 L 10.480469 26.548828 C 10.509556 26.607355 10.535351 26.665937 10.5625 26.724609 L 10.582031 26.527344 C 10.549512 26.489614 10.52523 26.44129 10.496094 26.398438 z M 22.835938 27.667969 C 22.914593 27.737305 22.983094 27.807761 23.064453 27.876953 C 23.066959 27.877825 23.069765 27.880011 23.072266 27.880859 C 22.989148 27.814039 22.913523 27.740097 22.835938 27.667969 z M 12.634766 30.771484 C 12.704611 31.089501 12.952652 31.599544 13.292969 32.119141 C 13.306166 32.123721 13.320823 32.134221 13.333984 32.138672 C 13.051994 31.436163 12.831436 31.048036 12.634766 30.771484 z "
       transform="translate(0,1004.3622)"
       id="path4381" />
    <path
       style="display:inline;overflow:visible;fill:#ffffff;fill-opacity:1;enable-background:new;opacity:0.2"
       d="M 23.509766 4 C 22.49951 4.062 21.096451 4.590975 21.529297 4.109375 C 19.881119 4.848275 16.955341 5.8845406 15.3125 7.4316406 L 15.259766 7.0859375 C 14.507083 7.9933375 11.976913 9.7944031 11.775391 10.970703 L 11.574219 11.017578 C 11.183195 11.683678 10.929648 12.438147 10.619141 13.123047 C 10.107123 14.000047 9.868447 13.462009 9.9414062 13.599609 C 8.9338191 15.651009 8.4319496 17.374662 8 18.789062 C 8.0717291 18.896806 8.108338 19.112328 8.1269531 19.392578 C 8.536081 18.049434 9.0186234 16.478352 9.9414062 14.599609 C 9.868447 14.462009 10.107123 15.000047 10.619141 14.123047 C 10.929648 13.438147 11.183195 12.683678 11.574219 12.017578 L 11.775391 11.970703 C 11.976913 10.794403 14.507083 8.9933375 15.259766 8.0859375 L 15.3125 8.4316406 C 16.955341 6.8845406 19.881119 5.848275 21.529297 5.109375 C 21.096451 5.590975 22.49951 5.062 23.509766 5 C 23.191253 5.1787 22.87467 5.3187969 22.576172 5.5292969 C 23.788835 5.2385969 23.731354 5.648675 24.970703 5.484375 C 24.535637 5.547375 24.007757 5.7211094 24.091797 5.7871094 C 25.476626 5.9481094 25.689083 5.3563562 26.970703 5.7851562 L 26.888672 5.4042969 C 28.669415 6.0493969 29.041457 5.9415562 30.976562 6.9726562 C 31.654962 7.0058562 31.724619 6.5512031 32.75 6.9707031 C 32.930612 7.2888031 32.708033 7.3487625 33.96875 8.1015625 C 34.108435 8.0452625 33.717375 7.6868437 33.408203 7.4023438 C 35.672097 8.6174695 38.10028 11.064721 39.193359 13.785156 C 39.125016 13.323076 39.068374 12.902768 39.535156 13.765625 C 38.694825 10.662925 35.941639 7.7621437 33.408203 6.4023438 C 33.717375 6.6868437 34.108435 7.0452625 33.96875 7.1015625 C 32.708033 6.3487625 32.930612 6.2888031 32.75 5.9707031 C 31.724619 5.5512031 31.654962 6.0058562 30.976562 5.9726562 C 29.041457 4.9415562 28.669415 5.0493969 26.888672 4.4042969 L 26.970703 4.7851562 C 25.689083 4.3563562 25.476626 4.9481094 24.091797 4.7871094 C 24.007757 4.7211094 24.535637 4.547375 24.970703 4.484375 C 23.731354 4.648675 23.788835 4.2385969 22.576172 4.5292969 C 22.87467 4.3187969 23.191253 4.1787 23.509766 4 z M 39.1875 14.265625 C 39.112042 14.264977 39.163291 14.583564 39.207031 14.884766 C 39.588255 15.854054 39.855099 16.82066 40 17.335938 C 39.822058 16.323138 39.534588 15.341878 39.183594 14.392578 C 39.221075 14.408447 39.237529 14.37522 39.244141 14.318359 C 39.226102 14.302076 39.198969 14.265724 39.1875 14.265625 z M 37.810547 14.466797 C 37.630112 14.466493 37.535371 14.607478 37.810547 15.46875 C 38.257174 16.12015 37.901505 14.807744 38.453125 15.964844 C 38.455459 16.109188 38.471431 16.253418 38.496094 16.400391 C 38.594371 16.567211 38.699368 16.76201 38.792969 16.777344 C 38.671526 16.061144 38.462017 15.514844 38.453125 14.964844 C 38.31522 14.675569 38.234739 14.540158 38.183594 14.490234 C 38.161163 14.49467 38.137587 14.492766 38.113281 14.492188 C 38.061349 14.571716 38.068569 14.845072 37.810547 14.46875 C 37.810303 14.467987 37.81079 14.467559 37.810547 14.466797 z M 26.103516 14.820312 C 24.136825 14.852313 22.295536 16.107703 21.681641 17.470703 C 20.674492 18.107403 20.557773 19.924612 20.119141 20.257812 C 20.006826 21.086173 19.977872 21.825323 20.023438 22.494141 C 20.037417 22.100303 20.059242 21.699585 20.119141 21.257812 C 20.557773 20.924612 20.674492 19.107403 21.681641 18.470703 C 22.166988 17.393111 23.423533 16.393535 24.898438 16.001953 C 26.945107 15.213299 29.221037 15.672174 30.654297 17.015625 C 29.803731 15.896125 28.110246 14.710412 26.103516 14.820312 z M 38.289062 17.160156 C 38.269177 17.15959 38.251558 17.170741 38.234375 17.197266 C 38.356353 17.773195 38.524326 18.153128 38.664062 18.384766 C 38.652954 18.284624 38.633972 18.243467 38.626953 18.109375 C 38.63226 17.817678 38.67292 17.738077 38.71875 17.710938 C 38.570661 17.570796 38.408378 17.163554 38.289062 17.160156 z M 38.732422 17.503906 C 38.746165 17.569682 38.762812 17.624632 38.775391 17.693359 C 38.807454 17.691555 38.83764 17.685727 38.857422 17.636719 C 38.826973 17.619096 38.783034 17.574362 38.732422 17.503906 z M 36.222656 18.285156 C 36.224447 18.365597 36.224398 18.446147 36.226562 18.527344 C 36.228426 18.447852 36.222721 18.363353 36.226562 18.285156 L 36.222656 18.285156 z M 38.708984 18.724609 C 38.667681 18.758719 38.631863 18.839471 38.626953 19.109375 C 38.658054 19.703554 38.732846 19.933721 38.820312 20.015625 C 38.950001 19.638635 39.10382 19.29934 39.171875 18.992188 C 39.052033 18.939412 38.834742 19.259759 38.708984 18.724609 z M 36.232422 19.820312 C 36.219274 20.496484 36.162972 21.175308 35.947266 21.830078 L 36.208984 21.273438 C 36.23937 20.785271 36.245013 20.300053 36.232422 19.820312 z M 8.1328125 20.585938 C 8.1172332 21.198208 8.1020004 21.890381 8.1074219 22.574219 C 8.1256669 21.815958 8.1514779 21.109654 8.1328125 20.585938 z M 38.685547 21.582031 C 38.68341 21.593972 38.679734 21.605157 38.677734 21.617188 C 38.685279 21.644615 38.698446 21.671802 38.705078 21.699219 C 38.694701 21.658697 38.693852 21.621693 38.685547 21.582031 z M 38.316406 21.628906 C 38.285687 21.889891 38.284223 22.096655 38.292969 22.28125 C 38.330614 22.034401 38.329713 21.82862 38.316406 21.628906 z M 21.269531 21.734375 C 21.232676 22.017127 21.163986 21.974378 21.087891 22.068359 C 21.057902 22.403844 21.04759 22.74108 21.074219 23.080078 C 21.15608 22.959478 21.230401 23.034575 21.269531 22.734375 C 21.201919 27.468075 26.349065 30.9387 30.054688 29.1875 L 30.099609 29.287109 C 31.602765 28.874909 31.407942 28.534722 32.390625 27.857422 C 32.314111 28.016022 31.728912 28.419688 32.078125 28.429688 C 32.555889 28.301888 34.048304 26.907353 34.783203 26.251953 C 35.119947 25.522253 34.60206 25.857053 35.072266 24.939453 L 35.648438 24.652344 C 35.968286 23.724944 36.32128 23.200494 36.28125 22.121094 L 35.986328 22.748047 C 35.879604 23.032323 35.768076 23.305452 35.648438 23.652344 L 35.072266 23.939453 C 34.60206 24.857053 35.119947 24.522253 34.783203 25.251953 C 34.048304 25.907353 32.555889 27.301888 32.078125 27.429688 C 31.728912 27.419688 32.314111 27.016022 32.390625 26.857422 C 31.407942 27.534722 31.602765 27.874909 30.099609 28.287109 L 30.054688 28.1875 C 26.349065 29.9387 21.201919 26.468075 21.269531 21.734375 z M 38.242188 22.355469 C 38.202949 22.583194 38.149888 22.828118 38.072266 23.083984 C 38.172755 22.819294 38.221399 22.619459 38.259766 22.431641 C 38.252102 22.412586 38.251995 22.366947 38.242188 22.355469 z M 8.1191406 24.226562 C 8.1162912 24.549335 8.1043253 24.872014 8.1191406 25.193359 C 8.1218707 24.939113 8.1090171 24.686441 8.1230469 24.431641 C 8.118907 24.36573 8.1222754 24.293536 8.1191406 24.226562 z M 10.052734 24.496094 C 10.00631 25.708103 10.087597 26.797637 10.496094 27.398438 L 10.582031 26.527344 C 10.224396 26.112405 10.087232 25.368524 10.052734 24.496094 z M 20.613281 26.609375 C 21.288261 27.823133 22.576225 28.886113 24.009766 29.638672 C 23.679622 29.382891 23.360913 29.129079 23.064453 28.876953 C 22.162687 28.56308 20.963303 26.686062 20.613281 26.609375 z M 10.5625 27.724609 L 10.480469 28.548828 C 10.624595 28.838828 10.734787 29.13335 10.914062 29.40625 L 10.679688 29.425781 C 11.574373 32.261314 11.810388 30.612269 12.634766 31.771484 C 12.618984 31.699631 12.59217 31.615319 12.597656 31.568359 C 12.906828 31.987559 13.12135 32.066772 13.333984 32.138672 C 11.869981 28.491472 11.787816 31.937781 10.679688 28.425781 L 10.914062 28.40625 C 10.770967 28.188426 10.669876 27.956658 10.5625 27.724609 z M 12.597656 32.568359 C 12.560285 32.888259 13.048199 33.848456 13.626953 34.597656 L 13.380859 34.878906 C 13.703385 35.468206 14.002805 35.596181 14.226562 35.800781 C 13.021904 35.140481 15.343206 37.976491 15.552734 38.337891 L 15.738281 38.007812 C 15.711147 38.484412 16.077875 39.099772 16.765625 39.951172 L 17.337891 39.927734 C 17.573656 40.397334 18.437338 41.243203 18.960938 41.283203 L 18.613281 41.738281 C 19.927382 42.155981 19.250424 42.293087 20.865234 42.867188 L 20.539062 42.289062 C 21.015942 42.704662 21.315435 43.085804 21.697266 43.443359 C 21.832296 43.484563 21.96608 43.539329 22.101562 43.576172 C 23.21013 43.975172 24.85759 43.9607 26.259766 44 C 24.605803 43.5247 24.391448 43.747894 22.779297 43.183594 C 21.6169 42.633194 21.362932 42.007063 20.539062 41.289062 L 20.865234 41.867188 C 19.250424 41.293087 19.927382 41.155981 18.613281 40.738281 L 18.960938 40.283203 C 18.437338 40.243203 17.573656 39.397334 17.337891 38.927734 L 16.765625 38.951172 C 16.077875 38.099772 15.711147 37.484412 15.738281 37.007812 L 15.552734 37.337891 C 15.343206 36.976491 13.021904 34.140481 14.226562 34.800781 C 14.002805 34.596181 13.703385 34.468206 13.380859 33.878906 L 13.626953 33.597656 C 13.509168 33.445182 13.399573 33.281904 13.292969 33.119141 C 13.092955 33.049724 12.887691 32.961612 12.597656 32.568359 z "
       transform="translate(0,1004.3622)"
       id="path4386" />
  </g>
</svg>
