<?xml version="1.0" encoding="UTF-8" standalone="no"?>
<!-- Created with Inkscape (http://www.inkscape.org/) -->

<svg
   xmlns:osb="http://www.openswatchbook.org/uri/2009/osb"
   xmlns:dc="http://purl.org/dc/elements/1.1/"
   xmlns:cc="http://creativecommons.org/ns#"
   xmlns:rdf="http://www.w3.org/1999/02/22-rdf-syntax-ns#"
   xmlns:svg="http://www.w3.org/2000/svg"
   xmlns="http://www.w3.org/2000/svg"
   xmlns:sodipodi="http://sodipodi.sourceforge.net/DTD/sodipodi-0.dtd"
   xmlns:inkscape="http://www.inkscape.org/namespaces/inkscape"
   sodipodi:docname="media-playlist-shuffle.svg"
   inkscape:export-filename="/home/sam/source-symbolic.png"
   inkscape:export-xdpi="270"
   inkscape:export-ydpi="270"
   height="16"
   id="svg7384"
   style="enable-background:new"
   version="1.1"
   inkscape:version="0.91 r"
   width="16.000196">
  <sodipodi:namedview
     inkscape:bbox-nodes="true"
     inkscape:bbox-paths="false"
     bordercolor="#666666"
     borderlayer="false"
     borderopacity="1"
     inkscape:current-layer="layer12"
     inkscape:cx="103.80178"
     inkscape:cy="-41.640748"
     gridtolerance="10"
     inkscape:guide-bbox="true"
     guidetolerance="10"
     id="namedview88"
     inkscape:object-nodes="true"
     inkscape:object-paths="true"
     objecttolerance="10"
     pagecolor="#f7f7f7"
     inkscape:pageopacity="0"
     inkscape:pageshadow="2"
     showborder="true"
     showgrid="false"
     showguides="true"
     inkscape:showpageshadow="false"
     inkscape:snap-bbox="true"
     inkscape:snap-bbox-edge-midpoints="false"
     inkscape:snap-bbox-midpoints="true"
     inkscape:snap-center="false"
     inkscape:snap-global="true"
     inkscape:snap-grids="true"
     inkscape:snap-intersection-paths="true"
     inkscape:snap-midpoints="true"
     inkscape:snap-nodes="true"
     inkscape:snap-object-midpoints="true"
     inkscape:snap-others="true"
     inkscape:snap-page="false"
     inkscape:snap-smooth-nodes="true"
     inkscape:snap-to-guides="true"
     inkscape:window-height="876"
     inkscape:window-maximized="1"
     inkscape:window-width="1535"
     inkscape:window-x="65"
     inkscape:window-y="24"
     inkscape:zoom="4.04">
    <inkscape:grid
       color="#000000"
       dotted="false"
       empcolor="#0800ff"
       empopacity="0.4627451"
       empspacing="4"
       enabled="true"
       id="grid4866"
       opacity="0.16470588"
       originx="-24.0002"
       originy="-336.00336"
       snapvisiblegridlinesonly="true"
       spacingx="0.25px"
       spacingy="0.25px"
       type="xygrid"
       visible="true" />
  </sodipodi:namedview>
  <metadata
     id="metadata90">
    <rdf:RDF>
      <cc:Work
         rdf:about="">
        <dc:format>image/svg+xml</dc:format>
        <dc:type
           rdf:resource="http://purl.org/dc/dcmitype/StillImage" />
        <dc:title>Paper Symbolic Icon Theme</dc:title>
      </cc:Work>
    </rdf:RDF>
  </metadata>
  <title
     id="title8473">Paper Symbolic Icon Theme</title>
  <defs
     id="defs7386">
    <linearGradient
       id="linearGradient5606"
       osb:paint="solid">
      <stop
         id="stop5608"
         offset="0"
         style="stop-color:#000000;stop-opacity:1;" />
    </linearGradient>
  </defs>
  <g
     inkscape:groupmode="layer"
     id="layer12"
     inkscape:label="actions"
     style="display:inline"
     transform="translate(-265.0004,119.00336)">
    <g
       transform="matrix(0.17777775,0,0,0.17777775,254.33383,-192.66773)"
       style="display:inline"
       id="g4742">
      <rect
         y="962.36218"
         x="0"
         height="90"
         width="90"
         id="rect4198"
         style="color:#000000;display:inline;overflow:visible;visibility:visible;fill:none;stroke:none;stroke-width:7.5;marker:none;enable-background:accumulate"
         transform="translate(60,-548.00002)" />
      <rect
         transform="translate(60,414.36216)"
         y="1.7382814e-05"
         x="0"
         height="90"
         width="90"
         id="rect3038"
         style="color:#000000;display:inline;overflow:visible;visibility:visible;fill:none;stroke:none;stroke-width:6;marker:none;enable-background:accumulate" />
      <path
         style="color:#000000;display:inline;overflow:visible;visibility:visible;fill:#808080;fill-opacity:1;fill-rule:nonzero;stroke:none;stroke-width:3;marker:none;enable-background:accumulate"
         d="m 122.004,452.36218 c 0,0 13.33454,-5.94407 24.996,-14.50813 0,-0.003 0,-0.006 -0.005,-0.009 0,-0.003 -0.005,-0.007 -0.006,-0.01 0,-0.003 -0.005,-0.007 -0.006,-0.01 0,-0.003 -0.005,-0.007 -0.005,-0.01 C 134.67816,428.97946 122,423.36218 122,423.36218 Z"
         id="path2194-83"
         inkscape:connector-curvature="0"
         inkscape:transform-center-x="-12.490282"
         inkscape:transform-center-y="0.008136639"
         sodipodi:nodetypes="ccsssccc" />
      <path
         inkscape:connector-curvature="0"
         id="path4093"
         d="m 63.000003,433.36218 0,9.17578 10,0 c 7.253267,0 11.824479,4.13063 15.070312,8.76563 0.14643,0.2091 0.269548,0.41435 0.408204,0.62304 0.956194,-2.32027 2.468733,-5.4233 4.71875,-8.76172 -4.414984,-5.10845 -11.107707,-9.80273 -20.197266,-9.80273 l -10,0 z m 42.519527,33.44336 c -0.98206,2.37138 -2.5104,5.45969 -4.72265,8.75 4.4269,5.11286 11.12286,9.80664 20.20312,9.80664 l 10,0 0,-9.17578 -10,0 c -7.24673,0 -11.84098,-4.14653 -15.10547,-8.80469 -0.13501,-0.19265 -0.24654,-0.38382 -0.375,-0.57617 z"
         style="color:#000000;font-style:normal;font-variant:normal;font-weight:normal;font-stretch:normal;line-height:normal;font-family:sans-serif;-inkscape-font-specification:sans-serif;text-indent:0;text-align:start;text-decoration:none;text-decoration-line:none;letter-spacing:normal;word-spacing:normal;text-transform:none;direction:ltr;block-progression:tb;writing-mode:lr-tb;baseline-shift:baseline;text-anchor:start;clip-rule:nonzero;display:inline;overflow:visible;visibility:visible;color-interpolation:sRGB;color-interpolation-filters:linearRGB;fill:#808080;fill-opacity:1;stroke:none;stroke-width:9;marker:none;color-rendering:auto;image-rendering:auto;shape-rendering:auto;text-rendering:auto;enable-background:accumulate" />
      <path
         inkscape:connector-curvature="0"
         id="path4091"
         d="m 121,433.36218 c -10.75327,0 -18.17542,6.58073 -22.427731,12.64844 -4.252313,6.06771 -5.931641,12.12695 -5.931641,12.12695 l -0.002,0.004 0,0.004 c 0,0 -1.322524,4.64038 -4.56836,9.27539 -3.245834,4.635 -7.817046,8.76563 -15.070312,8.76563 l -10,0 0,9.17578 10,0 c 10.746734,0 18.157165,-6.55653 22.394531,-12.60742 4.233069,-6.04477 5.895063,-12.07565 5.898433,-12.08789 l 0.002,-0.008 c 0.003,-0.0122 1.33939,-4.66241 4.5996,-9.31446 3.26449,-4.65816 7.85874,-8.80664 15.10547,-8.80664 l 10,0 0,-9.17578 -10,0 z"
         style="color:#000000;font-style:normal;font-variant:normal;font-weight:normal;font-stretch:normal;line-height:normal;font-family:sans-serif;-inkscape-font-specification:sans-serif;text-indent:0;text-align:start;text-decoration:none;text-decoration-line:none;letter-spacing:normal;word-spacing:normal;text-transform:none;direction:ltr;block-progression:tb;writing-mode:lr-tb;baseline-shift:baseline;text-anchor:start;clip-rule:nonzero;display:inline;overflow:visible;visibility:visible;color-interpolation:sRGB;color-interpolation-filters:linearRGB;fill:#808080;fill-opacity:1;stroke:none;stroke-width:9;marker:none;color-rendering:auto;image-rendering:auto;shape-rendering:auto;text-rendering:auto;enable-background:accumulate" />
      <path
         sodipodi:nodetypes="ccsssccc"
         inkscape:transform-center-y="0.008136639"
         inkscape:transform-center-x="-12.490282"
         inkscape:connector-curvature="0"
         id="path4282"
         d="m 122.004,495.36218 c 0,0 13.33454,-5.94407 24.996,-14.50813 0,-0.003 0,-0.006 -0.005,-0.009 0,-0.003 -0.005,-0.007 -0.006,-0.01 0,-0.003 -0.005,-0.007 -0.006,-0.01 0,-0.003 -0.005,-0.007 -0.005,-0.01 C 134.67816,471.97946 122,466.36218 122,466.36218 Z"
         style="color:#000000;display:inline;overflow:visible;visibility:visible;fill:#808080;fill-opacity:1;fill-rule:nonzero;stroke:none;stroke-width:3;marker:none;enable-background:accumulate" />
    </g>
  </g>
</svg>
