<?xml version="1.0" encoding="UTF-8" standalone="no"?>
<!-- Created with Inkscape (http://www.inkscape.org/) -->

<svg
   xmlns:dc="http://purl.org/dc/elements/1.1/"
   xmlns:cc="http://creativecommons.org/ns#"
   xmlns:rdf="http://www.w3.org/1999/02/22-rdf-syntax-ns#"
   xmlns:svg="http://www.w3.org/2000/svg"
   xmlns="http://www.w3.org/2000/svg"
   xmlns:sodipodi="http://sodipodi.sourceforge.net/DTD/sodipodi-0.dtd"
   xmlns:inkscape="http://www.inkscape.org/namespaces/inkscape"
   width="48"
   height="48"
   id="svg5453"
   version="1.1"
   inkscape:version="0.91 r13725"
   sodipodi:docname="blender.svg">
  <defs
     id="defs5455" />
  <sodipodi:namedview
     id="base"
     pagecolor="#ffffff"
     bordercolor="#666666"
     borderopacity="1.0"
     inkscape:pageopacity="0"
     inkscape:pageshadow="2"
     inkscape:zoom="1"
     inkscape:cx="12.827707"
     inkscape:cy="32.827106"
     inkscape:document-units="px"
     inkscape:current-layer="layer1"
     showgrid="false"
     fit-margin-top="0"
     fit-margin-left="0"
     fit-margin-right="0"
     fit-margin-bottom="0"
     inkscape:window-width="1600"
     inkscape:window-height="844"
     inkscape:window-x="-4"
     inkscape:window-y="32"
     inkscape:window-maximized="1"
     inkscape:showpageshadow="false"
     borderlayer="true"
     showguides="false"
     inkscape:snap-bbox="true"
     inkscape:bbox-paths="false"
     inkscape:bbox-nodes="true"
     inkscape:object-nodes="true"
     inkscape:snap-center="true">
    <inkscape:grid
       type="xygrid"
       id="grid4063" />
    <sodipodi:guide
       position="1.1650391e-05,47.999996"
       orientation="4,0"
       id="guide4146" />
    <sodipodi:guide
       position="1.1650391e-05,43.999996"
       orientation="0,48"
       id="guide4148" />
    <sodipodi:guide
       position="48.000012,43.999996"
       orientation="-4,0"
       id="guide4150" />
    <sodipodi:guide
       position="48.000012,47.999996"
       orientation="0,-48"
       id="guide4152" />
    <sodipodi:guide
       position="1.1650391e-05,4.0000264"
       orientation="4,0"
       id="guide4154" />
    <sodipodi:guide
       position="1.1650391e-05,2.6367188e-05"
       orientation="0,48"
       id="guide4156" />
    <sodipodi:guide
       position="48.000012,2.6367188e-05"
       orientation="-4,0"
       id="guide4158" />
    <sodipodi:guide
       position="48.000012,4.0000264"
       orientation="0,-48"
       id="guide4160" />
    <sodipodi:guide
       position="48.000012,48.000026"
       orientation="0,-4"
       id="guide4162" />
    <sodipodi:guide
       position="44.000012,48.000026"
       orientation="48,0"
       id="guide4164" />
    <sodipodi:guide
       position="44.000012,2.6367188e-05"
       orientation="0,4"
       id="guide4166" />
    <sodipodi:guide
       position="48.000012,2.6367188e-05"
       orientation="-48,0"
       id="guide4168" />
    <sodipodi:guide
       position="4.0000422,48.000026"
       orientation="0,-4"
       id="guide4170" />
    <sodipodi:guide
       position="4.2167969e-05,48.000026"
       orientation="48,0"
       id="guide4172" />
    <sodipodi:guide
       position="4.2167969e-05,2.6367188e-05"
       orientation="0,4"
       id="guide4174" />
    <sodipodi:guide
       position="4.0000422,43.999996"
       orientation="39.999969,0"
       id="guide4175" />
    <sodipodi:guide
       position="4.0000422,4.0000264"
       orientation="0,20"
       id="guide4177" />
    <sodipodi:guide
       position="24.000042,4.0000264"
       orientation="-39.999969,0"
       id="guide4179" />
    <sodipodi:guide
       position="24.000042,43.999996"
       orientation="0,-20"
       id="guide4181" />
    <sodipodi:guide
       position="4.0000422,23.999843"
       orientation="20,0"
       id="guide4185" />
    <sodipodi:guide
       position="44.000012,3.9998433"
       orientation="-20,0"
       id="guide4189" />
    <sodipodi:guide
       position="44.000012,23.999843"
       orientation="0,-39.999969"
       id="guide4191" />
  </sodipodi:namedview>
  <metadata
     id="metadata5458">
    <rdf:RDF>
      <cc:Work
         rdf:about="">
        <dc:format>image/svg+xml</dc:format>
        <dc:type
           rdf:resource="http://purl.org/dc/dcmitype/StillImage" />
        <dc:title></dc:title>
      </cc:Work>
    </rdf:RDF>
  </metadata>
  <g
     inkscape:label="Capa 1"
     inkscape:groupmode="layer"
     id="layer1"
     transform="translate(-384.57143,-499.798)">
    <path
       style="opacity:1;fill:#f4b43f;fill-opacity:1;stroke:none;stroke-width:2;stroke-linecap:round;stroke-linejoin:round;stroke-miterlimit:4;stroke-dasharray:none;stroke-opacity:1"
       d="M 22.845703 4.0019531 A 2.9960042 2.9982935 0 0 0 21.142578 9.4003906 L 24.546875 12.021484 L 7.9921875 12.021484 A 2.9960042 2.9982935 0 1 0 7.9921875 18.017578 L 15.5 18.017578 L 3.234375 26.935547 A 2.9960042 2.9982935 0 1 0 6.7539062 31.785156 L 13.023438 27.228516 A 15.977064 15.989273 0 0 0 12.984375 28.009766 A 15.977064 15.989273 0 0 0 28.960938 44 A 15.977064 15.989273 0 0 0 44.9375 28.009766 A 15.977064 15.989273 0 0 0 37.992188 14.822266 A 2.9960042 2.9982935 0 0 0 37.777344 14.640625 L 24.794922 4.6464844 A 2.9960042 2.9982935 0 0 0 22.845703 4.0019531 z M 29 18 A 9.9999886 9.9999886 0 0 1 39 28 A 9.9999886 9.9999886 0 0 1 29 38 A 9.9999886 9.9999886 0 0 1 19 28 A 9.9999886 9.9999886 0 0 1 29 18 z "
       transform="translate(384.57143,499.798)"
       id="path4184" />
    <circle
       style="opacity:1;fill:#408ef4;fill-opacity:1;stroke:none;stroke-width:1;stroke-linecap:round;stroke-linejoin:round;stroke-miterlimit:4;stroke-dasharray:none;stroke-opacity:1"
       id="path4178"
       cx="413.57144"
       cy="527.79797"
       r="5" />
    <path
       style="opacity:0.3;fill:#000000;fill-opacity:1;stroke:none;stroke-width:2;stroke-linecap:round;stroke-linejoin:round;stroke-miterlimit:4;stroke-dasharray:none;stroke-opacity:1"
       d="M 19.984375 6.5039062 A 2.9960042 2.9982935 0 0 0 21.142578 9.4003906 L 23.248047 11.021484 L 24.546875 11.021484 L 21.142578 8.4003906 A 2.9960042 2.9982935 0 0 1 19.984375 6.5039062 z M 5.0019531 14.513672 A 2.9960042 2.9982935 0 0 0 7.9921875 18.017578 L 14.125 18.017578 L 15.5 17.017578 L 7.9921875 17.017578 A 2.9960042 2.9982935 0 0 1 5.0019531 14.513672 z M 29 17 A 9.9999886 9.9999886 0 0 0 19 27 A 9.9999886 9.9999886 0 0 0 19.021484 27.585938 A 9.9999886 9.9999886 0 0 1 29 18 A 9.9999886 9.9999886 0 0 1 38.978516 27.414062 A 9.9999886 9.9999886 0 0 0 39 27 A 9.9999886 9.9999886 0 0 0 29 17 z M 13.023438 26.228516 L 6.7539062 30.785156 A 2.9960042 2.9982935 0 0 1 1.9667969 28.90625 A 2.9960042 2.9982935 0 0 0 6.7539062 31.785156 L 12.996094 27.248047 A 15.977064 15.989273 0 0 1 12.984375 27.009766 A 15.977064 15.989273 0 0 1 13.023438 26.228516 z M 33.972656 27.484375 A 5 5 0 0 1 29 32 A 5 5 0 0 1 24.027344 27.515625 A 5 5 0 0 0 24 28 A 5 5 0 0 0 29 33 A 5 5 0 0 0 34 28 A 5 5 0 0 0 33.972656 27.484375 z M 13.009766 27.509766 A 15.977064 15.989273 0 0 0 12.984375 28.009766 A 15.977064 15.989273 0 0 0 28.960938 44 A 15.977064 15.989273 0 0 0 44.9375 28.009766 A 15.977064 15.989273 0 0 0 44.917969 27.601562 A 15.977064 15.989273 0 0 1 28.960938 43 A 15.977064 15.989273 0 0 1 13.009766 27.509766 z "
       transform="translate(384.57143,499.798)"
       id="path4180" />
    <path
       style="opacity:0.2;fill:#ffffff;fill-opacity:1;stroke:none;stroke-width:2;stroke-linecap:round;stroke-linejoin:round;stroke-miterlimit:4;stroke-dasharray:none;stroke-opacity:1"
       d="M 22.845703 4.0019531 A 2.9960042 2.9982935 0 0 0 19.984375 7.5039062 A 2.9960042 2.9982935 0 0 1 22.845703 5.0019531 A 2.9960042 2.9982935 0 0 1 24.794922 5.6464844 L 37.777344 15.640625 A 2.9960042 2.9982935 0 0 1 37.992188 15.822266 A 15.977064 15.989273 0 0 1 44.917969 28.601562 A 15.977064 15.989273 0 0 0 44.9375 28.009766 A 15.977064 15.989273 0 0 0 37.992188 14.822266 A 2.9960042 2.9982935 0 0 0 37.777344 14.640625 L 24.794922 4.6464844 A 2.9960042 2.9982935 0 0 0 22.845703 4.0019531 z M 7.9921875 12.021484 A 2.9960042 2.9982935 0 0 0 5.0019531 15.513672 A 2.9960042 2.9982935 0 0 1 7.9921875 13.021484 L 24.546875 13.021484 L 23.248047 12.021484 L 7.9921875 12.021484 z M 14.125 19.017578 L 3.234375 26.935547 A 2.9960042 2.9982935 0 0 0 1.9667969 29.90625 A 2.9960042 2.9982935 0 0 1 3.234375 27.935547 L 15.5 19.017578 L 14.125 19.017578 z M 29 23 A 5 5 0 0 0 24 28 A 5 5 0 0 0 24.027344 28.515625 A 5 5 0 0 1 29 24 A 5 5 0 0 1 33.972656 28.484375 A 5 5 0 0 0 34 28 A 5 5 0 0 0 29 23 z M 13.023438 28.228516 L 12.996094 28.248047 A 15.977064 15.989273 0 0 0 13.009766 28.509766 A 15.977064 15.989273 0 0 1 13.023438 28.228516 z M 38.978516 28.414062 A 9.9999886 9.9999886 0 0 1 29 38 A 9.9999886 9.9999886 0 0 1 19.021484 28.585938 A 9.9999886 9.9999886 0 0 0 19 29 A 9.9999886 9.9999886 0 0 0 29 39 A 9.9999886 9.9999886 0 0 0 39 29 A 9.9999886 9.9999886 0 0 0 38.978516 28.414062 z "
       transform="translate(384.57143,499.798)"
       id="path4187" />
  </g>
</svg>
