<?xml version="1.0" encoding="UTF-8" standalone="no"?>
<!-- Created with Inkscape (http://www.inkscape.org/) -->

<svg
   xmlns:dc="http://purl.org/dc/elements/1.1/"
   xmlns:cc="http://creativecommons.org/ns#"
   xmlns:rdf="http://www.w3.org/1999/02/22-rdf-syntax-ns#"
   xmlns:svg="http://www.w3.org/2000/svg"
   xmlns="http://www.w3.org/2000/svg"
   xmlns:xlink="http://www.w3.org/1999/xlink"
   xmlns:sodipodi="http://sodipodi.sourceforge.net/DTD/sodipodi-0.dtd"
   xmlns:inkscape="http://www.inkscape.org/namespaces/inkscape"
   id="svg2817"
   height="48"
   width="48"
   version="1.0"
   inkscape:version="0.91 r"
   sodipodi:docname="gimp.svg">
  <metadata
     id="metadata57">
    <rdf:RDF>
      <cc:Work
         rdf:about="">
        <dc:format>image/svg+xml</dc:format>
        <dc:type
           rdf:resource="http://purl.org/dc/dcmitype/StillImage" />
        <dc:title />
      </cc:Work>
    </rdf:RDF>
  </metadata>
  <sodipodi:namedview
     pagecolor="#afafaf"
     bordercolor="#666666"
     borderopacity="1"
     objecttolerance="10"
     gridtolerance="10"
     guidetolerance="10"
     inkscape:pageopacity="0"
     inkscape:pageshadow="2"
     inkscape:window-width="1600"
     inkscape:window-height="840"
     id="namedview55"
     showgrid="false"
     inkscape:zoom="1"
     inkscape:cx="8.5956159"
     inkscape:cy="17.778261"
     inkscape:window-x="-4"
     inkscape:window-y="34"
     inkscape:window-maximized="1"
     inkscape:current-layer="svg2817" />
  <defs
     id="defs2819">
    <linearGradient
       id="linearGradient2815"
       y2="17.5"
       spreadMethod="reflect"
       gradientUnits="userSpaceOnUse"
       x2="3.0052"
       y1="17.5"
       x1="44.995">
      <stop
         id="stop3277"
         style="stop-color:#fff;stop-opacity:0"
         offset="0" />
      <stop
         id="stop3283"
         style="stop-color:#fff"
         offset=".245" />
      <stop
         id="stop3285"
         style="stop-color:#fff"
         offset=".77350" />
      <stop
         id="stop3279"
         style="stop-color:#fff;stop-opacity:0"
         offset="1" />
    </linearGradient>
    <linearGradient
       id="linearGradient2813"
       y2="8"
       gradientUnits="userSpaceOnUse"
       x2="26"
       y1="22"
       x1="26">
      <stop
         id="stop3829"
         style="stop-color:#fff"
         offset="0" />
      <stop
         id="stop4295"
         style="stop-color:#fff"
         offset=".30213" />
      <stop
         id="stop4293"
         style="stop-color:#fff;stop-opacity:.69020"
         offset=".34361" />
      <stop
         id="stop3832"
         style="stop-color:#fff;stop-opacity:0"
         offset="1" />
    </linearGradient>
    <linearGradient
       id="linearGradient2811"
       y2="45.934"
       gradientUnits="userSpaceOnUse"
       x2="43.007"
       gradientTransform="matrix(1.2822 0 0 1.1747 -6.0702 -5.3032)"
       y1="30.555"
       x1="23.452">
      <stop
         id="stop4561"
         style="stop-color:#fff;stop-opacity:0"
         offset="0" />
      <stop
         id="stop4563"
         style="stop-color:#fff;stop-opacity:0"
         offset="1" />
    </linearGradient>
    <linearGradient
       id="linearGradient2809"
       y2="45.042"
       gradientUnits="userSpaceOnUse"
       x2="15.464"
       y1="7.9757"
       x1="15.464">
      <stop
         id="stop3297"
         style="stop-color:#c9af8b"
         offset="0" />
      <stop
         id="stop3299"
         style="stop-color:#ad8757"
         offset=".23942" />
      <stop
         id="stop3301"
         style="stop-color:#c2a57f"
         offset=".27582" />
      <stop
         id="stop3303"
         style="stop-color:#9d7d53"
         offset="1" />
    </linearGradient>
    <linearGradient
       id="linearGradient2807"
       y2="37.277"
       gradientUnits="userSpaceOnUse"
       x2="24.997"
       gradientTransform="matrix(1.2822 0 0 1.5573 -6.0702 -15.291)"
       y1="15.378"
       x1="24.823">
      <stop
         id="stop3201"
         style="stop-color:#dac197"
         offset="0" />
      <stop
         id="stop3203"
         style="stop-color:#c1a581"
         offset=".23942" />
      <stop
         id="stop3205"
         style="stop-color:#dbc298"
         offset=".27582" />
      <stop
         id="stop3207"
         style="stop-color:#a68b60"
         offset="1" />
    </linearGradient>
    <radialGradient
       id="radialGradient2805"
       xlink:href="#linearGradient3681"
       gradientUnits="userSpaceOnUse"
       cy="41.5"
       cx="5"
       gradientTransform="matrix(.59382 0 0 1.5367 41.141 -103.94)"
       r="5" />
    <linearGradient
       id="linearGradient2803"
       y2="35"
       gradientUnits="userSpaceOnUse"
       x2="17.554"
       gradientTransform="matrix(1.757 0 0 1.397 -17.394 -16.412)"
       y1="46"
       x1="17.554">
      <stop
         id="stop3705"
         style="stop-opacity:0"
         offset="0" />
      <stop
         id="stop3711"
         offset=".5" />
      <stop
         id="stop3707"
         style="stop-opacity:0"
         offset="1" />
    </linearGradient>
    <linearGradient
       id="linearGradient3681">
      <stop
         id="stop3683"
         offset="0" />
      <stop
         id="stop3685"
         style="stop-opacity:0"
         offset="1" />
    </linearGradient>
    <radialGradient
       id="radialGradient2801"
       xlink:href="#linearGradient3681"
       gradientUnits="userSpaceOnUse"
       cy="41.5"
       cx="5"
       gradientTransform="matrix(.59382 0 0 1.5367 -6.6595 -103.94)"
       r="5" />
    <linearGradient
       id="linearGradient2789"
       y2="25.411"
       gradientUnits="userSpaceOnUse"
       x2="57.726"
       gradientTransform="matrix(0 .71282 -.67402 0 50.746 15.046)"
       y1="25.411"
       x1="13.472">
      <stop
         id="stop4224"
         style="stop-color:#fff"
         offset="0" />
      <stop
         id="stop4226"
         style="stop-color:#fff;stop-opacity:0"
         offset="1" />
    </linearGradient>
    <linearGradient
       id="linearGradient2787"
       y2="20.71"
       gradientUnits="userSpaceOnUse"
       x2=".81572"
       gradientTransform="matrix(0 -.61460 -.58384 0 46.949 46.633)"
       y1="20.71"
       x1="28.315">
      <stop
         id="stop2266"
         style="stop-color:#d7e866"
         offset="0" />
      <stop
         id="stop2268"
         style="stop-color:#8cab2a"
         offset="1" />
    </linearGradient>
    <radialGradient
       r="5"
       gradientTransform="matrix(.59382 0 0 1.5367 41.141 -103.94)"
       cx="5"
       cy="41.5"
       gradientUnits="userSpaceOnUse"
       xlink:href="#linearGradient3681"
       id="radialGradient2805-9" />
    <radialGradient
       r="5"
       gradientTransform="matrix(.59382 0 0 1.5367 -6.6595 -103.94)"
       cx="5"
       cy="41.5"
       gradientUnits="userSpaceOnUse"
       xlink:href="#linearGradient3681"
       id="radialGradient2801-3" />
  </defs>
  <path
     inkscape:connector-curvature="0"
     style="opacity:1;fill:#ffffff;fill-opacity:1;fill-rule:nonzero;stroke:none;stroke-opacity:1"
     d="m 20.19746,29.316806 a 3.96269,5.2823989 0 0 1 -5.07685,3.156015 3.96269,5.2823989 0 0 1 -2.371773,-6.764977 3.96269,5.2823989 0 0 1 5.072895,-3.167291 3.96269,5.2823989 0 0 1 2.380229,6.759698"
     id="path4238" />
  <path
     style="fill:#765d40;fill-opacity:1;stroke-width:0.45385963"
     d="m 26.319738,4.3367185 c -1.030225,2.0601032 -1.70996,4.3347044 -2.933117,6.2547925 -0.95728,1.502728 -2.021487,2.943589 -3.395651,4.038757 2.667947,-1.15794 5.876588,-1.663685 7.896835,-2.755716 0.06932,-0.03906 0.143767,-0.08143 0.214698,-0.121502 C 27.785459,9.2314121 27.219185,6.7134123 26.319738,4.3367254 Z"
     id="path3342-7"
     inkscape:connector-curvature="0"
     sodipodi:nodetypes="cacccc" />
  <path
     style="fill:#765d40;fill-opacity:1;stroke-width:0.45385963"
     d="m 42.746248,9.4096913 c -2.164445,0.4463692 0.319788,3.1272787 -0.198246,4.5905937 1.878689,-0.61933 2.252205,-3.973722 0.198246,-4.5905937 z m 0.898083,5.6691527 c -0.104465,0.0016 -0.219425,0.04694 -0.290938,0.108492 -1.350783,1.162914 -0.420507,3.63421 -1.322331,5.083033 0.637401,0.04315 1.27767,-0.206654 1.840219,-0.472652 1.82952,-0.711826 1.158,-3.650775 -0.06188,-4.668817 -0.04349,-0.0363 -0.102393,-0.05105 -0.165064,-0.05007 z m -2.793423,0.112541 c -0.650698,-0.0057 -0.429159,2.020166 0.285788,2.053958 0.604816,0.02858 0.670524,-1.175969 0.416528,-1.706464 -0.110352,-0.230475 -0.536452,-0.34606 -0.702316,-0.347494 z m 0.743316,5.642558 c -2.122381,0.745973 -4.356196,1.579932 -6.636072,1.831616 3.66e-4,-2.4e-5 9.74e-4,-4.5e-5 0.0013,-9.3e-5 0.02392,-0.0013 0.04646,-0.0019 0.06904,-0.0024 0.01013,-1.44e-4 0.02082,-7.2e-4 0.0307,-8.64e-4 0.02118,-1.43e-4 0.04091,1.44e-4 0.06065,7.2e-4 0.0097,1.44e-4 0.01964,1.44e-4 0.0289,7.2e-4 0.01686,7.2e-4 0.0324,0.0022 0.04796,0.0036 0.01133,0.0012 0.02298,0.0019 0.03365,0.0035 0.02078,0.0028 0.04064,0.0061 0.05846,0.01038 1.22e-4,4.4e-5 3.65e-4,4.5e-5 6.08e-4,9.7e-5 7.29e-4,1.44e-4 0.0013,2.87e-4 0.0021,4.31e-4 0.0091,0.0022 0.01774,0.0047 0.02593,0.0074 0.0013,2.89e-4 0.0025,8.65e-4 0.0039,0.0014 0.0079,0.0028 0.01559,0.0057 0.0227,0.0088 1.23e-4,4.5e-5 1.23e-4,1.45e-4 3.66e-4,1.45e-4 3.63e-4,1.44e-4 9.71e-4,2.88e-4 0.0012,7.18e-4 0.0076,0.0035 0.01476,0.0073 0.02127,0.01125 0.03328,0.02066 0.0527,0.04887 0.05598,0.08623 1.22e-4,0.0017 6.08e-4,0.0033 6.08e-4,0.005 1.2e-4,0.0057 -1.22e-4,0.01194 -6.08e-4,0.01805 -1.21e-4,0.0026 -1.21e-4,0.005 -6.08e-4,0.0076 -9.72e-4,0.0062 -0.0022,0.01298 -0.0039,0.01979 -6.06e-4,0.0028 -0.0012,0.0055 -0.0019,0.0083 -0.0018,0.0067 -0.0043,0.01367 -0.0069,0.02079 -0.0013,0.0036 -0.0024,0.0071 -0.0039,0.01073 -0.0027,0.0066 -0.0058,0.01332 -0.0091,0.02024 -0.0022,0.0047 -0.0045,0.0093 -0.007,0.01419 -0.0036,0.0069 -0.0075,0.01401 -0.01163,0.02116 -0.0031,0.0054 -0.0063,0.01073 -0.0097,0.01626 -0.0043,0.0071 -0.0091,0.01436 -0.01401,0.02182 -0.004,0.0062 -0.0082,0.01246 -0.01267,0.01877 -0.0051,0.0073 -0.01043,0.01453 -0.01592,0.02209 -0.0051,0.0069 -0.01043,0.01401 -0.01592,0.02107 -0.0067,0.0087 -0.01386,0.01761 -0.02116,0.0267 -0.0031,0.0038 -0.0064,0.0078 -0.0097,0.01177 -0.02242,0.02707 -0.04792,0.056 -0.0761,0.08642 -0.01859,0.02005 -0.0406,0.04211 -0.06179,0.06368 -0.01633,0.01661 -0.03109,0.03233 -0.04902,0.04988 -0.02504,0.02453 -0.05407,0.05138 -0.0823,0.07777 -0.01893,0.0177 -0.03586,0.03417 -0.05626,0.05273 -0.04996,0.04543 -0.104092,0.09335 -0.16316,0.144113 -0.06668,0.08554 -0.126299,0.170498 -0.179081,0.254823 -0.158402,0.253037 -0.255562,0.500243 -0.299903,0.739531 -0.0075,0.03988 -0.01326,0.07948 -0.01784,0.118907 -3e-6,2.8e-5 4e-6,4.3e-5 0,9.5e-5 -0.01738,0.152609 -0.01282,0.301691 0.01043,0.446883 7.29e-4,0.0048 0.0011,0.0097 0.0019,0.01453 6e-6,3.3e-5 -4e-6,4.6e-5 0,9.8e-5 0.0063,0.0374 0.01401,0.07458 0.02279,0.111451 0.02654,0.110724 0.06424,0.218923 0.112036,0.324396 0.01593,0.03515 0.03297,0.06993 0.05111,0.104444 1.9e-5,3.6e-5 8.1e-5,4.3e-5 8.1e-5,9.5e-5 0.01812,0.0345 0.03735,0.06867 0.05759,0.102524 1.3e-5,2.6e-5 -1.5e-5,4.8e-5 0,9.8e-5 0.02026,0.03386 0.04158,0.06739 0.0639,0.100586 0.02234,0.03325 0.04568,0.06618 0.06999,0.09875 0.02431,0.03256 0.04951,0.06469 0.07571,0.09654 2.7e-5,3.5e-5 4.2e-5,4.7e-5 8.2e-5,9.7e-5 0.0524,0.0637 0.108489,0.125931 0.16802,0.186722 0.238153,0.243189 0.530935,0.462547 0.858701,0.653118 -0.01632,0.03993 -0.03537,0.08024 -0.05694,0.120914 -0.01073,0.02035 -0.02224,0.04078 -0.03423,0.0613 -0.01207,0.02054 -0.02452,0.04112 -0.03766,0.06185 -0.02626,0.04138 -0.05474,0.08306 -0.08515,0.125066 -0.03043,0.04202 -0.06276,0.08432 -0.09679,0.1269 -0.06802,0.08512 -0.142709,0.171327 -0.221805,0.25832 -0.07908,0.08699 -0.162569,0.174752 -0.248311,0.263104 -0.214341,0.220863 -0.442658,0.445205 -0.650247,0.669038 -0.311424,0.335796 -0.576322,0.670504 -0.678378,0.990766 -0.0069,0.02135 -0.01282,0.04256 -0.01821,0.06377 -0.0054,0.02125 -0.0098,0.04239 -0.01356,0.06349 -0.0076,0.04213 -0.01192,0.08401 -0.01282,0.125516 -10e-7,3.3e-5 0,4.6e-5 0,9.7e-5 -9.73e-4,0.04154 0.0016,0.08271 0.0079,0.123595 0.0031,0.02043 0.0072,0.04076 0.01222,0.06102 0.0051,0.02029 0.01103,0.04045 0.01802,0.06055 0.01401,0.0401 0.03194,0.07986 0.05416,0.119184 2.1e-5,3.6e-5 8.3e-5,4.3e-5 8.3e-5,9.5e-5 0.01118,0.01964 0.02324,0.0392 0.03652,0.05861 0.01327,0.0195 0.02772,0.03879 0.0433,0.05806 0.03109,0.03848 0.0668,0.07656 0.107282,0.114115 0.02023,0.01877 0.0416,0.03744 0.06427,0.05595 0.04538,0.03709 0.09573,0.07363 0.151333,0.109703 0.05558,0.03606 0.116448,0.07159 0.182802,0.106572 0.05571,0.02936 0.116194,0.05822 0.179846,0.08678 0.01222,0.0055 0.02349,0.01107 0.03595,0.01644 0.07768,0.03384 0.161135,0.06704 0.250697,0.09967 0.04334,0.0036 0.08367,0.01038 0.121873,0.01913 0.0036,8.63e-4 0.0075,0.0014 0.01103,0.0022 2.7e-5,7e-6 3.9e-5,-1.1e-5 7.9e-5,0 0.0048,0.0011 0.0091,0.0028 0.01386,0.004 0.03587,0.0095 0.06992,0.02111 0.101365,0.03507 0.01779,0.008 0.03485,0.01644 0.0513,0.02567 0.01646,0.0092 0.03224,0.01907 0.0474,0.02955 3.6e-5,2.6e-5 4.4e-5,4.3e-5 8.4e-5,9.5e-5 0.0303,0.02095 0.05808,0.04434 0.08354,0.06995 0.01267,0.0128 0.02493,0.02609 0.03651,0.03995 1.7e-5,1.8e-5 -1.3e-5,9.5e-5 0,9.5e-5 0.01163,0.01384 0.02267,0.0282 0.03319,0.04306 1.5e-5,2e-5 -1.6e-5,9.6e-5 0,9.6e-5 0.01043,0.01488 0.02054,0.03019 0.03003,0.04602 0.0095,0.01592 0.01844,0.0322 0.02699,0.04896 0.02561,0.05019 0.04699,0.104219 0.06485,0.161328 0.01529,0.04893 0.02737,0.100707 0.03795,0.153595 0.0018,0.0088 0.0042,0.01713 0.0058,0.02604 0.0078,0.04162 0.01416,0.08418 0.01956,0.127557 0.0054,0.04334 0.0098,0.08739 0.01341,0.131969 4e-6,3.3e-5 -3e-6,4.5e-5 0,9.7e-5 0.0036,0.04455 0.0064,0.0896 0.0086,0.13491 8.1e-5,0.0016 8.1e-5,0.0031 1.21e-4,0.0047 0.0042,0.0892 0.0063,0.179326 0.0076,0.268628 0.0013,0.09083 0.0019,0.180722 0.0037,0.2678 0.0025,0.130654 0.0076,0.254843 0.02069,0.366084 0.0043,0.03708 0.0097,0.07263 0.01611,0.106572 0.0033,0.01695 0.0067,0.03356 0.01043,0.04969 0.0037,0.01609 0.0079,0.03168 0.01237,0.04685 0.0045,0.01522 0.0092,0.02989 0.01446,0.04408 0.0051,0.01419 0.01058,0.02775 0.0165,0.04086 0.0019,0.0043 0.004,0.0081 0.0061,0.01228 0.01028,0.02137 0.0214,0.0415 0.03404,0.05964 0.0076,0.0109 0.01557,0.02097 0.02403,0.03055 0.02538,0.02875 0.05489,0.05178 0.08944,0.06829 0.03453,0.01644 0.07404,0.02647 0.11919,0.02908 0.03011,0.0017 0.06267,1.44e-4 0.09803,-0.0048 0.01768,-0.0026 0.03605,-0.0059 0.05512,-0.01021 0.03814,-0.0086 0.07916,-0.02088 0.123199,-0.03699 0.02203,-0.0081 0.04479,-0.01713 0.06837,-0.02715 0.09431,-0.04012 0.20125,-0.09621 0.322597,-0.170255 0.03033,-0.01851 0.06157,-0.03811 0.09373,-0.05889 0.06272,-0.061 0.119697,-0.115101 0.173074,-0.16491 0.02069,-0.01929 0.03884,-0.03552 0.05817,-0.05318 0.03185,-0.02913 0.06288,-0.05732 0.09116,-0.08218 0.01733,-0.01523 0.03346,-0.02903 0.0495,-0.0427 0.02605,-0.02223 0.05054,-0.04268 0.07324,-0.06092 0.01941,-0.01557 0.03912,-0.03159 0.05616,-0.04436 0.0034,-0.0026 0.007,-0.0054 0.01043,-0.0078 0.02413,-0.01778 0.04579,-0.03263 0.06513,-0.04472 0.0079,-0.0048 0.01552,-0.0095 0.0226,-0.01349 0.0031,-0.0017 0.0063,-0.0038 0.0092,-0.0054 0.0095,-0.005 0.01835,-0.0092 0.02641,-0.01263 0.0011,-2.87e-4 0.0022,-0.0012 0.0031,-0.0014 0.0091,-0.0036 0.01724,-0.0062 0.0245,-0.0076 0.0011,-1.44e-4 0.0019,-9.6e-5 0.003,-1.44e-4 0.0058,-8.63e-4 0.01088,-0.0012 0.01546,-7.2e-4 0.0015,1.46e-4 0.0027,7.2e-4 0.004,8.64e-4 0.0037,8.63e-4 0.007,0.0022 0.0098,0.0043 9.71e-4,7.18e-4 0.0016,0.0014 0.0025,0.0021 0.0027,0.0026 0.0049,0.0059 0.0066,0.0099 3.66e-4,7.2e-4 6.08e-4,0.0014 9.74e-4,0.0021 0.0016,0.005 0.0027,0.0109 0.0027,0.01785 0,0.0073 -6.06e-4,0.0154 -0.0022,0.02457 1.958885,-3.718107 4.135447,-7.522939 4.269469,-11.782611 z"
     id="path3344"
     inkscape:connector-curvature="0"
     sodipodi:nodetypes="cccsccccssssscccccccscccccscccccccccccccccccccccccscsscssccccccscccccsccscccscsssscccccsccccccccssccccccscccccccccccsccsccccssscsccccccscccsscccccccccsccccccccccccccc" />
  <path
     style="fill:#765d40;fill-opacity:1;stroke-width:0.45385963"
     d="m 6.089476,34.534347 c -1.2904654,1.141759 -3.9261726,1.142256 -2.8280405,3.555933 0.5900292,1.079339 1.0438087,1.952978 1.7696583,2.790088 0.052687,-0.04223 0.096714,-0.08322 0.1254947,-0.115135 0.565984,-0.627443 1.2823588,-2.862322 1.2814229,-4.889865 -2.43e-4,-0.788418 -0.1698397,-1.219753 -0.3485339,-1.341023 z"
     id="path3340"
     inkscape:connector-curvature="0"
     sodipodi:nodetypes="ccccsc" />
  <path
     id="path3342-8"
     d="M 36.919921,2.9999998 C 36.039748,7.0051303 31.292405,9.8285882 28.084292,11.641844 27.764685,9.1572147 27.206914,6.6775598 26.320621,4.3356275 c -1.030225,2.0601043 -1.710539,4.3350596 -2.933697,6.2551475 -0.904361,1.419654 -1.913381,2.775464 -3.17979,3.845378 -0.08935,0.03687 -0.183784,0.06682 -0.271997,0.105109 l 0,0.0026 c -0.653892,0.2838 -1.275837,0.603935 -1.839228,0.984417 -2.549886,1.722056 -4.403967,4.070355 -5.847964,6.798627 -1.942616,3.67035 -0.598026,8.389211 -5.912726,11.900162 -0.08804,0.123774 -0.196328,0.236597 -0.3194901,0.343519 0.00596,-0.0052 0.011427,-0.01024 0.01727,-0.01538 0.1786929,0.12128 0.349368,0.554899 0.3497123,1.343318 8.51e-4,2.027544 -0.716294,4.261314 -1.282278,4.888756 -0.02869,0.0318 -0.072772,0.07329 -0.1252055,0.115361 1.8964808,2.187201 4.6413773,3.676535 7.6116356,3.978684 0.237564,0.03033 0.507086,0.04406 0.768504,0.06152 -0.02051,7.91e-4 -0.0444,0.0045 -0.06476,0.0051 0.06214,0.0043 0.126952,0.0014 0.189967,0.0051 0.640425,0.03801 1.2435,0.05022 1.856496,0.04615 0.682801,-0.0033 1.289741,-0.01967 1.668689,-0.02052 7.422619,-0.02188 14.494916,-4.100526 18.744139,-9.887747 0.207864,-0.298626 0.790202,-1.119199 1.189453,-1.753493 0.07842,-0.123682 0.137101,-0.214559 0.196444,-0.317884 0.03813,-0.06655 0.08084,-0.138073 0.10794,-0.192269 0.01777,-0.0354 0.02654,-0.06054 0.03886,-0.08973 0.02558,-0.06044 0.0343,-0.102103 0.03238,-0.130743 -0.001,-0.01313 0.0013,-0.02817 -0.0065,-0.03333 -0.0044,-0.0033 0.0028,-0.02019 -0.0043,-0.02051 -0.01953,-8.57e-4 -0.07756,0.04451 -0.118729,0.06921 -0.02818,0.01689 -0.04266,0.01853 -0.08203,0.04871 -0.112022,0.08608 -0.262371,0.216711 -0.477077,0.425555 -0.250855,0.162106 -0.442665,0.250698 -0.593647,0.287122 -0.06007,0.01439 -0.110515,0.01771 -0.157586,0.01538 -0.0094,-4.36e-4 -0.02134,0.0037 -0.03022,0.0026 l -0.0022,0 c -0.04475,-0.0056 -0.08075,-0.02342 -0.114412,-0.04358 -0.531625,-0.318997 0.224133,-2.348188 -0.945518,-2.448223 -2.864978,-1.043812 0.488226,-2.721149 1.01028,-3.999193 -1.311068,-0.762285 -2.062257,-1.984209 -0.995169,-3.353169 1.959714,-1.684298 -1.211161,-0.359659 -1.68164,-0.948526 2.503618,-3.312766 4.879146,-6.928843 5.407585,-11.087505 0.331917,-2.8878304 -0.08558,-6.0068833 -1.603857,-8.5214472 z M 16.550268,23.103633 c 1.514369,-0.0022 1.627097,2.784322 1.793893,4.035083 0.252037,1.871268 0.545365,3.972771 -1.789576,4.673415 -0.158648,0.08013 -0.771435,0.545714 -0.591488,-0.02819 0.663774,-1.366518 -0.486982,-4.817244 -2.262335,-3.101939 -0.176884,-1.947414 0.411765,-4.172432 2.111225,-5.393783 0.277759,-0.12678 0.521946,-0.18426 0.738281,-0.184583 z M 5.9768721,34.603875 c -0.010279,0.0087 -0.019729,0.01721 -0.030222,0.02563 0.010434,-0.0085 0.019878,-0.01704 0.030222,-0.02563 z"
     style="fill:#836c50;fill-opacity:1;stroke-width:0.45385963"
     inkscape:connector-curvature="0"
     sodipodi:nodetypes="cccscccsscccccccccccccccccccccccccccccccccccccccccccc" />
  <path
     style="opacity:1;fill:#765d40;fill-opacity:1;fill-rule:evenodd;stroke:none;stroke-width:2.3958447;stroke-linecap:butt;stroke-linejoin:round;stroke-miterlimit:4;stroke-dasharray:none;stroke-dashoffset:0;stroke-opacity:1"
     id="path4237"
     sodipodi:type="arc"
     sodipodi:cx="22.639578"
     sodipodi:cy="18.042763"
     sodipodi:rx="0.53205293"
     sodipodi:ry="0.74661815"
     sodipodi:start="0.34945506"
     sodipodi:end="0.34612148"
     sodipodi:open="true"
     d="m 23.139473,18.298394 a 0.53205293,0.74661815 0 0 1 -0.681646,0.446074 0.53205293,0.74661815 0 0 1 -0.318447,-0.956167 0.53205293,0.74661815 0 0 1 0.681115,-0.447667 0.53205293,0.74661815 0 0 1 0.319583,0.95542"
     transform="matrix(0.84796931,0.53004533,-0.26450897,0.96438322,0,0)" />
  <path
     sodipodi:nodetypes="cccsccccssssscccccccscccccscccccccccccccccccccccccscsscssccccccscccccsccscccscsssscccccsccccccccssccccccscccccccccccsccsccccssscsccccccscccsscccccccccsccccccccccccccc"
     inkscape:connector-curvature="0"
     id="path4227"
     d="m 42.746247,9.4096917 c -2.164445,0.44637 0.319788,3.1272793 -0.198246,4.5905943 1.878689,-0.61933 2.252205,-3.973722 0.198246,-4.5905943 z m 0.898083,5.6691533 c -0.10447,0.0016 -0.219425,0.04694 -0.290937,0.108496 -1.350785,1.162913 -0.420508,3.63421 -1.322332,5.083033 0.637401,0.04314 1.27767,-0.206654 1.840219,-0.472652 1.82952,-0.711827 1.158,-3.650776 -0.06188,-4.668818 -0.04349,-0.03629 -0.102391,-0.05106 -0.165063,-0.05007 z m -2.793422,0.112538 c -0.6507,-0.0056 -0.42916,2.020166 0.285788,2.053958 0.604815,0.02859 0.670523,-1.175968 0.416527,-1.706464 -0.11035,-0.230474 -0.536452,-0.34606 -0.702315,-0.347494 z m 0.743316,5.642558 c -2.122382,0.745973 -4.356196,1.579932 -6.636072,1.831616 3.65e-4,-2.3e-5 9.73e-4,-4.4e-5 0.0013,-9.3e-5 0.02392,-0.0013 0.04645,-0.002 0.06903,-0.0024 0.01017,-1.44e-4 0.02082,-7.2e-4 0.0307,-8.63e-4 0.02118,-1.45e-4 0.04092,1.43e-4 0.06065,7.19e-4 0.0097,1.44e-4 0.01964,1.44e-4 0.0289,7.21e-4 0.01685,7.19e-4 0.03241,0.0022 0.04796,0.0037 0.01133,0.0012 0.02298,0.0018 0.03366,0.0034 0.02078,0.0028 0.04064,0.006 0.05846,0.01037 1.23e-4,4.3e-5 3.66e-4,4.4e-5 6.08e-4,9.7e-5 7.29e-4,1.43e-4 0.0013,2.87e-4 0.0021,4.3e-4 0.0091,0.0022 0.01774,0.0047 0.02593,0.0075 0.0013,2.89e-4 0.0025,8.65e-4 0.0039,0.0014 0.0078,0.0028 0.01559,0.0056 0.0227,0.0088 1.21e-4,4.4e-5 1.21e-4,1.45e-4 3.65e-4,1.45e-4 3.63e-4,1.44e-4 9.71e-4,2.87e-4 0.0012,7.18e-4 0.0076,0.0034 0.01476,0.0072 0.02127,0.01129 0.03328,0.02066 0.0527,0.04888 0.05598,0.08622 1.23e-4,0.0017 6.08e-4,0.0033 6.08e-4,0.005 1.22e-4,0.0056 -1.22e-4,0.01194 -6.08e-4,0.01805 -1.2e-4,0.0026 -1.2e-4,0.005 -6.08e-4,0.0076 -9.71e-4,0.0062 -0.0022,0.013 -0.0039,0.01979 -6.07e-4,0.0028 -0.0012,0.0055 -0.002,0.0083 -0.0018,0.0067 -0.0043,0.01366 -0.0069,0.02079 -0.0013,0.0037 -0.0024,0.0071 -0.0039,0.01076 -0.0027,0.0066 -0.0059,0.01332 -0.0091,0.02024 -0.0022,0.0047 -0.0044,0.0093 -0.007,0.01419 -0.0035,0.007 -0.0074,0.01402 -0.01163,0.02116 -0.0031,0.0054 -0.0063,0.01076 -0.0097,0.01626 -0.0043,0.0071 -0.0091,0.01436 -0.01401,0.02182 -0.004,0.0062 -0.0082,0.01247 -0.01267,0.01877 -0.0051,0.0072 -0.01039,0.01453 -0.01592,0.02209 -0.0051,0.007 -0.01039,0.01402 -0.01591,0.02107 -0.0067,0.0087 -0.01386,0.01761 -0.02117,0.0267 -0.0031,0.0038 -0.0064,0.0077 -0.0097,0.01181 -0.02242,0.02708 -0.04791,0.05601 -0.0761,0.08642 -0.01859,0.02006 -0.0406,0.04211 -0.06179,0.06368 -0.01634,0.0166 -0.03109,0.03233 -0.04902,0.04988 -0.02503,0.02453 -0.05407,0.05139 -0.0823,0.07777 -0.01893,0.01769 -0.03585,0.03417 -0.05627,0.05274 -0.04996,0.04543 -0.104094,0.09335 -0.163159,0.144113 -0.06668,0.08554 -0.1263,0.170497 -0.179083,0.254822 -0.158402,0.253037 -0.255561,0.500244 -0.299902,0.739532 -0.0074,0.03988 -0.01326,0.07948 -0.01784,0.118904 -3e-6,2.8e-5 5e-6,4.4e-5 0,9.5e-5 -0.01737,0.152608 -0.01282,0.301691 0.01039,0.446883 7.28e-4,0.0049 0.0011,0.0097 0.002,0.01453 6e-6,3.3e-5 -4e-6,4.7e-5 0,9.9e-5 0.0063,0.03741 0.01402,0.07458 0.02279,0.111449 0.02655,0.110727 0.06424,0.218923 0.112036,0.324396 0.01594,0.03515 0.03297,0.06993 0.05111,0.10444 2e-5,3.6e-5 8.1e-5,4.4e-5 8.1e-5,9.5e-5 0.01813,0.03449 0.03735,0.06867 0.05759,0.102524 1.3e-5,2.6e-5 -1.5e-5,4.8e-5 0,9.8e-5 0.02026,0.03385 0.04158,0.06739 0.0639,0.100581 0.02234,0.03325 0.04568,0.06618 0.06999,0.09876 0.0243,0.03256 0.04951,0.06468 0.07571,0.09654 2.7e-5,3.4e-5 4.1e-5,4.8e-5 8.2e-5,9.7e-5 0.0524,0.0637 0.108493,0.125927 0.16802,0.186722 0.238153,0.243189 0.530934,0.462547 0.858701,0.653118 -0.01633,0.03993 -0.03537,0.08024 -0.05693,0.120913 -0.01072,0.02034 -0.02224,0.04078 -0.03423,0.0613 -0.01207,0.02053 -0.02452,0.04112 -0.03767,0.06185 -0.02626,0.04139 -0.05474,0.08306 -0.08515,0.12506 -0.03044,0.04203 -0.06276,0.08432 -0.09679,0.126898 -0.06803,0.08512 -0.142709,0.171328 -0.221805,0.25832 -0.07908,0.08698 -0.162569,0.174753 -0.248311,0.263105 -0.214341,0.220863 -0.442658,0.445205 -0.650247,0.669038 -0.311424,0.335796 -0.576322,0.670503 -0.678378,0.990765 -0.0069,0.02136 -0.01282,0.04255 -0.01821,0.06378 -0.0054,0.02125 -0.0098,0.04238 -0.01356,0.06349 -0.0076,0.04213 -0.01193,0.08402 -0.01282,0.12552 -1e-6,3.2e-5 0,4.7e-5 0,9.7e-5 -9.74e-4,0.04154 0.0017,0.08272 0.0078,0.12359 0.0031,0.02044 0.0072,0.04076 0.01223,0.06102 0.0051,0.02029 0.01105,0.04045 0.01801,0.06055 0.01402,0.0401 0.03194,0.07986 0.05416,0.11918 2.1e-5,3.7e-5 8.3e-5,4.3e-5 8.3e-5,9.4e-5 0.01117,0.01964 0.02323,0.03921 0.03652,0.05862 0.01326,0.0195 0.02772,0.03879 0.04329,0.05807 0.03109,0.03847 0.0668,0.07655 0.107277,0.114113 0.02023,0.01877 0.0416,0.03743 0.06427,0.05595 0.04538,0.03709 0.09573,0.07363 0.151333,0.109704 0.05558,0.03606 0.116448,0.07159 0.182803,0.106566 0.05572,0.02936 0.116194,0.05821 0.179846,0.08677 0.01222,0.0055 0.02349,0.01103 0.03594,0.01643 0.07768,0.03384 0.161135,0.06705 0.250698,0.09966 0.04334,0.0037 0.08367,0.01037 0.121873,0.01914 0.0035,8.62e-4 0.0074,0.0014 0.01105,0.0022 2.7e-5,7e-6 3.8e-5,-10e-6 7.9e-5,0 0.0048,0.0012 0.0091,0.0028 0.01386,0.0039 0.03588,0.0094 0.06992,0.02111 0.101364,0.03507 0.01779,0.008 0.03485,0.01643 0.05129,0.02567 0.01646,0.0092 0.03224,0.01906 0.04739,0.02954 3.5e-5,2.7e-5 4.3e-5,4.4e-5 8.3e-5,9.6e-5 0.0303,0.02095 0.05808,0.04434 0.08354,0.06995 0.01267,0.01286 0.02493,0.02609 0.03652,0.03995 1.7e-5,1.7e-5 -1.3e-5,9.4e-5 0,9.4e-5 0.01163,0.01385 0.02267,0.02819 0.03319,0.04306 1.5e-5,2.1e-5 -1.6e-5,9.7e-5 0,9.7e-5 0.01039,0.01488 0.02054,0.03019 0.03003,0.04602 0.0095,0.01592 0.01844,0.0322 0.02699,0.04896 0.02561,0.05019 0.047,0.104217 0.06485,0.161327 0.01528,0.04893 0.02737,0.100713 0.03794,0.153595 0.0018,0.0088 0.0042,0.01713 0.0059,0.02604 0.0077,0.04162 0.01416,0.08419 0.01955,0.127555 0.0054,0.04334 0.0098,0.08739 0.01342,0.131968 5e-6,3.3e-5 -3e-6,4.5e-5 0,9.7e-5 0.0035,0.04455 0.0064,0.08959 0.0086,0.13491 8.1e-5,0.0016 8.1e-5,0.0031 1.21e-4,0.0047 0.0042,0.0892 0.0063,0.179327 0.0076,0.268628 0.0013,0.09083 0.002,0.180723 0.0038,0.267799 0.0025,0.130652 0.0076,0.254843 0.02069,0.366085 0.0043,0.03708 0.0097,0.07262 0.01611,0.106566 0.0033,0.01696 0.0067,0.03356 0.01039,0.04969 0.0038,0.01609 0.0078,0.03167 0.01237,0.04684 0.0044,0.01523 0.0093,0.0299 0.01446,0.04409 0.0051,0.01419 0.01061,0.02775 0.0165,0.04086 0.002,0.0043 0.004,0.0081 0.0061,0.01234 0.01028,0.02137 0.0214,0.0415 0.03404,0.05964 0.0076,0.01089 0.01557,0.02096 0.02403,0.03056 0.02538,0.02876 0.05489,0.05178 0.08944,0.06829 0.03453,0.01643 0.07404,0.02647 0.119191,0.02909 0.03011,0.0017 0.06267,1.43e-4 0.09803,-0.0049 0.01767,-0.0026 0.03605,-0.0059 0.05512,-0.01024 0.03814,-0.0087 0.07916,-0.02088 0.123199,-0.03699 0.02203,-0.0081 0.04479,-0.01713 0.06837,-0.02714 0.09431,-0.04012 0.201251,-0.09621 0.322597,-0.170255 0.03033,-0.01851 0.06158,-0.03812 0.09374,-0.05889 0.06271,-0.06101 0.119697,-0.115098 0.173073,-0.164909 0.02069,-0.01929 0.03884,-0.03552 0.05817,-0.05318 0.03185,-0.02914 0.06288,-0.05732 0.09115,-0.08218 0.01733,-0.01523 0.03346,-0.02903 0.04949,-0.0427 0.02605,-0.02223 0.05054,-0.04268 0.07323,-0.06092 0.01941,-0.01557 0.03913,-0.03159 0.05616,-0.04436 0.0034,-0.0026 0.007,-0.0054 0.01039,-0.0077 0.02413,-0.01778 0.04579,-0.03263 0.06513,-0.04472 0.0078,-0.0049 0.01552,-0.0095 0.02259,-0.01349 0.0031,-0.0017 0.0063,-0.0038 0.0093,-0.0054 0.0095,-0.005 0.01835,-0.0092 0.02642,-0.0126 0.0011,-2.87e-4 0.0022,-0.0011 0.0031,-0.0014 0.0091,-0.0037 0.01724,-0.0062 0.0245,-0.0076 0.0011,-1.43e-4 0.002,-9.5e-5 0.003,-1.43e-4 0.0059,-8.64e-4 0.01083,-0.0012 0.01545,-7.21e-4 0.0014,1.46e-4 0.0027,7.21e-4 0.004,8.64e-4 0.0038,8.63e-4 0.007,0.0022 0.0098,0.0043 9.72e-4,7.18e-4 0.0017,0.0014 0.0025,0.0021 0.0027,0.0026 0.0049,0.0059 0.0065,0.0098 3.66e-4,7.2e-4 6.09e-4,0.0014 9.74e-4,0.0021 0.0017,0.005 0.0027,0.01089 0.0027,0.01785 0,0.0072 -6.07e-4,0.0154 -0.0022,0.02457 1.958886,-3.718107 4.135447,-7.522939 4.269469,-11.782611 z"
     style="fill:#7394ee;fill-opacity:1;stroke-width:0.45385963" />
  <path
     sodipodi:nodetypes="ccccsc"
     inkscape:connector-curvature="0"
     id="path4229"
     d="m 6.0894758,34.534347 c -1.2904653,1.14176 -3.9261725,1.142257 -2.8280404,3.555935 0.5900292,1.079339 1.0438087,1.952977 1.7696583,2.790087 0.052687,-0.04223 0.096714,-0.08322 0.1254946,-0.115137 0.5659839,-0.627441 1.2823589,-2.86232 1.2814228,-4.889863 -2.429e-4,-0.788418 -0.1698395,-1.219752 -0.3485338,-1.341023 z"
     style="fill:#292929;fill-opacity:1;stroke-width:0.45385963" />
  <path
     inkscape:connector-curvature="0"
     style="opacity:1;fill:#292929;fill-opacity:1;fill-rule:nonzero;stroke:none;stroke-opacity:1"
     d="m 14.624692,28.215423 c -0.281118,0.0062 -0.591051,0.144952 -0.92393,0.466571 -9.2e-4,-0.01011 -0.0013,-0.02062 -0.0022,-0.03077 a 1.8511351,3.5818626 0 0 0 1.217516,3.355732 1.8511351,3.5818626 0 0 0 1.213199,0.03589 c -0.14908,0.05333 -0.255639,0.02626 -0.166221,-0.258921 0.539316,-1.110296 -0.120227,-3.595271 -1.338405,-3.568511 z"
     id="path4219" />
  <path
     transform="matrix(0.8479693,0.53004534,-0.26450899,0.96438322,0,0)"
     d="m 23.139471,18.298392 a 0.53205293,0.74661809 0 0 1 -0.681646,0.446074 0.53205293,0.74661809 0 0 1 -0.318447,-0.956167 0.53205293,0.74661809 0 0 1 0.681115,-0.447667 0.53205293,0.74661809 0 0 1 0.319583,0.95542"
     sodipodi:open="true"
     sodipodi:end="0.34612148"
     sodipodi:start="0.34945506"
     sodipodi:ry="0.74661809"
     sodipodi:rx="0.53205293"
     sodipodi:cy="18.042761"
     sodipodi:cx="22.639576"
     sodipodi:type="arc"
     id="path4235"
     style="opacity:1;fill:#ffffff;fill-opacity:1;fill-rule:evenodd;stroke:none;stroke-width:2.3958447;stroke-linecap:butt;stroke-linejoin:round;stroke-miterlimit:4;stroke-dasharray:none;stroke-dashoffset:0;stroke-opacity:1" />
  <path
     style="fill:#ffffff;fill-opacity:1;stroke-width:0.45385963;opacity:0.2"
     d="M 36.91408,2.8886212 C 36.033907,6.8937517 31.286255,9.717944 28.078142,11.5312 27.758536,9.0465703 27.200764,6.566491 26.31447,4.2245587 25.284249,6.284663 24.604035,8.5583774 23.380877,10.478465 c -0.904361,1.419656 -1.913278,2.77579 -3.179688,3.845704 -0.08935,0.03687 -0.183271,0.06718 -0.271484,0.105469 l 0,0.002 c -0.653891,0.283799 -1.276453,0.603892 -1.839844,0.984375 -2.549886,1.722055 -4.40366,4.070557 -5.847656,6.798828 -1.942616,3.67035 -0.597414,8.389443 -5.9121097,11.90039 -0.08804,0.123774 -0.197151,0.236832 -0.320313,0.34375 0.006,-0.0053 0.011738,-0.01049 0.017578,-0.01562 0.0041,0.0028 0.0077,0.01059 0.011719,0.01367 -1.210454,1.026409 -3.500589,1.126068 -2.957031,3.042969 0.047725,-0.124412 0.114583,-0.23665 0.197265,-0.339844 0.049852,-0.06222 0.115386,-0.115855 0.175782,-0.171875 0.069943,-0.06521 0.142872,-0.128958 0.224609,-0.1875 0.069542,-0.0495 0.138474,-0.100617 0.214844,-0.146484 0.085541,-0.05172 0.17748,-0.09983 0.269531,-0.148437 0.125167,-0.06561 0.250426,-0.1321 0.382812,-0.195313 0.179574,-0.08642 0.359961,-0.175306 0.541016,-0.265625 0.089955,-0.04461 0.177889,-0.0913 0.265625,-0.138672 0.08321,-0.04516 0.166323,-0.09001 0.246094,-0.138672 0.155824,-0.09471 0.303087,-0.198653 0.4375,-0.3125 -0.0033,-0.0036 -0.00628,-0.0093 -0.00977,-0.01172 -0.0058,0.0051 -0.011578,0.01033 -0.017578,0.01562 0.123162,-0.106917 0.232273,-0.219977 0.320313,-0.34375 5.3146957,-3.510881 3.9694937,-8.230109 5.9121097,-11.90039 1.443996,-2.72822 3.29777,-5.076806 5.847656,-6.798828 0.563391,-0.380476 1.185953,-0.700582 1.839844,-0.984375 l 0,-0.002 c 0.08766,-0.03805 0.180683,-0.06891 0.269531,-0.105469 l 0.002,0 c 0.006,-0.0051 0.0116,-0.01056 0.01758,-0.01563 1.257599,-1.067181 2.262247,-2.415704 3.16211,-3.828125 l 0,-0.002 c 0.152594,-0.239535 0.298119,-0.484931 0.435547,-0.734376 l 0,-0.002 C 23.953862,10.492588 24.085297,10.239417 24.211,9.98227 l 0,-0.002 c 0.251874,-0.5153645 0.483121,-1.0431918 0.708984,-1.5761728 0.451607,-1.066154 0.879421,-2.1496554 1.394531,-3.1796875 0.224192,0.5923898 0.427716,1.192862 0.611329,1.8007813 5.97e-4,0.00197 0.0014,0.00389 0.002,0.00586 0.178607,0.5917975 0.337568,1.1905215 0.480468,1.7929688 0.145666,0.6112456 0.273232,1.2276002 0.384766,1.8457032 0.111744,0.619269 0.205155,1.239307 0.285156,1.861328 3.208017,-1.813176 7.955765,-4.6375233 8.835938,-8.6425781 1.105175,1.8303492 1.621228,3.980239 1.695312,6.1289061 0.07121,-2.4726211 -0.418546,-5.0143345 -1.695312,-7.1289061 z m 5.826171,6.4101562 c -0.926641,0.1910998 -0.985905,0.7998686 -0.808593,1.5390626 0.02458,-0.0535 0.05688,-0.10296 0.09375,-0.15039 0.01378,-0.01808 0.02929,-0.03557 0.04492,-0.05274 0.0343,-0.03679 0.0716,-0.07128 0.115235,-0.103515 0.03569,-0.02707 0.07847,-0.05051 0.121094,-0.07422 0.03599,-0.01956 0.06834,-0.04148 0.109375,-0.05859 0.0941,-0.03993 0.200156,-0.07402 0.324218,-0.09961 0.171804,0.0516 0.320609,0.128143 0.458985,0.214844 0.03177,0.01991 0.06175,0.04095 0.0918,0.0625 0.129416,0.09281 0.24964,0.194978 0.347656,0.314453 0.09971,0.121538 0.177791,0.257726 0.246094,0.400391 0.01572,0.03281 0.02887,0.06589 0.04297,0.09961 0.0583,0.139455 0.107602,0.284078 0.138672,0.435547 7.15e-4,0.0035 0.0032,0.0063 0.0039,0.0098 0.164185,-1.069964 -0.218262,-2.203195 -1.330078,-2.5371106 z m 0.898438,5.6679696 c -0.104469,0.0016 -0.219503,0.04782 -0.291016,0.109375 -1.350784,1.162914 -0.420441,3.633208 -1.322265,5.082031 0.116257,0.0079 0.231717,-0.0037 0.347656,-0.01367 0.06131,-0.338333 0.08616,-0.697619 0.105469,-1.058593 0.0073,-0.144635 0.02249,-0.284975 0.0293,-0.429688 0.0025,-0.04926 0.007,-0.09738 0.0098,-0.146484 0.02476,-0.442613 0.06129,-0.876746 0.164063,-1.273438 0.01301,-0.05121 0.02962,-0.100506 0.04492,-0.15039 0.04329,-0.138849 0.09971,-0.269792 0.164063,-0.396485 0.03184,-0.06328 0.05768,-0.129732 0.0957,-0.189453 0.0171,-0.02668 0.03627,-0.05221 0.05469,-0.07813 0.08745,-0.123729 0.185435,-0.241358 0.30664,-0.345703 0.07151,-0.06155 0.186547,-0.107775 0.291016,-0.109375 0.06267,-9.8e-4 0.120571,0.01448 0.164062,0.05078 0.14226,0.11872 0.275353,0.263305 0.398438,0.427735 8.85e-4,0.0012 0.0011,0.0027 0.002,0.0039 0.120332,0.159154 0.226488,0.339452 0.324219,0.529297 0.0022,0.0043 0.0056,0.0074 0.0078,0.01172 0,0 0,0.002 0,0.002 0.201016,0.394335 0.339734,0.835263 0.40625,1.28125 0.197274,-1.142811 -0.349985,-2.597669 -1.138672,-3.25586 -0.04349,-0.03629 -0.10139,-0.05177 -0.164062,-0.05078 z m -2.792969,0.113281 c -0.383945,-0.0033 -0.457907,0.698342 -0.3125,1.283203 0.0308,-0.08388 0.06855,-0.155098 0.121094,-0.203125 0.05179,-0.05097 0.114798,-0.08074 0.191406,-0.08008 0.08293,7.17e-4 0.230042,0.03001 0.371094,0.08789 0.07104,0.02915 0.138944,0.06569 0.197265,0.109375 0.05748,0.04306 0.105426,0.09319 0.132813,0.15039 0.03237,0.06761 0.04292,0.166405 0.06445,0.251954 0.119137,-0.390982 0.08592,-0.937881 -0.06445,-1.251954 -0.11035,-0.230469 -0.535308,-0.346222 -0.701172,-0.347656 z m 0.742188,5.642578 c -2.585517,0.841784 -5.06198,1.760771 -7.744141,1.78125 -0.243153,0.333373 -0.487076,0.666924 -0.734375,0.994141 2.937762,0.165412 5.599754,-0.835687 8.386719,-1.746094 0.03693,-0.341859 0.08086,-0.681583 0.0918,-1.029297 z M 5.9707193,34.492138 c -0.01028,0.0087 -0.018796,0.01696 -0.029296,0.02539 0.01043,-0.0085 0.018948,-0.01679 0.029296,-0.02539 z"
     id="path4218"
     inkscape:connector-curvature="0" />
  <path
     sodipodi:nodetypes="ccccccc"
     inkscape:connector-curvature="0"
     id="path4154"
     d="m 13,44 c 0.854334,-0.102835 1.233476,-0.138509 2.247733,-1.125954 1.113423,-1.212831 2.087722,-2.631669 3.128566,-3.951969 0.05856,-0.244023 -0.253643,-0.841625 -0.35093,-0.44511 -0.02526,0.249461 -0.121366,0.31894 -0.352369,0.674563 -1.068149,1.319236 -2.152347,2.945127 -3.204447,3.957705 C 14.330688,43.288546 13.423397,43.859054 13,44 Z"
     style="fill:#292929;fill-opacity:1;fill-rule:evenodd;stroke:none;stroke-width:0.07866335;stroke-linecap:butt;stroke-linejoin:round;stroke-miterlimit:4;stroke-dasharray:none;stroke-opacity:1" />
  <path
     style="fill:#000000;fill-opacity:1;stroke-width:0.45385963;opacity:0.3"
     d="M 38.615234 9.1308594 C 38.601713 9.5977315 38.576142 10.062928 38.523438 10.521484 C 37.994997 14.680146 35.620806 18.296609 33.117188 21.609375 C 33.219996 21.738054 33.467529 21.762415 33.746094 21.759766 C 36.006978 18.678319 38.039639 15.328833 38.523438 11.521484 C 38.613735 10.735856 38.642903 9.9338914 38.615234 9.1308594 z M 41.9375 9.9511719 C 41.492339 10.922296 42.959171 12.840885 42.548828 14 C 43.7315 13.610119 44.316866 12.137481 44.076172 10.945312 C 43.937198 11.85222 43.410775 12.71585 42.548828 13 C 42.844802 12.16395 42.174939 10.938099 41.9375 9.9511719 z M 40.539062 15.474609 C 40.335574 16.028901 40.58825 17.22017 41.136719 17.246094 C 41.663898 17.271014 41.763988 16.378925 41.617188 15.792969 C 41.534846 16.060801 41.382526 16.257713 41.136719 16.246094 C 40.843948 16.232256 40.640215 15.880381 40.539062 15.474609 z M 44.947266 17.386719 C 44.839073 18.010711 44.517132 18.545515 43.871094 18.796875 C 43.411709 19.014092 42.899923 19.210949 42.380859 19.255859 C 42.314668 19.621652 42.217478 19.970348 42.03125 20.269531 C 42.668651 20.312671 43.308545 20.062873 43.871094 19.796875 C 44.847195 19.417095 45.098631 18.404224 44.947266 17.386719 z M 41.59375 20.833984 C 41.563426 20.844643 41.532322 20.856495 41.501953 20.867188 C 41.085543 24.711758 39.1226 28.203729 37.324219 31.617188 C 37.325859 31.608017 37.326172 31.598997 37.326172 31.591797 C 37.326172 31.584837 37.325919 31.579219 37.324219 31.574219 L 37.322266 31.572266 C 37.320666 31.568366 37.319106 31.5651 37.316406 31.5625 L 37.314453 31.560547 C 37.311653 31.558447 37.308487 31.557504 37.304688 31.556641 C 37.307088 31.560941 37.304994 31.571519 37.308594 31.574219 C 37.316394 31.579379 37.313453 31.594292 37.314453 31.607422 C 37.316373 31.636062 37.308783 31.677841 37.283203 31.738281 C 37.270883 31.767471 37.261911 31.792725 37.244141 31.828125 C 37.217039 31.882321 37.174849 31.952981 37.136719 32.019531 C 37.077376 32.122856 37.017873 32.214209 36.939453 32.337891 C 36.540202 32.972185 35.957864 33.793171 35.75 34.091797 C 31.500777 39.879018 24.428478 43.956636 17.005859 43.978516 C 16.626911 43.979366 16.020692 43.9967 15.337891 44 C 14.724895 44.00407 14.120894 43.991135 13.480469 43.953125 C 13.417454 43.949425 13.353156 43.951566 13.291016 43.947266 C 13.311376 43.946666 13.334959 43.94415 13.355469 43.943359 C 13.094051 43.925899 12.823502 43.911189 12.585938 43.880859 C 9.6156787 43.57871 6.8710902 42.089545 4.9746094 39.902344 C 4.9925194 39.887974 5.0018981 39.877151 5.0175781 39.863281 C 4.3004006 39.031411 3.8476981 38.161774 3.2617188 37.089844 C 3.183492 36.917902 3.1300902 36.760077 3.0878906 36.611328 C 2.9471399 36.979068 2.9693599 37.447243 3.2617188 38.089844 C 3.8476981 39.161774 4.3004006 40.031411 5.0175781 40.863281 C 5.0018981 40.877152 4.9925186 40.887974 4.9746094 40.902344 C 6.8710902 43.089545 9.6156787 44.57871 12.585938 44.880859 C 12.823501 44.911189 13.094051 44.925899 13.355469 44.943359 C 13.334959 44.94415 13.311376 44.946666 13.291016 44.947266 C 13.353156 44.951566 13.417454 44.949425 13.480469 44.953125 C 14.120894 44.991135 14.724895 45.00407 15.337891 45 C 16.020692 44.9967 16.626911 44.979366 17.005859 44.978516 C 24.428478 44.956636 31.500777 40.879018 35.75 35.091797 C 35.957864 34.793171 36.540202 33.972185 36.939453 33.337891 C 37.017873 33.214209 37.077376 33.122856 37.136719 33.019531 C 37.174849 32.952981 37.217041 32.882321 37.244141 32.828125 C 37.261911 32.792725 37.270883 32.767471 37.283203 32.738281 C 37.308783 32.677841 37.316373 32.636062 37.314453 32.607422 C 37.313453 32.594292 37.316394 32.579379 37.308594 32.574219 C 37.304968 32.5715 37.307051 32.560941 37.304688 32.556641 C 37.308487 32.557504 37.311653 32.558447 37.314453 32.560547 L 37.316406 32.5625 C 37.319106 32.5651 37.320666 32.568366 37.322266 32.572266 L 37.324219 32.574219 C 37.325919 32.579219 37.326172 32.584837 37.326172 32.591797 C 37.326172 32.598997 37.325812 32.608018 37.324219 32.617188 C 39.283105 28.899081 41.459728 25.093656 41.59375 20.833984 z M 16.550781 22.103516 C 16.334446 22.103839 16.090259 22.162282 15.8125 22.289062 C 14.152736 23.481885 13.557676 25.629113 13.695312 27.542969 C 13.799288 25.920286 14.438028 24.276854 15.8125 23.289062 C 16.090259 23.162282 16.334446 23.103839 16.550781 23.103516 C 18.06515 23.101316 18.176954 25.887911 18.34375 27.138672 C 18.400526 27.560208 18.451932 27.993632 18.482422 28.419922 C 18.545482 27.692725 18.446189 26.899237 18.34375 26.138672 C 18.176954 24.887911 18.06515 22.101316 16.550781 22.103516 z M 35.761719 25.958984 C 35.703258 26.086418 35.61857 26.217561 35.515625 26.351562 C 35.534275 26.327302 35.554816 26.303387 35.572266 26.279297 C 35.602676 26.237297 35.62999 26.195687 35.65625 26.154297 C 35.6694 26.133567 35.683242 26.112327 35.695312 26.091797 C 35.707302 26.071277 35.717796 26.05159 35.728516 26.03125 C 35.741336 26.00705 35.750719 25.982924 35.761719 25.958984 z M 35.330078 26.574219 C 35.277341 26.634402 35.223066 26.694899 35.166016 26.755859 C 35.194666 26.725249 35.226246 26.694482 35.253906 26.664062 C 35.281356 26.633873 35.303788 26.604209 35.330078 26.574219 z M 34.808594 29.916016 C 34.858516 29.921756 34.904376 29.930619 34.947266 29.943359 C 34.938636 29.940759 34.930775 29.937847 34.921875 29.935547 C 34.917105 29.934447 34.913003 29.932841 34.908203 29.931641 C 34.904503 29.930841 34.901938 29.93055 34.898438 29.929688 C 34.870578 29.923318 34.839064 29.919816 34.808594 29.916016 z M 35.007812 29.964844 C 35.042392 29.978754 35.073686 29.995112 35.103516 30.013672 C 35.094466 30.007932 35.085672 30.001394 35.076172 29.996094 C 35.059732 29.986854 35.041227 29.978703 35.023438 29.970703 C 35.018558 29.968503 35.012813 29.966944 35.007812 29.964844 z M 35.154297 30.052734 C 35.225109 30.108374 35.280069 30.178976 35.324219 30.259766 C 35.318289 30.248726 35.313041 30.237243 35.306641 30.226562 C 35.297151 30.210733 35.285781 30.194568 35.275391 30.179688 C 35.264871 30.164818 35.253817 30.150569 35.242188 30.136719 C 35.230598 30.122859 35.219701 30.108563 35.207031 30.095703 C 35.191041 30.079613 35.172167 30.067014 35.154297 30.052734 z M 16.107422 30.300781 C 16.076227 30.477142 16.031032 30.642921 15.962891 30.783203 C 15.872917 31.070157 15.980248 31.097366 16.130859 31.042969 C 16.149674 30.804806 16.14139 30.556585 16.107422 30.300781 z M 35.378906 30.384766 C 35.396186 30.431175 35.409535 30.48059 35.421875 30.53125 C 35.414445 30.49909 35.407938 30.465927 35.398438 30.435547 C 35.392817 30.417557 35.385206 30.402126 35.378906 30.384766 z M 37.285156 31.554688 C 37.284156 31.554787 37.28235 31.556498 37.28125 31.556641 C 37.27399 31.558041 37.266912 31.5588 37.257812 31.5625 C 37.256913 31.5628 37.255006 31.564166 37.253906 31.564453 C 37.245836 31.567853 37.238016 31.573125 37.228516 31.578125 C 37.225516 31.579725 37.22185 31.580331 37.21875 31.582031 C 37.21168 31.586001 37.203113 31.590803 37.195312 31.595703 C 37.175972 31.607793 37.154989 31.622845 37.130859 31.640625 C 37.127459 31.642925 37.124494 31.645837 37.121094 31.648438 C 37.104064 31.661208 37.083863 31.677789 37.064453 31.693359 C 37.041763 31.711599 37.016284 31.731676 36.990234 31.753906 C 36.974204 31.767576 36.958736 31.781645 36.941406 31.796875 C 36.913136 31.821735 36.881459 31.849766 36.849609 31.878906 C 36.830279 31.896566 36.813659 31.912351 36.792969 31.931641 C 36.739593 31.981452 36.681851 32.036646 36.619141 32.097656 C 36.602281 32.108546 36.586672 32.118646 36.570312 32.128906 C 36.590852 32.116146 36.605563 32.109523 36.626953 32.095703 C 36.841659 31.886859 36.991494 31.756002 37.103516 31.669922 C 37.142886 31.639742 37.157367 31.639937 37.185547 31.623047 C 37.225421 31.599127 37.279571 31.556587 37.300781 31.554688 C 37.296151 31.554209 37.291056 31.553824 37.285156 31.554688 z M 37.285156 32.554688 C 37.291056 32.553824 37.296161 32.554209 37.300781 32.554688 C 37.279571 32.556612 37.225419 32.599125 37.185547 32.623047 C 37.157367 32.639937 37.142886 32.639742 37.103516 32.669922 C 36.991494 32.756002 36.841659 32.886859 36.626953 33.095703 C 36.605562 33.109527 36.590857 33.116139 36.570312 33.128906 C 36.586675 33.118645 36.602278 33.108547 36.619141 33.097656 C 36.681851 33.036646 36.739593 32.981452 36.792969 32.931641 C 36.813659 32.912351 36.830279 32.896566 36.849609 32.878906 C 36.881459 32.849766 36.913136 32.821735 36.941406 32.796875 C 36.958736 32.781645 36.974204 32.767576 36.990234 32.753906 C 37.016284 32.731676 37.041763 32.711599 37.064453 32.693359 C 37.083863 32.677789 37.104064 32.661206 37.121094 32.648438 C 37.124494 32.645837 37.127469 32.642925 37.130859 32.640625 C 37.154989 32.622845 37.175973 32.607793 37.195312 32.595703 C 37.203114 32.590803 37.21168 32.586021 37.21875 32.582031 C 37.22185 32.580331 37.225516 32.579725 37.228516 32.578125 C 37.238016 32.573125 37.245836 32.567853 37.253906 32.564453 C 37.255006 32.564166 37.256912 32.5628 37.257812 32.5625 C 37.266912 32.5588 37.27399 32.558041 37.28125 32.556641 C 37.28235 32.556498 37.284156 32.554735 37.285156 32.554688 z M 5.9765625 33.603516 C 5.9662185 33.612106 5.9576996 33.620406 5.9472656 33.628906 C 5.9577586 33.620486 5.9662835 33.612216 5.9765625 33.603516 z "
     id="path4190" />
</svg>
