<?xml version="1.0" encoding="UTF-8" standalone="no"?>
<!-- Created with Inkscape (http://www.inkscape.org/) -->

<svg
   xmlns:dc="http://purl.org/dc/elements/1.1/"
   xmlns:cc="http://creativecommons.org/ns#"
   xmlns:rdf="http://www.w3.org/1999/02/22-rdf-syntax-ns#"
   xmlns:svg="http://www.w3.org/2000/svg"
   xmlns="http://www.w3.org/2000/svg"
   xmlns:xlink="http://www.w3.org/1999/xlink"
   xmlns:sodipodi="http://sodipodi.sourceforge.net/DTD/sodipodi-0.dtd"
   xmlns:inkscape="http://www.inkscape.org/namespaces/inkscape"
   id="svg2817"
   height="48"
   width="48"
   version="1.0"
   inkscape:version="0.91 r"
   sodipodi:docname="applications-system.svg">
  <metadata
     id="metadata57">
    <rdf:RDF>
      <cc:Work
         rdf:about="">
        <dc:format>image/svg+xml</dc:format>
        <dc:type
           rdf:resource="http://purl.org/dc/dcmitype/StillImage" />
        <dc:title />
      </cc:Work>
    </rdf:RDF>
  </metadata>
  <sodipodi:namedview
     pagecolor="#ffffff"
     bordercolor="#666666"
     borderopacity="1"
     objecttolerance="10"
     gridtolerance="10"
     guidetolerance="10"
     inkscape:pageopacity="0"
     inkscape:pageshadow="2"
     inkscape:window-width="1600"
     inkscape:window-height="840"
     id="namedview55"
     showgrid="false"
     inkscape:zoom="9.28"
     inkscape:cx="5.5905172"
     inkscape:cy="27.390138"
     inkscape:window-x="-4"
     inkscape:window-y="34"
     inkscape:window-maximized="1"
     inkscape:current-layer="svg2817" />
  <defs
     id="defs2819">
    <linearGradient
       id="linearGradient2815"
       y2="17.5"
       spreadMethod="reflect"
       gradientUnits="userSpaceOnUse"
       x2="3.0052"
       y1="17.5"
       x1="44.995">
      <stop
         id="stop3277"
         style="stop-color:#fff;stop-opacity:0"
         offset="0" />
      <stop
         id="stop3283"
         style="stop-color:#fff"
         offset=".245" />
      <stop
         id="stop3285"
         style="stop-color:#fff"
         offset=".77350" />
      <stop
         id="stop3279"
         style="stop-color:#fff;stop-opacity:0"
         offset="1" />
    </linearGradient>
    <linearGradient
       id="linearGradient2813"
       y2="8"
       gradientUnits="userSpaceOnUse"
       x2="26"
       y1="22"
       x1="26">
      <stop
         id="stop3829"
         style="stop-color:#fff"
         offset="0" />
      <stop
         id="stop4295"
         style="stop-color:#fff"
         offset=".30213" />
      <stop
         id="stop4293"
         style="stop-color:#fff;stop-opacity:.69020"
         offset=".34361" />
      <stop
         id="stop3832"
         style="stop-color:#fff;stop-opacity:0"
         offset="1" />
    </linearGradient>
    <linearGradient
       id="linearGradient2811"
       y2="45.934"
       gradientUnits="userSpaceOnUse"
       x2="43.007"
       gradientTransform="matrix(1.2822 0 0 1.1747 -6.0702 -5.3032)"
       y1="30.555"
       x1="23.452">
      <stop
         id="stop4561"
         style="stop-color:#fff;stop-opacity:0"
         offset="0" />
      <stop
         id="stop4563"
         style="stop-color:#fff;stop-opacity:0"
         offset="1" />
    </linearGradient>
    <linearGradient
       id="linearGradient2809"
       y2="45.042"
       gradientUnits="userSpaceOnUse"
       x2="15.464"
       y1="7.9757"
       x1="15.464">
      <stop
         id="stop3297"
         style="stop-color:#c9af8b"
         offset="0" />
      <stop
         id="stop3299"
         style="stop-color:#ad8757"
         offset=".23942" />
      <stop
         id="stop3301"
         style="stop-color:#c2a57f"
         offset=".27582" />
      <stop
         id="stop3303"
         style="stop-color:#9d7d53"
         offset="1" />
    </linearGradient>
    <linearGradient
       id="linearGradient2807"
       y2="37.277"
       gradientUnits="userSpaceOnUse"
       x2="24.997"
       gradientTransform="matrix(1.2822 0 0 1.5573 -6.0702 -15.291)"
       y1="15.378"
       x1="24.823">
      <stop
         id="stop3201"
         style="stop-color:#dac197"
         offset="0" />
      <stop
         id="stop3203"
         style="stop-color:#c1a581"
         offset=".23942" />
      <stop
         id="stop3205"
         style="stop-color:#dbc298"
         offset=".27582" />
      <stop
         id="stop3207"
         style="stop-color:#a68b60"
         offset="1" />
    </linearGradient>
    <radialGradient
       id="radialGradient2805"
       xlink:href="#linearGradient3681"
       gradientUnits="userSpaceOnUse"
       cy="41.5"
       cx="5"
       gradientTransform="matrix(.59382 0 0 1.5367 41.141 -103.94)"
       r="5" />
    <linearGradient
       id="linearGradient2803"
       y2="35"
       gradientUnits="userSpaceOnUse"
       x2="17.554"
       gradientTransform="matrix(1.757 0 0 1.397 -17.394 -16.412)"
       y1="46"
       x1="17.554">
      <stop
         id="stop3705"
         style="stop-opacity:0"
         offset="0" />
      <stop
         id="stop3711"
         offset=".5" />
      <stop
         id="stop3707"
         style="stop-opacity:0"
         offset="1" />
    </linearGradient>
    <linearGradient
       id="linearGradient3681">
      <stop
         id="stop3683"
         offset="0" />
      <stop
         id="stop3685"
         style="stop-opacity:0"
         offset="1" />
    </linearGradient>
    <radialGradient
       id="radialGradient2801"
       xlink:href="#linearGradient3681"
       gradientUnits="userSpaceOnUse"
       cy="41.5"
       cx="5"
       gradientTransform="matrix(.59382 0 0 1.5367 -6.6595 -103.94)"
       r="5" />
    <linearGradient
       id="linearGradient2789"
       y2="25.411"
       gradientUnits="userSpaceOnUse"
       x2="57.726"
       gradientTransform="matrix(0 .71282 -.67402 0 50.746 15.046)"
       y1="25.411"
       x1="13.472">
      <stop
         id="stop4224"
         style="stop-color:#fff"
         offset="0" />
      <stop
         id="stop4226"
         style="stop-color:#fff;stop-opacity:0"
         offset="1" />
    </linearGradient>
    <linearGradient
       id="linearGradient2787"
       y2="20.71"
       gradientUnits="userSpaceOnUse"
       x2=".81572"
       gradientTransform="matrix(0 -.61460 -.58384 0 46.949 46.633)"
       y1="20.71"
       x1="28.315">
      <stop
         id="stop2266"
         style="stop-color:#d7e866"
         offset="0" />
      <stop
         id="stop2268"
         style="stop-color:#8cab2a"
         offset="1" />
    </linearGradient>
    <radialGradient
       r="5"
       gradientTransform="matrix(.59382 0 0 1.5367 41.141 -103.94)"
       cx="5"
       cy="41.5"
       gradientUnits="userSpaceOnUse"
       xlink:href="#linearGradient3681"
       id="radialGradient2805-9" />
    <radialGradient
       r="5"
       gradientTransform="matrix(.59382 0 0 1.5367 -6.6595 -103.94)"
       cx="5"
       cy="41.5"
       gradientUnits="userSpaceOnUse"
       xlink:href="#linearGradient3681"
       id="radialGradient2801-3" />
    <linearGradient
       inkscape:collect="always"
       xlink:href="#linearGradient3681"
       id="linearGradient4229"
       x1="296.98483"
       y1="70.710678"
       x2="318.19806"
       y2="70.710678"
       gradientUnits="userSpaceOnUse"
       gradientTransform="matrix(0.32351731,0.32351731,-0.32351731,0.32351731,-60.010277,-102.22936)" />
    <linearGradient
       inkscape:collect="always"
       xlink:href="#linearGradient3681"
       id="linearGradient4198"
       gradientUnits="userSpaceOnUse"
       gradientTransform="matrix(0.32351731,0.32351731,-0.32351731,0.32351731,-49.827264,-92.140197)"
       x1="296.98483"
       y1="70.710678"
       x2="318.19806"
       y2="70.710678" />
    <linearGradient
       inkscape:collect="always"
       xlink:href="#linearGradient3681"
       id="linearGradient4202"
       gradientUnits="userSpaceOnUse"
       gradientTransform="matrix(0.32351731,0.32351731,-0.32351731,0.32351731,-40.113515,-99.319925)"
       x1="296.98483"
       y1="70.710678"
       x2="318.19806"
       y2="70.710678" />
  </defs>
  <g
     id="g4186"
     transform="translate(0,1)">
    <rect
       ry="2"
       rx="2"
       y="-44"
       x="-43"
       height="40"
       width="40"
       id="rect4203"
       style="fill:#e73c57;fill-opacity:1;stroke:none"
       transform="matrix(0,-1,-1,0,0,0)" />
    <path
       inkscape:connector-curvature="0"
       id="rect4592"
       d="M 6,3 C 4.892,3 4,3.892 4,5 L 4,6 C 4,4.892 4.892,4 6,4 l 36,0 c 1.108,0 2,0.892 2,2 L 44,5 C 44,3.892 43.108,3 42,3 L 6,3 Z"
       style="opacity:0.2;fill:#ffffff;fill-opacity:1;stroke:none" />
    <path
       inkscape:connector-curvature="0"
       style="opacity:0.3;fill:#000000;fill-opacity:1;stroke:none"
       d="M 6,43 C 4.892,43 4,42.108 4,41 l 0,-1 c 0,1.108 0.892,2 2,2 l 36,0 c 1.108,0 2,-0.892 2,-2 l 0,1 c 0,1.108 -0.892,2 -2,2 L 6,43 Z"
       id="path4597" />
    <path
       id="rect4257"
       d="m 14,12 c -1.108,0 -2,0.892 -2,2 l 0,20 c 0,1.108 0.892,2 2,2 1.108,0 2,-0.892 2,-2 l 0,-20 c 0,-1.108 -0.892,-2 -2,-2 z m 10,0 c -1.108,0 -2,0.892 -2,2 l 0,20 c 0,1.108 0.892,2 2,2 1.108,0 2,-0.892 2,-2 l 0,-20 c 0,-1.108 -0.892,-2 -2,-2 z m 10,0 c -1.108,0 -2,0.892 -2,2 l 0,20 c 0,1.108 0.892,2 2,2 1.108,0 2,-0.892 2,-2 l 0,-20 c 0,-1.108 -0.892,-2 -2,-2 z"
       style="opacity:1;fill:#ffffff;fill-opacity:1"
       inkscape:connector-curvature="0" />
    <path
       sodipodi:nodetypes="ccccc"
       inkscape:connector-curvature="0"
       id="rect4205"
       d="m 22.797356,21.154252 -6.091323,5.176278 -3.916029,-4.503381 c 0.265505,-2.683697 1.892123,-5.04628 3.148467,-7.388252 1.038472,0.691681 5.060996,4.917466 6.858885,6.715355 z"
       style="display:inline;opacity:0.2;fill:url(#linearGradient4229);fill-opacity:1;stroke:none;enable-background:new" />
    <path
       inkscape:connector-curvature="0"
       id="path4383"
       d="m 18,18 a 3.9999997,3.9999996 0 0 1 -4,4 3.9999997,3.9999996 0 0 1 -4,-4 3.9999997,3.9999996 0 0 1 4,-4 3.9999997,3.9999996 0 0 1 4,4 z"
       style="opacity:1;fill:#e78d3c;fill-opacity:1" />
    <path
       style="display:inline;opacity:0.2;fill:url(#linearGradient4198);fill-opacity:1;stroke:none;enable-background:new"
       d="m 32.980369,31.243412 -6.091323,5.176278 -3.916029,-4.503381 c 0.265505,-2.683697 1.892123,-5.04628 3.148467,-7.388252 1.038472,0.691681 5.060996,4.917466 6.858885,6.715355 z"
       id="path4196"
       inkscape:connector-curvature="0"
       sodipodi:nodetypes="ccccc" />
    <path
       style="opacity:1;fill:#e78d3c;fill-opacity:1"
       d="m 28,28 a 3.9999997,3.9999996 0 0 1 -4,4 3.9999997,3.9999996 0 0 1 -4,-4 3.9999997,3.9999996 0 0 1 4,-4 3.9999997,3.9999996 0 0 1 4,4 z"
       id="path4389"
       inkscape:connector-curvature="0" />
    <path
       sodipodi:nodetypes="ccccc"
       inkscape:connector-curvature="0"
       id="path4200"
       d="m 42.694118,24.063684 -6.091323,5.176278 -3.916029,-4.503381 c 0.265505,-2.683697 1.892123,-5.04628 3.148467,-7.388252 1.038472,0.691681 5.060996,4.917466 6.858885,6.715355 z"
       style="display:inline;opacity:0.2;fill:url(#linearGradient4202);fill-opacity:1;stroke:none;enable-background:new" />
    <path
       inkscape:connector-curvature="0"
       id="path4391"
       d="m 38,21 a 3.9999997,3.9999996 0 0 1 -4,4 3.9999997,3.9999996 0 0 1 -4,-4 3.9999997,3.9999996 0 0 1 4,-4 3.9999997,3.9999996 0 0 1 4,4 z"
       style="opacity:1;fill:#e78d3c;fill-opacity:1" />
  </g>
</svg>
